G04*
G04 #@! TF.GenerationSoftware,Altium Limited,Altium Designer,20.1.11 (218)*
G04*
G04 Layer_Color=8388736*
%FSLAX25Y25*%
%MOIN*%
G70*
G04*
G04 #@! TF.SameCoordinates,8152623E-C4D5-4017-8556-DC002FEE392B*
G04*
G04*
G04 #@! TF.FilePolarity,Negative*
G04*
G01*
G75*
G04:AMPARAMS|DCode=10|XSize=53.21mil|YSize=31.56mil|CornerRadius=4.76mil|HoleSize=0mil|Usage=FLASHONLY|Rotation=0.000|XOffset=0mil|YOffset=0mil|HoleType=Round|Shape=RoundedRectangle|*
%AMROUNDEDRECTD10*
21,1,0.05321,0.02205,0,0,0.0*
21,1,0.04370,0.03156,0,0,0.0*
1,1,0.00951,0.02185,-0.01102*
1,1,0.00951,-0.02185,-0.01102*
1,1,0.00951,-0.02185,0.01102*
1,1,0.00951,0.02185,0.01102*
%
%ADD10ROUNDEDRECTD10*%
G04:AMPARAMS|DCode=11|XSize=240.22mil|YSize=114.24mil|CornerRadius=18.54mil|HoleSize=0mil|Usage=FLASHONLY|Rotation=90.000|XOffset=0mil|YOffset=0mil|HoleType=Round|Shape=RoundedRectangle|*
%AMROUNDEDRECTD11*
21,1,0.24022,0.07717,0,0,90.0*
21,1,0.20315,0.11424,0,0,90.0*
1,1,0.03707,0.03858,0.10158*
1,1,0.03707,0.03858,-0.10158*
1,1,0.03707,-0.03858,-0.10158*
1,1,0.03707,-0.03858,0.10158*
%
%ADD11ROUNDEDRECTD11*%
G04:AMPARAMS|DCode=12|XSize=27.62mil|YSize=47.31mil|CornerRadius=7.91mil|HoleSize=0mil|Usage=FLASHONLY|Rotation=0.000|XOffset=0mil|YOffset=0mil|HoleType=Round|Shape=RoundedRectangle|*
%AMROUNDEDRECTD12*
21,1,0.02762,0.03150,0,0,0.0*
21,1,0.01181,0.04731,0,0,0.0*
1,1,0.01581,0.00591,-0.01575*
1,1,0.01581,-0.00591,-0.01575*
1,1,0.01581,-0.00591,0.01575*
1,1,0.01581,0.00591,0.01575*
%
%ADD12ROUNDEDRECTD12*%
G04:AMPARAMS|DCode=13|XSize=53.21mil|YSize=35.5mil|CornerRadius=5.15mil|HoleSize=0mil|Usage=FLASHONLY|Rotation=90.000|XOffset=0mil|YOffset=0mil|HoleType=Round|Shape=RoundedRectangle|*
%AMROUNDEDRECTD13*
21,1,0.05321,0.02520,0,0,90.0*
21,1,0.04291,0.03550,0,0,90.0*
1,1,0.01030,0.01260,0.02146*
1,1,0.01030,0.01260,-0.02146*
1,1,0.01030,-0.01260,-0.02146*
1,1,0.01030,-0.01260,0.02146*
%
%ADD13ROUNDEDRECTD13*%
G04:AMPARAMS|DCode=14|XSize=53.21mil|YSize=31.56mil|CornerRadius=4.76mil|HoleSize=0mil|Usage=FLASHONLY|Rotation=270.000|XOffset=0mil|YOffset=0mil|HoleType=Round|Shape=RoundedRectangle|*
%AMROUNDEDRECTD14*
21,1,0.05321,0.02205,0,0,270.0*
21,1,0.04370,0.03156,0,0,270.0*
1,1,0.00951,-0.01102,-0.02185*
1,1,0.00951,-0.01102,0.02185*
1,1,0.00951,0.01102,0.02185*
1,1,0.00951,0.01102,-0.02185*
%
%ADD14ROUNDEDRECTD14*%
G04:AMPARAMS|DCode=15|XSize=53.21mil|YSize=35.5mil|CornerRadius=5.15mil|HoleSize=0mil|Usage=FLASHONLY|Rotation=180.000|XOffset=0mil|YOffset=0mil|HoleType=Round|Shape=RoundedRectangle|*
%AMROUNDEDRECTD15*
21,1,0.05321,0.02520,0,0,180.0*
21,1,0.04291,0.03550,0,0,180.0*
1,1,0.01030,-0.02146,0.01260*
1,1,0.01030,0.02146,0.01260*
1,1,0.01030,0.02146,-0.01260*
1,1,0.01030,-0.02146,-0.01260*
%
%ADD15ROUNDEDRECTD15*%
G04:AMPARAMS|DCode=16|XSize=76.84mil|YSize=55.18mil|CornerRadius=9.68mil|HoleSize=0mil|Usage=FLASHONLY|Rotation=270.000|XOffset=0mil|YOffset=0mil|HoleType=Round|Shape=RoundedRectangle|*
%AMROUNDEDRECTD16*
21,1,0.07684,0.03583,0,0,270.0*
21,1,0.05748,0.05518,0,0,270.0*
1,1,0.01935,-0.01791,-0.02874*
1,1,0.01935,-0.01791,0.02874*
1,1,0.01935,0.01791,0.02874*
1,1,0.01935,0.01791,-0.02874*
%
%ADD16ROUNDEDRECTD16*%
G04:AMPARAMS|DCode=17|XSize=59.12mil|YSize=35.5mil|CornerRadius=5.15mil|HoleSize=0mil|Usage=FLASHONLY|Rotation=180.000|XOffset=0mil|YOffset=0mil|HoleType=Round|Shape=RoundedRectangle|*
%AMROUNDEDRECTD17*
21,1,0.05912,0.02520,0,0,180.0*
21,1,0.04882,0.03550,0,0,180.0*
1,1,0.01030,-0.02441,0.01260*
1,1,0.01030,0.02441,0.01260*
1,1,0.01030,0.02441,-0.01260*
1,1,0.01030,-0.02441,-0.01260*
%
%ADD17ROUNDEDRECTD17*%
G04:AMPARAMS|DCode=18|XSize=59.12mil|YSize=55.18mil|CornerRadius=7.12mil|HoleSize=0mil|Usage=FLASHONLY|Rotation=270.000|XOffset=0mil|YOffset=0mil|HoleType=Round|Shape=RoundedRectangle|*
%AMROUNDEDRECTD18*
21,1,0.05912,0.04095,0,0,270.0*
21,1,0.04488,0.05518,0,0,270.0*
1,1,0.01424,-0.02047,-0.02244*
1,1,0.01424,-0.02047,0.02244*
1,1,0.01424,0.02047,0.02244*
1,1,0.01424,0.02047,-0.02244*
%
%ADD18ROUNDEDRECTD18*%
G04:AMPARAMS|DCode=19|XSize=27.62mil|YSize=47.31mil|CornerRadius=4.36mil|HoleSize=0mil|Usage=FLASHONLY|Rotation=180.000|XOffset=0mil|YOffset=0mil|HoleType=Round|Shape=RoundedRectangle|*
%AMROUNDEDRECTD19*
21,1,0.02762,0.03858,0,0,180.0*
21,1,0.01890,0.04731,0,0,180.0*
1,1,0.00872,-0.00945,0.01929*
1,1,0.00872,0.00945,0.01929*
1,1,0.00872,0.00945,-0.01929*
1,1,0.00872,-0.00945,-0.01929*
%
%ADD19ROUNDEDRECTD19*%
G04:AMPARAMS|DCode=20|XSize=90.61mil|YSize=208.72mil|CornerRadius=10.66mil|HoleSize=0mil|Usage=FLASHONLY|Rotation=90.000|XOffset=0mil|YOffset=0mil|HoleType=Round|Shape=RoundedRectangle|*
%AMROUNDEDRECTD20*
21,1,0.09061,0.18740,0,0,90.0*
21,1,0.06929,0.20872,0,0,90.0*
1,1,0.02132,0.09370,0.03465*
1,1,0.02132,0.09370,-0.03465*
1,1,0.02132,-0.09370,-0.03465*
1,1,0.02132,-0.09370,0.03465*
%
%ADD20ROUNDEDRECTD20*%
G04:AMPARAMS|DCode=21|XSize=61.09mil|YSize=53.21mil|CornerRadius=11.84mil|HoleSize=0mil|Usage=FLASHONLY|Rotation=90.000|XOffset=0mil|YOffset=0mil|HoleType=Round|Shape=RoundedRectangle|*
%AMROUNDEDRECTD21*
21,1,0.06109,0.02953,0,0,90.0*
21,1,0.03740,0.05321,0,0,90.0*
1,1,0.02368,0.01476,0.01870*
1,1,0.02368,0.01476,-0.01870*
1,1,0.02368,-0.01476,-0.01870*
1,1,0.02368,-0.01476,0.01870*
%
%ADD21ROUNDEDRECTD21*%
G04:AMPARAMS|DCode=22|XSize=27.62mil|YSize=47.31mil|CornerRadius=4.36mil|HoleSize=0mil|Usage=FLASHONLY|Rotation=270.000|XOffset=0mil|YOffset=0mil|HoleType=Round|Shape=RoundedRectangle|*
%AMROUNDEDRECTD22*
21,1,0.02762,0.03858,0,0,270.0*
21,1,0.01890,0.04731,0,0,270.0*
1,1,0.00872,-0.01929,-0.00945*
1,1,0.00872,-0.01929,0.00945*
1,1,0.00872,0.01929,0.00945*
1,1,0.00872,0.01929,-0.00945*
%
%ADD22ROUNDEDRECTD22*%
%ADD23R,0.01581X0.05518*%
%ADD24R,0.08274X0.07487*%
G04:AMPARAMS|DCode=25|XSize=66.99mil|YSize=66.99mil|CornerRadius=17.75mil|HoleSize=0mil|Usage=FLASHONLY|Rotation=0.000|XOffset=0mil|YOffset=0mil|HoleType=Round|Shape=RoundedRectangle|*
%AMROUNDEDRECTD25*
21,1,0.06699,0.03150,0,0,0.0*
21,1,0.03150,0.06699,0,0,0.0*
1,1,0.03550,0.01575,-0.01575*
1,1,0.03550,-0.01575,-0.01575*
1,1,0.03550,-0.01575,0.01575*
1,1,0.03550,0.01575,0.01575*
%
%ADD25ROUNDEDRECTD25*%
%ADD26C,0.06699*%
%ADD27C,0.00400*%
D10*
X212000Y87260D02*
D03*
Y94740D02*
D03*
X28000Y68228D02*
D03*
X35000Y68228D02*
D03*
X36000Y43740D02*
D03*
X49000Y68228D02*
D03*
X42000D02*
D03*
X64000Y43740D02*
D03*
Y36260D02*
D03*
X43000Y43740D02*
D03*
Y36260D02*
D03*
X28000Y75709D02*
D03*
X77000D02*
D03*
Y68228D02*
D03*
X88000Y61740D02*
D03*
Y54260D02*
D03*
X57000Y36260D02*
D03*
Y43740D02*
D03*
X28000Y62740D02*
D03*
Y55260D02*
D03*
X56000Y68228D02*
D03*
Y75709D02*
D03*
X129000Y102260D02*
D03*
Y109740D02*
D03*
X35000Y75709D02*
D03*
X36000Y36260D02*
D03*
X91000Y75709D02*
D03*
Y68228D02*
D03*
X84000Y68228D02*
D03*
Y75709D02*
D03*
X78000Y36260D02*
D03*
Y43740D02*
D03*
X49000Y75709D02*
D03*
X85000Y36260D02*
D03*
Y43740D02*
D03*
X42000Y75709D02*
D03*
X21000Y55260D02*
D03*
Y62740D02*
D03*
X50000Y36260D02*
D03*
Y43740D02*
D03*
X21000Y49740D02*
D03*
Y42260D02*
D03*
X63000Y68228D02*
D03*
Y75709D02*
D03*
X102000Y59740D02*
D03*
Y52260D02*
D03*
X109000Y59740D02*
D03*
Y52260D02*
D03*
X70000Y68228D02*
D03*
X56000Y88709D02*
D03*
Y81228D02*
D03*
X71000Y43740D02*
D03*
Y36260D02*
D03*
X70000Y75709D02*
D03*
X50000Y52260D02*
D03*
Y59740D02*
D03*
X49000Y88709D02*
D03*
Y81228D02*
D03*
D11*
X245000Y97185D02*
D03*
Y57815D02*
D03*
D12*
X36260Y60118D02*
D03*
Y49882D02*
D03*
X43740Y60118D02*
D03*
X72260Y50882D02*
D03*
X151260Y77882D02*
D03*
Y88118D02*
D03*
X155000D02*
D03*
X158740D02*
D03*
Y77882D02*
D03*
X79740Y61118D02*
D03*
Y50882D02*
D03*
X43740Y49882D02*
D03*
X40000D02*
D03*
Y60118D02*
D03*
X155000Y77882D02*
D03*
X76000Y50882D02*
D03*
X72260Y61118D02*
D03*
X76000D02*
D03*
D13*
X44543Y28000D02*
D03*
X37457D02*
D03*
X211543Y44000D02*
D03*
X204457D02*
D03*
X155457Y103000D02*
D03*
X162543D02*
D03*
D14*
X217740Y22000D02*
D03*
X210260D02*
D03*
X96260Y34000D02*
D03*
X103740D02*
D03*
X203260Y14000D02*
D03*
X210740D02*
D03*
X208260Y51000D02*
D03*
X215740D02*
D03*
X162740Y96000D02*
D03*
X155260D02*
D03*
X144260Y64000D02*
D03*
X151740D02*
D03*
X156260D02*
D03*
X163740D02*
D03*
X158740Y71000D02*
D03*
X151260D02*
D03*
D15*
X145000Y86543D02*
D03*
Y79457D02*
D03*
D16*
X157709Y56000D02*
D03*
X146291D02*
D03*
D17*
X165000Y86937D02*
D03*
Y79063D02*
D03*
X212000Y80937D02*
D03*
Y73063D02*
D03*
D18*
X143905Y94000D02*
D03*
X132095D02*
D03*
D19*
X60000Y50882D02*
D03*
X56260Y61118D02*
D03*
X212000Y27882D02*
D03*
Y67118D02*
D03*
X63740Y61118D02*
D03*
X215740Y38118D02*
D03*
X208260Y56882D02*
D03*
Y38118D02*
D03*
X215740Y27882D02*
D03*
X208260D02*
D03*
X63740Y50882D02*
D03*
X56260D02*
D03*
X215740Y56882D02*
D03*
D20*
X128000Y83842D02*
D03*
Y64157D02*
D03*
D21*
X149445Y118000D02*
D03*
X142555D02*
D03*
D22*
X146118Y109740D02*
D03*
Y102260D02*
D03*
X135882D02*
D03*
Y109740D02*
D03*
X146118Y106000D02*
D03*
D23*
X86827Y25189D02*
D03*
X84858D02*
D03*
X82890D02*
D03*
X80921D02*
D03*
X78953D02*
D03*
X76984D02*
D03*
X75016D02*
D03*
X73047D02*
D03*
X71079D02*
D03*
X65173D02*
D03*
X63205D02*
D03*
X61236D02*
D03*
X59268D02*
D03*
X57299D02*
D03*
X55331D02*
D03*
X53362D02*
D03*
X67142D02*
D03*
X69110D02*
D03*
X88795D02*
D03*
X90764D02*
D03*
D24*
X46276Y14362D02*
D03*
X97850D02*
D03*
D25*
X47000Y105000D02*
D03*
D26*
Y115118D02*
D03*
X57000Y105000D02*
D03*
Y115000D02*
D03*
X67000Y105000D02*
D03*
Y115000D02*
D03*
X77000Y105000D02*
D03*
Y115000D02*
D03*
X87000Y105000D02*
D03*
Y115000D02*
D03*
D27*
X271654Y15748D02*
D03*
X15748D02*
D03*
M02*
