G04*
G04 #@! TF.GenerationSoftware,Altium Limited,Altium Designer,20.1.11 (218)*
G04*
G04 Layer_Physical_Order=1*
G04 Layer_Color=255*
%FSLAX25Y25*%
%MOIN*%
G70*
G04*
G04 #@! TF.SameCoordinates,8152623E-C4D5-4017-8556-DC002FEE392B*
G04*
G04*
G04 #@! TF.FilePolarity,Positive*
G04*
G01*
G75*
G04:AMPARAMS|DCode=28|XSize=49.21mil|YSize=27.56mil|CornerRadius=2.76mil|HoleSize=0mil|Usage=FLASHONLY|Rotation=0.000|XOffset=0mil|YOffset=0mil|HoleType=Round|Shape=RoundedRectangle|*
%AMROUNDEDRECTD28*
21,1,0.04921,0.02205,0,0,0.0*
21,1,0.04370,0.02756,0,0,0.0*
1,1,0.00551,0.02185,-0.01102*
1,1,0.00551,-0.02185,-0.01102*
1,1,0.00551,-0.02185,0.01102*
1,1,0.00551,0.02185,0.01102*
%
%ADD28ROUNDEDRECTD28*%
G04:AMPARAMS|DCode=29|XSize=236.22mil|YSize=110.24mil|CornerRadius=16.54mil|HoleSize=0mil|Usage=FLASHONLY|Rotation=90.000|XOffset=0mil|YOffset=0mil|HoleType=Round|Shape=RoundedRectangle|*
%AMROUNDEDRECTD29*
21,1,0.23622,0.07717,0,0,90.0*
21,1,0.20315,0.11024,0,0,90.0*
1,1,0.03307,0.03858,0.10158*
1,1,0.03307,0.03858,-0.10158*
1,1,0.03307,-0.03858,-0.10158*
1,1,0.03307,-0.03858,0.10158*
%
%ADD29ROUNDEDRECTD29*%
G04:AMPARAMS|DCode=30|XSize=23.62mil|YSize=43.31mil|CornerRadius=5.91mil|HoleSize=0mil|Usage=FLASHONLY|Rotation=0.000|XOffset=0mil|YOffset=0mil|HoleType=Round|Shape=RoundedRectangle|*
%AMROUNDEDRECTD30*
21,1,0.02362,0.03150,0,0,0.0*
21,1,0.01181,0.04331,0,0,0.0*
1,1,0.01181,0.00591,-0.01575*
1,1,0.01181,-0.00591,-0.01575*
1,1,0.01181,-0.00591,0.01575*
1,1,0.01181,0.00591,0.01575*
%
%ADD30ROUNDEDRECTD30*%
G04:AMPARAMS|DCode=31|XSize=49.21mil|YSize=31.5mil|CornerRadius=3.15mil|HoleSize=0mil|Usage=FLASHONLY|Rotation=90.000|XOffset=0mil|YOffset=0mil|HoleType=Round|Shape=RoundedRectangle|*
%AMROUNDEDRECTD31*
21,1,0.04921,0.02520,0,0,90.0*
21,1,0.04291,0.03150,0,0,90.0*
1,1,0.00630,0.01260,0.02146*
1,1,0.00630,0.01260,-0.02146*
1,1,0.00630,-0.01260,-0.02146*
1,1,0.00630,-0.01260,0.02146*
%
%ADD31ROUNDEDRECTD31*%
G04:AMPARAMS|DCode=32|XSize=49.21mil|YSize=27.56mil|CornerRadius=2.76mil|HoleSize=0mil|Usage=FLASHONLY|Rotation=270.000|XOffset=0mil|YOffset=0mil|HoleType=Round|Shape=RoundedRectangle|*
%AMROUNDEDRECTD32*
21,1,0.04921,0.02205,0,0,270.0*
21,1,0.04370,0.02756,0,0,270.0*
1,1,0.00551,-0.01102,-0.02185*
1,1,0.00551,-0.01102,0.02185*
1,1,0.00551,0.01102,0.02185*
1,1,0.00551,0.01102,-0.02185*
%
%ADD32ROUNDEDRECTD32*%
G04:AMPARAMS|DCode=33|XSize=49.21mil|YSize=31.5mil|CornerRadius=3.15mil|HoleSize=0mil|Usage=FLASHONLY|Rotation=180.000|XOffset=0mil|YOffset=0mil|HoleType=Round|Shape=RoundedRectangle|*
%AMROUNDEDRECTD33*
21,1,0.04921,0.02520,0,0,180.0*
21,1,0.04291,0.03150,0,0,180.0*
1,1,0.00630,-0.02146,0.01260*
1,1,0.00630,0.02146,0.01260*
1,1,0.00630,0.02146,-0.01260*
1,1,0.00630,-0.02146,-0.01260*
%
%ADD33ROUNDEDRECTD33*%
G04:AMPARAMS|DCode=34|XSize=72.84mil|YSize=51.18mil|CornerRadius=7.68mil|HoleSize=0mil|Usage=FLASHONLY|Rotation=270.000|XOffset=0mil|YOffset=0mil|HoleType=Round|Shape=RoundedRectangle|*
%AMROUNDEDRECTD34*
21,1,0.07284,0.03583,0,0,270.0*
21,1,0.05748,0.05118,0,0,270.0*
1,1,0.01535,-0.01791,-0.02874*
1,1,0.01535,-0.01791,0.02874*
1,1,0.01535,0.01791,0.02874*
1,1,0.01535,0.01791,-0.02874*
%
%ADD34ROUNDEDRECTD34*%
G04:AMPARAMS|DCode=35|XSize=55.12mil|YSize=31.5mil|CornerRadius=3.15mil|HoleSize=0mil|Usage=FLASHONLY|Rotation=180.000|XOffset=0mil|YOffset=0mil|HoleType=Round|Shape=RoundedRectangle|*
%AMROUNDEDRECTD35*
21,1,0.05512,0.02520,0,0,180.0*
21,1,0.04882,0.03150,0,0,180.0*
1,1,0.00630,-0.02441,0.01260*
1,1,0.00630,0.02441,0.01260*
1,1,0.00630,0.02441,-0.01260*
1,1,0.00630,-0.02441,-0.01260*
%
%ADD35ROUNDEDRECTD35*%
G04:AMPARAMS|DCode=36|XSize=55.12mil|YSize=51.18mil|CornerRadius=5.12mil|HoleSize=0mil|Usage=FLASHONLY|Rotation=270.000|XOffset=0mil|YOffset=0mil|HoleType=Round|Shape=RoundedRectangle|*
%AMROUNDEDRECTD36*
21,1,0.05512,0.04095,0,0,270.0*
21,1,0.04488,0.05118,0,0,270.0*
1,1,0.01024,-0.02047,-0.02244*
1,1,0.01024,-0.02047,0.02244*
1,1,0.01024,0.02047,0.02244*
1,1,0.01024,0.02047,-0.02244*
%
%ADD36ROUNDEDRECTD36*%
G04:AMPARAMS|DCode=37|XSize=23.62mil|YSize=43.31mil|CornerRadius=2.36mil|HoleSize=0mil|Usage=FLASHONLY|Rotation=180.000|XOffset=0mil|YOffset=0mil|HoleType=Round|Shape=RoundedRectangle|*
%AMROUNDEDRECTD37*
21,1,0.02362,0.03858,0,0,180.0*
21,1,0.01890,0.04331,0,0,180.0*
1,1,0.00472,-0.00945,0.01929*
1,1,0.00472,0.00945,0.01929*
1,1,0.00472,0.00945,-0.01929*
1,1,0.00472,-0.00945,-0.01929*
%
%ADD37ROUNDEDRECTD37*%
G04:AMPARAMS|DCode=38|XSize=86.61mil|YSize=204.72mil|CornerRadius=8.66mil|HoleSize=0mil|Usage=FLASHONLY|Rotation=90.000|XOffset=0mil|YOffset=0mil|HoleType=Round|Shape=RoundedRectangle|*
%AMROUNDEDRECTD38*
21,1,0.08661,0.18740,0,0,90.0*
21,1,0.06929,0.20472,0,0,90.0*
1,1,0.01732,0.09370,0.03465*
1,1,0.01732,0.09370,-0.03465*
1,1,0.01732,-0.09370,-0.03465*
1,1,0.01732,-0.09370,0.03465*
%
%ADD38ROUNDEDRECTD38*%
G04:AMPARAMS|DCode=39|XSize=57.09mil|YSize=49.21mil|CornerRadius=9.84mil|HoleSize=0mil|Usage=FLASHONLY|Rotation=90.000|XOffset=0mil|YOffset=0mil|HoleType=Round|Shape=RoundedRectangle|*
%AMROUNDEDRECTD39*
21,1,0.05709,0.02953,0,0,90.0*
21,1,0.03740,0.04921,0,0,90.0*
1,1,0.01968,0.01476,0.01870*
1,1,0.01968,0.01476,-0.01870*
1,1,0.01968,-0.01476,-0.01870*
1,1,0.01968,-0.01476,0.01870*
%
%ADD39ROUNDEDRECTD39*%
G04:AMPARAMS|DCode=40|XSize=23.62mil|YSize=43.31mil|CornerRadius=2.36mil|HoleSize=0mil|Usage=FLASHONLY|Rotation=270.000|XOffset=0mil|YOffset=0mil|HoleType=Round|Shape=RoundedRectangle|*
%AMROUNDEDRECTD40*
21,1,0.02362,0.03858,0,0,270.0*
21,1,0.01890,0.04331,0,0,270.0*
1,1,0.00472,-0.01929,-0.00945*
1,1,0.00472,-0.01929,0.00945*
1,1,0.00472,0.01929,0.00945*
1,1,0.00472,0.01929,-0.00945*
%
%ADD40ROUNDEDRECTD40*%
%ADD41R,0.01181X0.05118*%
%ADD42R,0.07874X0.07087*%
%ADD43C,0.01575*%
%ADD44C,0.01181*%
%ADD45C,0.01968*%
%ADD46C,0.01200*%
G04:AMPARAMS|DCode=47|XSize=62.99mil|YSize=62.99mil|CornerRadius=15.75mil|HoleSize=0mil|Usage=FLASHONLY|Rotation=0.000|XOffset=0mil|YOffset=0mil|HoleType=Round|Shape=RoundedRectangle|*
%AMROUNDEDRECTD47*
21,1,0.06299,0.03150,0,0,0.0*
21,1,0.03150,0.06299,0,0,0.0*
1,1,0.03150,0.01575,-0.01575*
1,1,0.03150,-0.01575,-0.01575*
1,1,0.03150,-0.01575,0.01575*
1,1,0.03150,0.01575,0.01575*
%
%ADD47ROUNDEDRECTD47*%
%ADD48C,0.06299*%
%ADD49C,0.02756*%
G36*
X198000Y122000D02*
X201000Y119000D01*
X201000Y18000D01*
X190000Y7000D01*
X111000Y7000D01*
X109000Y9000D01*
Y46000D01*
X111000Y48000D01*
X162000Y48000D01*
X170000Y56000D01*
Y117000D01*
X175000Y122000D01*
X198000Y122000D01*
D02*
G37*
G36*
X283431Y100717D02*
Y25741D01*
X282962Y25568D01*
X282276Y26371D01*
X280484Y27902D01*
X278474Y29133D01*
X276296Y30035D01*
X274004Y30586D01*
X271654Y30771D01*
X269303Y30586D01*
X267011Y30035D01*
X264833Y29133D01*
X262823Y27902D01*
X261031Y26371D01*
X259500Y24578D01*
X258268Y22568D01*
X257366Y20390D01*
X256816Y18098D01*
X256631Y15748D01*
X256816Y13398D01*
X257366Y11106D01*
X258268Y8928D01*
X259500Y6918D01*
X261031Y5125D01*
X261799Y4469D01*
X261626Y4000D01*
X196653Y4000D01*
X196462Y4462D01*
X202000Y10000D01*
X215000Y10000D01*
X252500Y47500D01*
X252500Y100000D01*
X251535D01*
Y107343D01*
X251444Y108035D01*
X251176Y108681D01*
X250751Y109235D01*
X250197Y109660D01*
X249551Y109928D01*
X248858Y110019D01*
X241142D01*
X240449Y109928D01*
X239804Y109660D01*
X239249Y109235D01*
X238824Y108681D01*
X238557Y108035D01*
X238465Y107343D01*
Y100000D01*
X207000Y100000D01*
X207000Y125950D01*
X258198D01*
X283431Y100717D01*
D02*
G37*
D28*
X212000Y87260D02*
D03*
Y94740D02*
D03*
X28000Y68228D02*
D03*
X35000Y68228D02*
D03*
X36000Y43740D02*
D03*
X49000Y68228D02*
D03*
X42000D02*
D03*
X64000Y43740D02*
D03*
Y36260D02*
D03*
X43000Y43740D02*
D03*
Y36260D02*
D03*
X28000Y75709D02*
D03*
X77000D02*
D03*
Y68228D02*
D03*
X88000Y61740D02*
D03*
Y54260D02*
D03*
X57000Y36260D02*
D03*
Y43740D02*
D03*
X28000Y62740D02*
D03*
Y55260D02*
D03*
X56000Y68228D02*
D03*
Y75709D02*
D03*
X129000Y102260D02*
D03*
Y109740D02*
D03*
X35000Y75709D02*
D03*
X36000Y36260D02*
D03*
X91000Y75709D02*
D03*
Y68228D02*
D03*
X84000Y68228D02*
D03*
Y75709D02*
D03*
X78000Y36260D02*
D03*
Y43740D02*
D03*
X49000Y75709D02*
D03*
X85000Y36260D02*
D03*
Y43740D02*
D03*
X42000Y75709D02*
D03*
X21000Y55260D02*
D03*
Y62740D02*
D03*
X50000Y36260D02*
D03*
Y43740D02*
D03*
X21000Y49740D02*
D03*
Y42260D02*
D03*
X63000Y68228D02*
D03*
Y75709D02*
D03*
X102000Y59740D02*
D03*
Y52260D02*
D03*
X109000Y59740D02*
D03*
Y52260D02*
D03*
X70000Y68228D02*
D03*
X56000Y88709D02*
D03*
Y81228D02*
D03*
X71000Y43740D02*
D03*
Y36260D02*
D03*
X70000Y75709D02*
D03*
X50000Y52260D02*
D03*
Y59740D02*
D03*
X49000Y88709D02*
D03*
Y81228D02*
D03*
D29*
X245000Y97185D02*
D03*
Y57815D02*
D03*
D30*
X36260Y60118D02*
D03*
Y49882D02*
D03*
X43740Y60118D02*
D03*
X72260Y50882D02*
D03*
X151260Y77882D02*
D03*
Y88118D02*
D03*
X155000D02*
D03*
X158740D02*
D03*
Y77882D02*
D03*
X79740Y61118D02*
D03*
Y50882D02*
D03*
X43740Y49882D02*
D03*
X40000D02*
D03*
Y60118D02*
D03*
X155000Y77882D02*
D03*
X76000Y50882D02*
D03*
X72260Y61118D02*
D03*
X76000D02*
D03*
D31*
X44543Y28000D02*
D03*
X37457D02*
D03*
X211543Y44000D02*
D03*
X204457D02*
D03*
X155457Y103000D02*
D03*
X162543D02*
D03*
D32*
X217740Y22000D02*
D03*
X210260D02*
D03*
X96260Y34000D02*
D03*
X103740D02*
D03*
X203260Y14000D02*
D03*
X210740D02*
D03*
X208260Y51000D02*
D03*
X215740D02*
D03*
X162740Y96000D02*
D03*
X155260D02*
D03*
X144260Y64000D02*
D03*
X151740D02*
D03*
X156260D02*
D03*
X163740D02*
D03*
X158740Y71000D02*
D03*
X151260D02*
D03*
D33*
X145000Y86543D02*
D03*
Y79457D02*
D03*
D34*
X157709Y56000D02*
D03*
X146291D02*
D03*
D35*
X165000Y86937D02*
D03*
Y79063D02*
D03*
X212000Y80937D02*
D03*
Y73063D02*
D03*
D36*
X143905Y94000D02*
D03*
X132095D02*
D03*
D37*
X60000Y50882D02*
D03*
X56260Y61118D02*
D03*
X212000Y27882D02*
D03*
Y67118D02*
D03*
X63740Y61118D02*
D03*
X215740Y38118D02*
D03*
X208260Y56882D02*
D03*
Y38118D02*
D03*
X215740Y27882D02*
D03*
X208260D02*
D03*
X63740Y50882D02*
D03*
X56260D02*
D03*
X215740Y56882D02*
D03*
D38*
X128000Y83842D02*
D03*
Y64157D02*
D03*
D39*
X149445Y118000D02*
D03*
X142555D02*
D03*
D40*
X146118Y109740D02*
D03*
Y102260D02*
D03*
X135882D02*
D03*
Y109740D02*
D03*
X146118Y106000D02*
D03*
D41*
X86827Y25189D02*
D03*
X84858D02*
D03*
X82890D02*
D03*
X80921D02*
D03*
X78953D02*
D03*
X76984D02*
D03*
X75016D02*
D03*
X73047D02*
D03*
X71079D02*
D03*
X65173D02*
D03*
X63205D02*
D03*
X61236D02*
D03*
X59268D02*
D03*
X57299D02*
D03*
X55331D02*
D03*
X53362D02*
D03*
X67142D02*
D03*
X69110D02*
D03*
X88795D02*
D03*
X90764D02*
D03*
D42*
X46276Y14362D02*
D03*
X97850D02*
D03*
D43*
X212063Y73000D02*
X242000D01*
X245000Y57815D02*
Y70000D01*
X242000Y73000D02*
X245000Y70000D01*
X212000Y73063D02*
X212063Y73000D01*
X212000Y80937D02*
X212063Y81000D01*
X242000D01*
X245000Y84000D01*
Y97185D01*
X208260Y51000D02*
X208260Y51000D01*
X208260Y51000D02*
Y56882D01*
X215740Y38118D02*
X215740Y38118D01*
Y51000D01*
X204457Y41921D02*
X208260Y38118D01*
X204457Y41921D02*
Y44000D01*
X211543Y33457D02*
X212000Y33000D01*
X211543Y33457D02*
Y44000D01*
X210000Y33000D02*
X212000D01*
X208260Y31260D02*
X210000Y33000D01*
X208260Y27882D02*
Y31260D01*
X212000Y33000D02*
X214000D01*
X215740Y31260D01*
Y27882D02*
Y31260D01*
Y24000D02*
X217740Y22000D01*
X215740Y24000D02*
Y27882D01*
X210260Y22000D02*
X212000Y23740D01*
Y27882D01*
X210260Y22000D02*
X210740Y21520D01*
Y14000D02*
Y21520D01*
X215740Y56882D02*
X216000Y57142D01*
Y61000D01*
X212000Y67118D02*
Y73063D01*
Y94740D02*
Y98000D01*
X204457Y94000D02*
Y120543D01*
Y44000D02*
Y94000D01*
X211197Y87260D01*
X212000D01*
Y80937D02*
Y87260D01*
X200000Y125000D02*
X204457Y120543D01*
X35000Y68228D02*
X36260Y66969D01*
Y60118D02*
Y66969D01*
X28000Y68228D02*
X35000D01*
X36000Y43740D02*
X36260Y44000D01*
Y45000D02*
Y49882D01*
X42000Y68228D02*
X49000D01*
X42000D02*
X43740Y66488D01*
Y60118D02*
Y66488D01*
X57000Y44740D02*
X60000Y47740D01*
X50000Y43740D02*
X57000D01*
X60000Y47740D02*
Y50882D01*
Y51000D01*
X21000Y49740D02*
Y55260D01*
X28000D01*
X28000Y55260D01*
X150000Y105000D02*
X151000Y104000D01*
X150000Y105000D02*
Y108000D01*
X146118Y109740D02*
X148260D01*
X150000Y108000D01*
X151000Y104000D02*
X152000Y103000D01*
X149260Y102260D02*
X151000Y104000D01*
X152000Y103000D02*
X155457D01*
X146118Y102260D02*
X149260D01*
X63740Y61118D02*
Y67488D01*
X63000Y68228D02*
X63740Y67488D01*
X129000Y106000D02*
Y109740D01*
X142000Y106000D02*
X146118D01*
X103740Y34000D02*
X107000D01*
X102000Y59740D02*
Y71000D01*
Y56000D02*
Y59740D01*
X76000Y79000D02*
X77000Y78000D01*
Y75709D02*
Y78000D01*
X42000Y75709D02*
Y79000D01*
X28000Y75709D02*
Y79000D01*
X21000Y62740D02*
Y112000D01*
X30000Y121000D01*
X81000D01*
X87000Y115000D01*
X50000Y63000D02*
X50772D01*
X56000Y68228D01*
X77000Y82709D02*
X84000Y75709D01*
X77000Y82709D02*
Y105000D01*
X70000Y75709D02*
X72000Y77709D01*
Y110000D01*
X77000Y115000D01*
X42000Y95709D02*
X49000Y88709D01*
X42000Y95709D02*
Y110000D01*
X47000Y115000D01*
X52000Y92709D02*
X56000Y88709D01*
X52000Y92709D02*
Y110000D01*
X57000Y115000D01*
X49000Y71969D02*
Y75709D01*
X56000D02*
Y81228D01*
X35000Y80000D02*
X40000Y85000D01*
X35000Y75709D02*
Y80000D01*
X40000Y85000D02*
X59000D01*
X62000Y88000D01*
X97291Y75709D02*
X102000Y71000D01*
X91000Y75709D02*
X97291D01*
X79740Y63968D02*
X84000Y68228D01*
X79740Y61118D02*
Y63968D01*
X70000Y68228D02*
X72260Y65969D01*
X70000Y68228D02*
X70000Y68228D01*
X72260Y61118D02*
Y65969D01*
X70000Y68228D02*
X77000D01*
X79740Y61118D02*
X80000Y61378D01*
X79740Y45480D02*
Y50882D01*
X72260Y45000D02*
Y50882D01*
X27000Y32000D02*
X39854D01*
X21000Y38000D02*
Y42260D01*
Y38000D02*
X27000Y32000D01*
X63740Y47260D02*
X64000Y47000D01*
X63740Y47260D02*
Y50882D01*
X64000Y43740D02*
Y47000D01*
X45118Y49882D02*
X47000Y48000D01*
X43740Y49882D02*
X45118D01*
X39854Y32000D02*
X41000Y30854D01*
X62000Y88000D02*
Y110000D01*
X49000Y81228D02*
X56000D01*
X62000Y110000D02*
X67000Y115000D01*
X28000Y59000D02*
Y62740D01*
X40000Y60118D02*
Y64000D01*
X50000Y59740D02*
Y63000D01*
X53000Y49000D02*
X54882Y50882D01*
X56260D01*
X56000Y71969D02*
X80260D01*
X84000Y75709D01*
X56000D02*
X63000D01*
X83000Y58000D02*
X86740Y61740D01*
X88000D01*
X82000Y57000D02*
X83000Y58000D01*
X77000Y57000D02*
X82000D01*
X76000Y58000D02*
X77000Y57000D01*
X76000Y58000D02*
Y61118D01*
X84000Y68228D02*
X84000Y68228D01*
X91000D01*
X97000Y125000D02*
X200000D01*
X87000Y115000D02*
X97000Y125000D01*
X43740Y49685D02*
Y49882D01*
X58000Y40000D02*
X81260D01*
X85000Y43740D01*
X78000D02*
X79740Y45480D01*
X71000Y43740D02*
X72260Y45000D01*
D44*
X46000Y57000D02*
X54000D01*
X56260Y59260D01*
Y61118D01*
X28740Y56000D02*
X45000D01*
X46000Y57000D01*
X28000Y55260D02*
X28740Y56000D01*
X151260Y77882D02*
Y79260D01*
X154000Y82000D01*
X162063D01*
X165000Y79063D01*
X163937Y86937D02*
X165000D01*
X161000Y84000D02*
X163937Y86937D01*
X157000Y84000D02*
X161000D01*
X155000Y86000D02*
Y88118D01*
Y86000D02*
X157000Y84000D01*
X86000Y30000D02*
X88000D01*
X84858Y28858D02*
X86000Y30000D01*
X96260Y31260D02*
Y34000D01*
X95000Y30000D02*
X96260Y31260D01*
X88000Y30000D02*
X95000D01*
X86827Y28827D02*
X88000Y30000D01*
X86827Y25189D02*
Y28827D01*
X84858Y25189D02*
Y28858D01*
X77000Y55000D02*
X88000D01*
X70000Y31000D02*
X80000D01*
X85000Y36000D02*
Y36260D01*
X80000Y31000D02*
X85000Y36000D01*
X67000Y33000D02*
X75000D01*
X78000Y36000D02*
Y36260D01*
X75000Y33000D02*
X78000Y36000D01*
X61236Y25189D02*
Y33236D01*
X64000Y36000D02*
Y36260D01*
X61236Y33236D02*
X64000Y36000D01*
X50000Y36260D02*
X53260Y33000D01*
X57000D01*
X43000Y36000D02*
Y36260D01*
X49000Y30000D02*
X56000D01*
X43000Y36000D02*
X49000Y30000D01*
X44543Y28000D02*
X45543Y27000D01*
X51551D02*
X53362Y25189D01*
X45543Y27000D02*
X51551D01*
X56000Y30000D02*
X57299Y28701D01*
Y25189D02*
Y28701D01*
X59268Y25189D02*
Y30732D01*
X57000Y33000D02*
X59268Y30732D01*
X63205Y25189D02*
Y29205D01*
X67000Y33000D01*
X82500Y5000D02*
X194000D01*
X203010Y14010D01*
X67142Y28142D02*
X70000Y31000D01*
X67142Y25189D02*
Y28142D01*
X90000Y20000D02*
X90764Y20764D01*
Y25189D01*
X88795Y21205D02*
X90000Y20000D01*
X88795Y21205D02*
Y25189D01*
X54000Y55000D02*
X77000D01*
X76000Y54000D02*
X77000Y55000D01*
X76000Y50882D02*
Y54000D01*
X51260Y52260D02*
X54000Y55000D01*
X50000Y52260D02*
X51260D01*
X40000Y49882D02*
Y53000D01*
X41000Y54000D01*
X48260D01*
X50000Y52260D01*
X43000Y36260D02*
X43000Y36260D01*
X36000Y36260D02*
X43000D01*
X64000Y36260D02*
X64000Y36260D01*
X71000D01*
X71079Y16421D02*
Y25189D01*
Y16421D02*
X82500Y5000D01*
X55331Y22169D02*
X57500Y20000D01*
X55331Y22169D02*
Y25189D01*
D45*
X146575Y77882D02*
X151260D01*
X145000Y79457D02*
X146575Y77882D01*
X128000Y83842D02*
X130701Y86543D01*
X145000D01*
X143905Y87638D02*
Y94000D01*
Y87638D02*
X145000Y86543D01*
X146575Y88118D02*
X151260D01*
X145000Y86543D02*
X146575Y88118D01*
X155457Y103000D02*
Y111988D01*
X155260Y102803D02*
X155457Y103000D01*
X155260Y96000D02*
Y102803D01*
X155000Y95740D02*
X155260Y96000D01*
X155000Y88118D02*
Y95740D01*
X149445Y118000D02*
X155457Y111988D01*
X102000Y52260D02*
X109000D01*
X102000Y39740D02*
Y52260D01*
X96260Y34000D02*
X102000Y39740D01*
X158740Y88118D02*
Y92000D01*
X162740Y96000D01*
X151740Y64000D02*
X156260D01*
X158740Y71000D02*
Y77882D01*
Y69000D02*
Y71000D01*
Y69000D02*
X163740Y64000D01*
X87000Y115000D02*
X94000D01*
X97000Y118000D02*
X142555D01*
X94000Y115000D02*
X97000Y118000D01*
X112000Y56000D02*
X146291D01*
X102000D02*
X112000D01*
X115000Y59000D01*
Y98000D01*
X119260Y102260D01*
X129000D01*
X135882D01*
X87000Y115000D02*
X109000Y93000D01*
Y59740D02*
Y93000D01*
X90000Y36000D02*
X96000Y42000D01*
X99000Y56000D02*
X102000D01*
X91000D02*
X99000D01*
X96000Y53000D02*
X99000Y56000D01*
X96000Y42000D02*
Y53000D01*
X89000Y54000D02*
X91000Y56000D01*
X88000Y54260D02*
X88260Y54000D01*
X127000Y94000D02*
X132095D01*
X162543Y103000D02*
X166000D01*
X153000Y71000D02*
X155000Y73000D01*
X151260Y71000D02*
X153000D01*
X155000Y73000D02*
Y77882D01*
X157709Y56000D02*
X162000D01*
X144260Y58031D02*
X146291Y56000D01*
X144260Y58031D02*
Y64000D01*
X128157D02*
X144260D01*
X128000Y64157D02*
X128157Y64000D01*
X34000Y28000D02*
X37457D01*
X53260Y40000D02*
X57000Y36260D01*
X43000Y40000D02*
X53260D01*
X43000D02*
Y43740D01*
X43854Y28000D02*
X44543D01*
X41000Y30854D02*
X43854Y28000D01*
D46*
X12498Y90000D02*
X7500D01*
Y87501D01*
X8333Y86668D01*
X11665D01*
X12498Y87501D01*
Y90000D01*
Y81669D02*
Y85002D01*
X9999D01*
X10832Y83336D01*
Y82502D01*
X9999Y81669D01*
X8333D01*
X7500Y82502D01*
Y84169D01*
X8333Y85002D01*
X11665Y80003D02*
X12498Y79170D01*
Y77504D01*
X11665Y76671D01*
X8333D01*
X7500Y77504D01*
Y79170D01*
X8333Y80003D01*
X11665D01*
X7500Y75005D02*
Y73339D01*
Y74172D01*
X12498D01*
X11665Y75005D01*
X8333Y70840D02*
X7500Y70007D01*
Y68340D01*
X8333Y67507D01*
X11665D01*
X12498Y68340D01*
Y70007D01*
X11665Y70840D01*
X10832D01*
X9999Y70007D01*
Y67507D01*
Y65841D02*
Y62509D01*
X11665Y60843D02*
X12498Y60010D01*
Y58344D01*
X11665Y57511D01*
X8333D01*
X7500Y58344D01*
Y60010D01*
X8333Y60843D01*
X11665D01*
X7500Y55844D02*
Y54178D01*
Y55011D01*
X12498D01*
X11665Y55844D01*
X9999Y51679D02*
Y48347D01*
X11665Y46681D02*
X12498Y45848D01*
Y44181D01*
X11665Y43348D01*
X8333D01*
X7500Y44181D01*
Y45848D01*
X8333Y46681D01*
X11665D01*
X12498Y38350D02*
Y41682D01*
X9999D01*
X10832Y40016D01*
Y39183D01*
X9999Y38350D01*
X8333D01*
X7500Y39183D01*
Y40849D01*
X8333Y41682D01*
D47*
X47000Y105000D02*
D03*
D48*
Y115118D02*
D03*
X57000Y105000D02*
D03*
Y115000D02*
D03*
X67000Y105000D02*
D03*
Y115000D02*
D03*
X77000Y105000D02*
D03*
Y115000D02*
D03*
X87000Y105000D02*
D03*
Y115000D02*
D03*
D49*
X219000Y10000D02*
D03*
X212000Y33000D02*
D03*
X216000Y61000D02*
D03*
X212000Y98000D02*
D03*
X129000Y106000D02*
D03*
X142000D02*
D03*
X90000Y36000D02*
D03*
X107000Y34000D02*
D03*
X64000Y47000D02*
D03*
X49000Y71969D02*
D03*
X28000Y59000D02*
D03*
X40000Y64000D02*
D03*
X53000Y49000D02*
D03*
X56000Y71969D02*
D03*
X203000Y6000D02*
D03*
X210000Y103000D02*
D03*
X34000Y28000D02*
D03*
X58000Y40000D02*
D03*
X43000D02*
D03*
X28000Y79000D02*
D03*
X83000Y58000D02*
D03*
X162000Y56000D02*
D03*
X127000Y94000D02*
D03*
X42000Y79000D02*
D03*
X50000Y63000D02*
D03*
X257000Y6000D02*
D03*
X281000Y31000D02*
D03*
Y100000D02*
D03*
X255000Y97500D02*
D03*
X257000Y123000D02*
D03*
X169000Y49000D02*
D03*
X255000Y42500D02*
D03*
X197000Y118000D02*
D03*
X189000Y10000D02*
D03*
X198000Y19000D02*
D03*
X176000Y118000D02*
D03*
X112000Y10000D02*
D03*
Y45000D02*
D03*
X41000Y30854D02*
D03*
X47000Y48000D02*
D03*
X166000Y103000D02*
D03*
X155000Y73000D02*
D03*
X76000Y79000D02*
D03*
X57500Y20000D02*
D03*
X210000Y123000D02*
D03*
X90000Y20000D02*
D03*
M02*
