G04*
G04 #@! TF.GenerationSoftware,Altium Limited,Altium Designer,24.3.1 (35)*
G04*
G04 Layer_Physical_Order=2*
G04 Layer_Color=16711680*
%FSLAX25Y25*%
%MOIN*%
G70*
G04*
G04 #@! TF.SameCoordinates,749AA8DA-3F55-4B39-BDDD-BDD76B79CAE6*
G04*
G04*
G04 #@! TF.FilePolarity,Positive*
G04*
G01*
G75*
%ADD10C,0.01181*%
%ADD42C,0.01968*%
G04:AMPARAMS|DCode=48|XSize=59.06mil|YSize=59.06mil|CornerRadius=0mil|HoleSize=0mil|Usage=FLASHONLY|Rotation=0.000|XOffset=0mil|YOffset=0mil|HoleType=Round|Shape=Octagon|*
%AMOCTAGOND48*
4,1,8,0.02953,-0.01476,0.02953,0.01476,0.01476,0.02953,-0.01476,0.02953,-0.02953,0.01476,-0.02953,-0.01476,-0.01476,-0.02953,0.01476,-0.02953,0.02953,-0.01476,0.0*
%
%ADD48OCTAGOND48*%

G04:AMPARAMS|DCode=49|XSize=59.06mil|YSize=59.06mil|CornerRadius=14.76mil|HoleSize=0mil|Usage=FLASHONLY|Rotation=0.000|XOffset=0mil|YOffset=0mil|HoleType=Round|Shape=RoundedRectangle|*
%AMROUNDEDRECTD49*
21,1,0.05906,0.02953,0,0,0.0*
21,1,0.02953,0.05906,0,0,0.0*
1,1,0.02953,0.01476,-0.01476*
1,1,0.02953,-0.01476,-0.01476*
1,1,0.02953,-0.01476,0.01476*
1,1,0.02953,0.01476,0.01476*
%
%ADD49ROUNDEDRECTD49*%
%ADD50C,0.02756*%
G36*
X141698Y132213D02*
Y9519D01*
X136151Y3971D01*
X117505D01*
X117332Y4440D01*
X117480Y4567D01*
X119092Y6454D01*
X120388Y8569D01*
X121338Y10862D01*
X121917Y13274D01*
X122112Y15748D01*
X121917Y18222D01*
X121338Y20634D01*
X120388Y22927D01*
X119092Y25042D01*
X117480Y26929D01*
X115594Y28541D01*
X113478Y29837D01*
X111186Y30787D01*
X108773Y31366D01*
X106299Y31561D01*
X103826Y31366D01*
X101413Y30787D01*
X99120Y29837D01*
X97005Y28541D01*
X95118Y26929D01*
X93507Y25042D01*
X92210Y22927D01*
X91261Y20634D01*
X90681Y18222D01*
X90487Y15748D01*
X90681Y13274D01*
X91261Y10862D01*
X92210Y8569D01*
X93507Y6454D01*
X95118Y4567D01*
X95267Y4440D01*
X95094Y3971D01*
X9519D01*
X3971Y9519D01*
X3971Y132213D01*
X9519Y137761D01*
X136151D01*
X141698Y132213D01*
D02*
G37*
%LPC*%
G36*
X90757Y132683D02*
X82472D01*
Y116526D01*
X90757D01*
Y132683D01*
D02*
G37*
G36*
X74300Y132556D02*
X66015D01*
Y116400D01*
X74300D01*
Y132556D01*
D02*
G37*
G36*
X59143Y127834D02*
X50858D01*
Y116400D01*
X59143D01*
Y127834D01*
D02*
G37*
G36*
X49143D02*
X40857D01*
Y116400D01*
X49143D01*
Y127834D01*
D02*
G37*
G36*
X39143Y136492D02*
X30858D01*
Y116400D01*
X39143D01*
Y136492D01*
D02*
G37*
G36*
X29142Y135705D02*
X20857D01*
Y116400D01*
X29142D01*
Y135705D01*
D02*
G37*
G36*
X19142Y132556D02*
X10858D01*
Y116400D01*
X19142D01*
Y132556D01*
D02*
G37*
G36*
X86976Y114189D02*
X83024D01*
X81047Y112213D01*
Y108260D01*
X83024Y106283D01*
X86976D01*
X88953Y108260D01*
Y112213D01*
X86976Y114189D01*
D02*
G37*
G36*
X56976D02*
X53024D01*
X51047Y112213D01*
Y108260D01*
X53024Y106283D01*
X56976D01*
X58953Y108260D01*
Y112213D01*
X56976Y114189D01*
D02*
G37*
G36*
X46976D02*
X43024D01*
X41047Y112213D01*
Y108260D01*
X43024Y106283D01*
X46976D01*
X48953Y108260D01*
Y112213D01*
X46976Y114189D01*
D02*
G37*
G36*
X36976D02*
X33024D01*
X31047Y112213D01*
Y108260D01*
X33024Y106283D01*
X36976D01*
X38953Y108260D01*
Y112213D01*
X36976Y114189D01*
D02*
G37*
G36*
X26976D02*
X23024D01*
X21047Y112213D01*
Y108260D01*
X23024Y106283D01*
X26976D01*
X28953Y108260D01*
Y112213D01*
X26976Y114189D01*
D02*
G37*
G36*
X16476Y114237D02*
X13524D01*
X12557Y114045D01*
X11738Y113498D01*
X11191Y112679D01*
X10999Y111713D01*
Y108760D01*
X11191Y107794D01*
X11738Y106974D01*
X12557Y106427D01*
X13524Y106235D01*
X16476D01*
X17443Y106427D01*
X18262Y106974D01*
X18809Y107794D01*
X19001Y108760D01*
Y111713D01*
X18809Y112679D01*
X18262Y113498D01*
X17443Y114045D01*
X16476Y114237D01*
D02*
G37*
G36*
X56976Y101953D02*
X53024D01*
X51047Y99976D01*
Y96024D01*
X53024Y94047D01*
X56976D01*
X58953Y96024D01*
Y99976D01*
X56976Y101953D01*
D02*
G37*
G36*
X46976D02*
X43024D01*
X41047Y99976D01*
Y96024D01*
X43024Y94047D01*
X46976D01*
X48953Y96024D01*
Y99976D01*
X46976Y101953D01*
D02*
G37*
G36*
X36976D02*
X33024D01*
X31047Y99976D01*
Y96024D01*
X33024Y94047D01*
X36976D01*
X38953Y96024D01*
Y99976D01*
X36976Y101953D01*
D02*
G37*
G36*
X26976D02*
X23024D01*
X21047Y99976D01*
Y96024D01*
X23024Y94047D01*
X26976D01*
X28953Y96024D01*
Y99976D01*
X26976Y101953D01*
D02*
G37*
G36*
X16476Y102001D02*
X13524D01*
X12557Y101809D01*
X11738Y101262D01*
X11191Y100443D01*
X10999Y99476D01*
Y96524D01*
X11191Y95557D01*
X11738Y94738D01*
X12557Y94191D01*
X13524Y93999D01*
X16476D01*
X17443Y94191D01*
X18262Y94738D01*
X18809Y95557D01*
X19001Y96524D01*
Y99476D01*
X18809Y100443D01*
X18262Y101262D01*
X17443Y101809D01*
X16476Y102001D01*
D02*
G37*
G36*
X59055Y33921D02*
X58127Y33736D01*
X57803Y33519D01*
X29796D01*
X29471Y33736D01*
X28543Y33921D01*
X27615Y33736D01*
X26829Y33211D01*
X26303Y32424D01*
X26119Y31496D01*
X26303Y30568D01*
X26829Y29782D01*
X27615Y29256D01*
X28543Y29072D01*
X29471Y29256D01*
X29796Y29473D01*
X57803D01*
X58127Y29256D01*
X59055Y29072D01*
X59983Y29256D01*
X60769Y29782D01*
X61295Y30568D01*
X61480Y31496D01*
X61295Y32424D01*
X60769Y33211D01*
X59983Y33736D01*
X59055Y33921D01*
D02*
G37*
%LPD*%
D10*
X16574Y121330D02*
X17361Y120543D01*
Y118968D01*
X16574Y118181D01*
X15787D01*
X15000Y118968D01*
Y120543D01*
X14213Y121330D01*
X13426D01*
X12639Y120543D01*
Y118968D01*
X13426Y118181D01*
X16574Y126053D02*
X17361Y125265D01*
Y123691D01*
X16574Y122904D01*
X13426D01*
X12639Y123691D01*
Y125265D01*
X13426Y126053D01*
X17361Y127627D02*
X12639D01*
X14213D01*
X17361Y130775D01*
X15000Y128414D01*
X12639Y130775D01*
X22639Y118181D02*
X27361D01*
X25787Y119755D01*
X27361Y121330D01*
X22639D01*
X27361Y125265D02*
Y123691D01*
X26574Y122904D01*
X23426D01*
X22639Y123691D01*
Y125265D01*
X23426Y126053D01*
X26574D01*
X27361Y125265D01*
X26574Y130775D02*
X27361Y129988D01*
Y128414D01*
X26574Y127627D01*
X25787D01*
X25000Y128414D01*
Y129988D01*
X24213Y130775D01*
X23426D01*
X22639Y129988D01*
Y128414D01*
X23426Y127627D01*
X27361Y132350D02*
Y133924D01*
Y133137D01*
X22639D01*
Y132350D01*
Y133924D01*
X32639Y118181D02*
X37361D01*
X35787Y119755D01*
X37361Y121330D01*
X32639D01*
X37361Y122904D02*
Y124478D01*
Y123691D01*
X32639D01*
Y122904D01*
Y124478D01*
X36574Y129988D02*
X37361Y129201D01*
Y127627D01*
X36574Y126840D01*
X35787D01*
X35000Y127627D01*
Y129201D01*
X34213Y129988D01*
X33426D01*
X32639Y129201D01*
Y127627D01*
X33426Y126840D01*
X37361Y133924D02*
Y132350D01*
X36574Y131563D01*
X33426D01*
X32639Y132350D01*
Y133924D01*
X33426Y134711D01*
X36574D01*
X37361Y133924D01*
X46574Y121330D02*
X47361Y120543D01*
Y118968D01*
X46574Y118181D01*
X43426D01*
X42639Y118968D01*
Y120543D01*
X43426Y121330D01*
X46574Y126053D02*
X47361Y125265D01*
Y123691D01*
X46574Y122904D01*
X45787D01*
X45000Y123691D01*
Y125265D01*
X44213Y126053D01*
X43426D01*
X42639Y125265D01*
Y123691D01*
X43426Y122904D01*
X52639Y118181D02*
X57361D01*
Y120543D01*
X56574Y121330D01*
X55000D01*
X54213Y120543D01*
Y118181D01*
X57361Y122904D02*
X52639D01*
Y125265D01*
X53426Y126053D01*
X56574D01*
X57361Y125265D01*
Y122904D01*
X88976Y118307D02*
X85827D01*
X84253Y119881D01*
X85827Y121456D01*
X88976D01*
X88188Y126179D02*
X88976Y125391D01*
Y123817D01*
X88188Y123030D01*
X85040D01*
X84253Y123817D01*
Y125391D01*
X85040Y126179D01*
X88188Y130901D02*
X88976Y130114D01*
Y128540D01*
X88188Y127753D01*
X85040D01*
X84253Y128540D01*
Y130114D01*
X85040Y130901D01*
X71732Y121330D02*
X72519Y120543D01*
Y118968D01*
X71732Y118181D01*
X68583D01*
X67796Y118968D01*
Y120543D01*
X68583Y121330D01*
X70157D01*
Y119755D01*
X67796Y122904D02*
X72519D01*
X67796Y126053D01*
X72519D01*
Y127627D02*
X67796D01*
Y129988D01*
X68583Y130775D01*
X71732D01*
X72519Y129988D01*
Y127627D01*
D42*
X28543Y31496D02*
X59055D01*
D48*
X65000Y110236D02*
D03*
X25000D02*
D03*
X35000D02*
D03*
X45000D02*
D03*
X55000D02*
D03*
X75000D02*
D03*
X85000D02*
D03*
X75000Y98000D02*
D03*
X55000D02*
D03*
X45000D02*
D03*
X35000D02*
D03*
X25000D02*
D03*
X65000D02*
D03*
D49*
X15000Y110236D02*
D03*
Y98000D02*
D03*
D50*
X59055Y31496D02*
D03*
X28543D02*
D03*
X133858Y68504D02*
D03*
X112205Y103347D02*
D03*
X104331Y87598D02*
D03*
X31378Y70000D02*
D03*
X70378D02*
D03*
X19378Y72000D02*
D03*
X133858Y65847D02*
D03*
X83661Y30512D02*
D03*
X31378Y57000D02*
D03*
X59378Y72000D02*
D03*
X40378Y84000D02*
D03*
X13780Y31496D02*
D03*
X22378Y45000D02*
D03*
X16378Y84000D02*
D03*
X24378D02*
D03*
X47000Y54000D02*
D03*
X46378Y45000D02*
D03*
X33878Y20000D02*
D03*
X66378D02*
D03*
M02*
