M48
;Layer_Color=9474304
;FILE_FORMAT=2:5
INCH,LZ
;TYPE=PLATED
T01F00S00C0.01181
T02F00S00C0.03543
%
T01
X0033878Y002
X0066378
X0059055Y0031496
X0083661Y0030512
X0046378Y0045
X0047Y0054
X0031378Y0057
Y007
X0019378Y0072
X0016378Y0084
X0024378
X0040378
X0059378Y0072
X0070378Y007
X0104331Y0087598
X0112205Y0103347
X0133858Y0068504
Y0065847
X0022378Y0045
X0028543Y0031496
X001378
T02
X0015Y0098
X0025
X0035
X0045
X0055
X0065
X0075
Y0110236
X0065
X0055
X0045
X0035
X0025
X0015
X0085
M30
