G04*
G04 #@! TF.GenerationSoftware,Altium Limited,Altium Designer,24.3.1 (35)*
G04*
G04 Layer_Color=16711935*
%FSLAX25Y25*%
%MOIN*%
G70*
G04*
G04 #@! TF.SameCoordinates,749AA8DA-3F55-4B39-BDDD-BDD76B79CAE6*
G04*
G04*
G04 #@! TF.FilePolarity,Negative*
G04*
G01*
G75*
%ADD10C,0.01181*%
G04:AMPARAMS|DCode=25|XSize=63.06mil|YSize=63.06mil|CornerRadius=0mil|HoleSize=0mil|Usage=FLASHONLY|Rotation=0.000|XOffset=0mil|YOffset=0mil|HoleType=Round|Shape=Octagon|*
%AMOCTAGOND25*
4,1,8,0.03153,-0.01576,0.03153,0.01576,0.01576,0.03153,-0.01576,0.03153,-0.03153,0.01576,-0.03153,-0.01576,-0.01576,-0.03153,0.01576,-0.03153,0.03153,-0.01576,0.0*
%
%ADD25OCTAGOND25*%

G04:AMPARAMS|DCode=26|XSize=63.06mil|YSize=63.06mil|CornerRadius=16.76mil|HoleSize=0mil|Usage=FLASHONLY|Rotation=0.000|XOffset=0mil|YOffset=0mil|HoleType=Round|Shape=RoundedRectangle|*
%AMROUNDEDRECTD26*
21,1,0.06306,0.02953,0,0,0.0*
21,1,0.02953,0.06306,0,0,0.0*
1,1,0.03353,0.01476,-0.01476*
1,1,0.03353,-0.01476,-0.01476*
1,1,0.03353,-0.01476,0.01476*
1,1,0.03353,0.01476,0.01476*
%
%ADD26ROUNDEDRECTD26*%
%ADD27C,0.00400*%
D10*
X16574Y121330D02*
X17361Y120543D01*
Y118968D01*
X16574Y118181D01*
X15787D01*
X15000Y118968D01*
Y120543D01*
X14213Y121330D01*
X13426D01*
X12639Y120543D01*
Y118968D01*
X13426Y118181D01*
X16574Y126053D02*
X17361Y125265D01*
Y123691D01*
X16574Y122904D01*
X13426D01*
X12639Y123691D01*
Y125265D01*
X13426Y126053D01*
X17361Y127627D02*
X12639D01*
X14213D01*
X17361Y130775D01*
X15000Y128414D01*
X12639Y130775D01*
X22639Y118181D02*
X27361D01*
X25787Y119755D01*
X27361Y121330D01*
X22639D01*
X27361Y125265D02*
Y123691D01*
X26574Y122904D01*
X23426D01*
X22639Y123691D01*
Y125265D01*
X23426Y126053D01*
X26574D01*
X27361Y125265D01*
X26574Y130775D02*
X27361Y129988D01*
Y128414D01*
X26574Y127627D01*
X25787D01*
X25000Y128414D01*
Y129988D01*
X24213Y130775D01*
X23426D01*
X22639Y129988D01*
Y128414D01*
X23426Y127627D01*
X27361Y132350D02*
Y133924D01*
Y133137D01*
X22639D01*
Y132350D01*
Y133924D01*
X32639Y118181D02*
X37361D01*
X35787Y119755D01*
X37361Y121330D01*
X32639D01*
X37361Y122904D02*
Y124478D01*
Y123691D01*
X32639D01*
Y122904D01*
Y124478D01*
X36574Y129988D02*
X37361Y129201D01*
Y127627D01*
X36574Y126840D01*
X35787D01*
X35000Y127627D01*
Y129201D01*
X34213Y129988D01*
X33426D01*
X32639Y129201D01*
Y127627D01*
X33426Y126840D01*
X37361Y133924D02*
Y132350D01*
X36574Y131563D01*
X33426D01*
X32639Y132350D01*
Y133924D01*
X33426Y134711D01*
X36574D01*
X37361Y133924D01*
X46574Y121330D02*
X47361Y120543D01*
Y118968D01*
X46574Y118181D01*
X43426D01*
X42639Y118968D01*
Y120543D01*
X43426Y121330D01*
X46574Y126053D02*
X47361Y125265D01*
Y123691D01*
X46574Y122904D01*
X45787D01*
X45000Y123691D01*
Y125265D01*
X44213Y126053D01*
X43426D01*
X42639Y125265D01*
Y123691D01*
X43426Y122904D01*
X52639Y118181D02*
X57361D01*
Y120543D01*
X56574Y121330D01*
X55000D01*
X54213Y120543D01*
Y118181D01*
X57361Y122904D02*
X52639D01*
Y125265D01*
X53426Y126053D01*
X56574D01*
X57361Y125265D01*
Y122904D01*
X88976Y118307D02*
X85827D01*
X84253Y119881D01*
X85827Y121456D01*
X88976D01*
X88188Y126179D02*
X88976Y125391D01*
Y123817D01*
X88188Y123030D01*
X85040D01*
X84253Y123817D01*
Y125391D01*
X85040Y126179D01*
X88188Y130901D02*
X88976Y130114D01*
Y128540D01*
X88188Y127753D01*
X85040D01*
X84253Y128540D01*
Y130114D01*
X85040Y130901D01*
X71732Y121330D02*
X72519Y120543D01*
Y118968D01*
X71732Y118181D01*
X68583D01*
X67796Y118968D01*
Y120543D01*
X68583Y121330D01*
X70157D01*
Y119755D01*
X67796Y122904D02*
X72519D01*
X67796Y126053D01*
X72519D01*
Y127627D02*
X67796D01*
Y129988D01*
X68583Y130775D01*
X71732D01*
X72519Y129988D01*
Y127627D01*
D25*
X65000Y110236D02*
D03*
X25000D02*
D03*
X35000D02*
D03*
X45000D02*
D03*
X55000D02*
D03*
X75000D02*
D03*
X85000D02*
D03*
X75000Y98000D02*
D03*
X55000D02*
D03*
X45000D02*
D03*
X35000D02*
D03*
X25000D02*
D03*
X65000D02*
D03*
D26*
X15000Y110236D02*
D03*
Y98000D02*
D03*
D27*
X106299Y15748D02*
D03*
M02*
