G04*
G04 #@! TF.GenerationSoftware,Altium Limited,Altium Designer,20.1.7 (139)*
G04*
G04 Layer_Physical_Order=2*
G04 Layer_Color=16711680*
%FSLAX25Y25*%
%MOIN*%
G70*
G04*
G04 #@! TF.SameCoordinates,05879739-44A9-4934-95FB-35F445BD12AF*
G04*
G04*
G04 #@! TF.FilePolarity,Positive*
G04*
G01*
G75*
%ADD43C,0.01968*%
%ADD45C,0.01575*%
%ADD47C,0.07874*%
G04:AMPARAMS|DCode=48|XSize=78.74mil|YSize=78.74mil|CornerRadius=7.87mil|HoleSize=0mil|Usage=FLASHONLY|Rotation=270.000|XOffset=0mil|YOffset=0mil|HoleType=Round|Shape=RoundedRectangle|*
%AMROUNDEDRECTD48*
21,1,0.07874,0.06299,0,0,270.0*
21,1,0.06299,0.07874,0,0,270.0*
1,1,0.01575,-0.03150,-0.03150*
1,1,0.01575,-0.03150,0.03150*
1,1,0.01575,0.03150,0.03150*
1,1,0.01575,0.03150,-0.03150*
%
%ADD48ROUNDEDRECTD48*%
%ADD49R,0.06299X0.06299*%
%ADD50C,0.06299*%
%ADD51C,0.02756*%
G36*
X283431Y100717D02*
Y25741D01*
X282962Y25568D01*
X282276Y26371D01*
X280484Y27902D01*
X278474Y29133D01*
X276296Y30035D01*
X274004Y30586D01*
X271654Y30771D01*
X269303Y30586D01*
X267011Y30035D01*
X264833Y29133D01*
X262823Y27902D01*
X261031Y26371D01*
X259500Y24578D01*
X258268Y22568D01*
X257366Y20390D01*
X256816Y18098D01*
X256631Y15748D01*
X256816Y13398D01*
X257366Y11106D01*
X258268Y8928D01*
X259500Y6918D01*
X261031Y5125D01*
X261833Y4440D01*
X261660Y3971D01*
X25741D01*
X25568Y4440D01*
X26371Y5125D01*
X27902Y6918D01*
X29133Y8928D01*
X30035Y11106D01*
X30586Y13398D01*
X30771Y15748D01*
X30586Y18098D01*
X30035Y20390D01*
X29133Y22568D01*
X27902Y24578D01*
X26371Y26371D01*
X24578Y27902D01*
X22568Y29133D01*
X20390Y30035D01*
X18098Y30586D01*
X15748Y30771D01*
X13398Y30586D01*
X11106Y30035D01*
X8928Y29133D01*
X6918Y27902D01*
X5125Y26371D01*
X4440Y25568D01*
X3971Y25741D01*
Y100717D01*
X29204Y125950D01*
X258198D01*
X283431Y100717D01*
D02*
G37*
%LPC*%
G36*
X87000Y119185D02*
X85917Y119043D01*
X84907Y118625D01*
X84040Y117959D01*
X83375Y117093D01*
X82957Y116083D01*
X82815Y115000D01*
X82957Y113917D01*
X83375Y112907D01*
X84040Y112040D01*
X84907Y111375D01*
X85917Y110957D01*
X87000Y110815D01*
X88083Y110957D01*
X89093Y111375D01*
X89960Y112040D01*
X90625Y112907D01*
X91043Y113917D01*
X91185Y115000D01*
X91043Y116083D01*
X90625Y117093D01*
X89960Y117959D01*
X89093Y118625D01*
X88083Y119043D01*
X87000Y119185D01*
D02*
G37*
G36*
X77000D02*
X75917Y119043D01*
X74907Y118625D01*
X74041Y117959D01*
X73375Y117093D01*
X72957Y116083D01*
X72815Y115000D01*
X72957Y113917D01*
X73375Y112907D01*
X74041Y112040D01*
X74907Y111375D01*
X75917Y110957D01*
X77000Y110815D01*
X78083Y110957D01*
X79093Y111375D01*
X79959Y112040D01*
X80625Y112907D01*
X81043Y113917D01*
X81185Y115000D01*
X81043Y116083D01*
X80625Y117093D01*
X79959Y117959D01*
X79093Y118625D01*
X78083Y119043D01*
X77000Y119185D01*
D02*
G37*
G36*
X67000D02*
X65917Y119043D01*
X64907Y118625D01*
X64040Y117959D01*
X63375Y117093D01*
X62957Y116083D01*
X62815Y115000D01*
X62957Y113917D01*
X63375Y112907D01*
X64040Y112040D01*
X64907Y111375D01*
X65917Y110957D01*
X67000Y110815D01*
X68083Y110957D01*
X69093Y111375D01*
X69959Y112040D01*
X70625Y112907D01*
X71043Y113917D01*
X71185Y115000D01*
X71043Y116083D01*
X70625Y117093D01*
X69959Y117959D01*
X69093Y118625D01*
X68083Y119043D01*
X67000Y119185D01*
D02*
G37*
G36*
X57000D02*
X55917Y119043D01*
X54907Y118625D01*
X54040Y117959D01*
X53375Y117093D01*
X52957Y116083D01*
X52815Y115000D01*
X52957Y113917D01*
X53375Y112907D01*
X54040Y112040D01*
X54907Y111375D01*
X55917Y110957D01*
X57000Y110815D01*
X58083Y110957D01*
X59093Y111375D01*
X59960Y112040D01*
X60625Y112907D01*
X61043Y113917D01*
X61185Y115000D01*
X61043Y116083D01*
X60625Y117093D01*
X59960Y117959D01*
X59093Y118625D01*
X58083Y119043D01*
X57000Y119185D01*
D02*
G37*
G36*
X47000D02*
X45917Y119043D01*
X44907Y118625D01*
X44041Y117959D01*
X43375Y117093D01*
X42957Y116083D01*
X42815Y115000D01*
X42957Y113917D01*
X43375Y112907D01*
X44041Y112040D01*
X44907Y111375D01*
X45917Y110957D01*
X47000Y110815D01*
X48083Y110957D01*
X49093Y111375D01*
X49959Y112040D01*
X50625Y112907D01*
X51043Y113917D01*
X51185Y115000D01*
X51043Y116083D01*
X50625Y117093D01*
X49959Y117959D01*
X49093Y118625D01*
X48083Y119043D01*
X47000Y119185D01*
D02*
G37*
G36*
X51150Y109150D02*
X42850D01*
Y100850D01*
X51150D01*
Y109150D01*
D02*
G37*
G36*
X77000Y109185D02*
X75917Y109043D01*
X74907Y108625D01*
X74041Y107959D01*
X73375Y107093D01*
X72957Y106083D01*
X72815Y105000D01*
X72957Y103917D01*
X73375Y102907D01*
X74041Y102041D01*
X74907Y101375D01*
X75917Y100957D01*
X77000Y100815D01*
X78083Y100957D01*
X79093Y101375D01*
X79959Y102041D01*
X80625Y102907D01*
X81043Y103917D01*
X81185Y105000D01*
X81043Y106083D01*
X80625Y107093D01*
X79959Y107959D01*
X79093Y108625D01*
X78083Y109043D01*
X77000Y109185D01*
D02*
G37*
G36*
X67000D02*
X65917Y109043D01*
X64907Y108625D01*
X64040Y107959D01*
X63375Y107093D01*
X62957Y106083D01*
X62815Y105000D01*
X62957Y103917D01*
X63375Y102907D01*
X64040Y102041D01*
X64907Y101375D01*
X65917Y100957D01*
X67000Y100815D01*
X68083Y100957D01*
X69093Y101375D01*
X69959Y102041D01*
X70625Y102907D01*
X71043Y103917D01*
X71185Y105000D01*
X71043Y106083D01*
X70625Y107093D01*
X69959Y107959D01*
X69093Y108625D01*
X68083Y109043D01*
X67000Y109185D01*
D02*
G37*
G36*
X247150Y101657D02*
X240850D01*
X240153Y101518D01*
X239562Y101123D01*
X239167Y100532D01*
X239028Y99835D01*
Y93535D01*
X239167Y92838D01*
X239562Y92247D01*
X240153Y91852D01*
X240850Y91713D01*
X247150D01*
X247847Y91852D01*
X248438Y92247D01*
X248833Y92838D01*
X248972Y93535D01*
Y99835D01*
X248833Y100532D01*
X248438Y101123D01*
X247847Y101518D01*
X247150Y101657D01*
D02*
G37*
G36*
X57000Y109185D02*
X55917Y109043D01*
X54907Y108625D01*
X54040Y107959D01*
X53375Y107093D01*
X52957Y106083D01*
X52815Y105000D01*
X52957Y103917D01*
X53375Y102907D01*
X54040Y102041D01*
X54907Y101375D01*
X55178Y101263D01*
Y83755D01*
X47711Y76289D01*
X47316Y75697D01*
X47178Y75000D01*
X47178Y75000D01*
Y73521D01*
X46760Y72896D01*
X46575Y71969D01*
X46760Y71041D01*
X47286Y70254D01*
X48072Y69728D01*
X49000Y69544D01*
X49928Y69728D01*
X50714Y70254D01*
X51240Y71041D01*
X51424Y71969D01*
X51240Y72896D01*
X50822Y73521D01*
Y74245D01*
X58289Y81711D01*
X58289Y81711D01*
X58684Y82303D01*
X58822Y83000D01*
X58822Y83000D01*
Y101263D01*
X59093Y101375D01*
X59960Y102041D01*
X60625Y102907D01*
X61043Y103917D01*
X61185Y105000D01*
X61043Y106083D01*
X60625Y107093D01*
X59960Y107959D01*
X59093Y108625D01*
X58083Y109043D01*
X57000Y109185D01*
D02*
G37*
G36*
X244000Y62295D02*
X242711Y62125D01*
X241510Y61627D01*
X240479Y60836D01*
X239687Y59805D01*
X239190Y58604D01*
X239020Y57315D01*
X239190Y56026D01*
X239687Y54825D01*
X240479Y53794D01*
X241510Y53003D01*
X242711Y52505D01*
X244000Y52335D01*
X245289Y52505D01*
X246490Y53003D01*
X247521Y53794D01*
X248312Y54825D01*
X248810Y56026D01*
X248980Y57315D01*
X248810Y58604D01*
X248312Y59805D01*
X247521Y60836D01*
X246490Y61627D01*
X245289Y62125D01*
X244000Y62295D01*
D02*
G37*
G36*
X56000Y74393D02*
X55072Y74208D01*
X54286Y73683D01*
X53760Y72896D01*
X53575Y71969D01*
X53760Y71041D01*
X54178Y70416D01*
Y52755D01*
X52809Y51387D01*
X52072Y51240D01*
X51286Y50714D01*
X50760Y49928D01*
X50576Y49000D01*
X50760Y48072D01*
X51286Y47286D01*
X52072Y46760D01*
X53000Y46575D01*
X53928Y46760D01*
X54714Y47286D01*
X55240Y48072D01*
X55387Y48809D01*
X57289Y50711D01*
X57684Y51303D01*
X57822Y52000D01*
X57822Y52000D01*
Y70416D01*
X58240Y71041D01*
X58425Y71969D01*
X58240Y72896D01*
X57714Y73683D01*
X56928Y74208D01*
X56000Y74393D01*
D02*
G37*
G36*
X69000Y50424D02*
X68072Y50240D01*
X67286Y49714D01*
X66760Y48928D01*
X66613Y48191D01*
X60707Y42284D01*
X60000Y42424D01*
X59072Y42240D01*
X58286Y41714D01*
X57760Y40928D01*
X57576Y40000D01*
X57710Y39322D01*
X57371Y38822D01*
X55755D01*
X48946Y45632D01*
X49240Y46072D01*
X49424Y47000D01*
X49240Y47928D01*
X48714Y48714D01*
X47928Y49240D01*
X47000Y49424D01*
X46072Y49240D01*
X45286Y48714D01*
X44760Y47928D01*
X44576Y47000D01*
X44760Y46072D01*
X45178Y45447D01*
Y45000D01*
X45178Y45000D01*
X45316Y44303D01*
X45711Y43711D01*
X53711Y35711D01*
X53711Y35711D01*
X54303Y35316D01*
X55000Y35178D01*
X55000Y35178D01*
X62000D01*
X62000Y35178D01*
X62697Y35316D01*
X63289Y35711D01*
X65191Y37613D01*
X65928Y37760D01*
X66714Y38286D01*
X67240Y39072D01*
X67424Y40000D01*
X67240Y40928D01*
X66714Y41714D01*
X66285Y42001D01*
X66222Y42645D01*
X69191Y45613D01*
X69928Y45760D01*
X70714Y46286D01*
X71240Y47072D01*
X71425Y48000D01*
X71240Y48928D01*
X70714Y49714D01*
X69928Y50240D01*
X69000Y50424D01*
D02*
G37*
G36*
X91000Y33424D02*
X90072Y33240D01*
X89748Y33023D01*
X40252D01*
X39928Y33240D01*
X39000Y33424D01*
X38072Y33240D01*
X37286Y32714D01*
X36760Y31928D01*
X36575Y31000D01*
X36760Y30072D01*
X37286Y29286D01*
X38072Y28760D01*
X39000Y28576D01*
X39928Y28760D01*
X40252Y28977D01*
X89748D01*
X90072Y28760D01*
X91000Y28576D01*
X91928Y28760D01*
X92714Y29286D01*
X93240Y30072D01*
X93424Y31000D01*
X93240Y31928D01*
X92714Y32714D01*
X91928Y33240D01*
X91000Y33424D01*
D02*
G37*
%LPD*%
D43*
X39000Y31000D02*
X91000D01*
D45*
X47000Y45000D02*
Y47000D01*
Y45000D02*
X55000Y37000D01*
X62000D01*
X65000Y40000D01*
X60000D02*
X61000D01*
X69000Y48000D01*
X53000Y49000D02*
X56000Y52000D01*
Y71969D01*
X49000Y71969D02*
Y75000D01*
X57000Y83000D02*
Y105000D01*
X49000Y75000D02*
X57000Y83000D01*
D47*
X244000Y57315D02*
D03*
D48*
Y96685D02*
D03*
D49*
X47000Y105000D02*
D03*
D50*
Y115000D02*
D03*
X57000Y105000D02*
D03*
Y115000D02*
D03*
X67000Y105000D02*
D03*
Y115000D02*
D03*
X77000Y105000D02*
D03*
Y115000D02*
D03*
X87000Y105000D02*
D03*
Y115000D02*
D03*
D51*
X60000Y40000D02*
D03*
X67000Y52000D02*
D03*
X47000Y47000D02*
D03*
X65000Y40000D02*
D03*
X69000Y48000D02*
D03*
X91000Y31000D02*
D03*
X53000Y49000D02*
D03*
X56000Y71969D02*
D03*
X102000Y20000D02*
D03*
X82000D02*
D03*
X76000D02*
D03*
X68000D02*
D03*
X60000D02*
D03*
X39000Y31000D02*
D03*
X57000Y46000D02*
D03*
X49000Y71969D02*
D03*
X28000Y59000D02*
D03*
X40000Y64000D02*
D03*
X203000Y6000D02*
D03*
X219000Y107000D02*
D03*
X32000Y27000D02*
D03*
X43000Y40000D02*
D03*
X28000Y79000D02*
D03*
X83000Y58000D02*
D03*
X162000Y56000D02*
D03*
X127000Y94000D02*
D03*
X42000Y79000D02*
D03*
X50000Y63000D02*
D03*
X227000Y14000D02*
D03*
X257000Y6000D02*
D03*
X281000Y31000D02*
D03*
X226000Y22000D02*
D03*
X281000Y100000D02*
D03*
X251000Y103000D02*
D03*
X257000Y123000D02*
D03*
X169000Y49000D02*
D03*
X244000Y20000D02*
D03*
X197000Y118000D02*
D03*
X189000Y10000D02*
D03*
X198000Y19000D02*
D03*
X176000Y118000D02*
D03*
X121000Y11000D02*
D03*
Y44000D02*
D03*
X166000Y103000D02*
D03*
X155000Y73000D02*
D03*
X76000Y79000D02*
D03*
X50000Y20000D02*
D03*
X212000Y28969D02*
D03*
X215000Y123000D02*
D03*
X95000Y20000D02*
D03*
M02*
