G04*
G04 #@! TF.GenerationSoftware,Altium Limited,Altium Designer,20.1.7 (139)*
G04*
G04 Layer_Color=8388736*
%FSLAX25Y25*%
%MOIN*%
G70*
G04*
G04 #@! TF.SameCoordinates,05879739-44A9-4934-95FB-35F445BD12AF*
G04*
G04*
G04 #@! TF.FilePolarity,Negative*
G04*
G01*
G75*
%ADD10R,0.08274X0.07487*%
%ADD11R,0.01581X0.05518*%
G04:AMPARAMS|DCode=12|XSize=27.62mil|YSize=47.31mil|CornerRadius=4.36mil|HoleSize=0mil|Usage=FLASHONLY|Rotation=180.000|XOffset=0mil|YOffset=0mil|HoleType=Round|Shape=RoundedRectangle|*
%AMROUNDEDRECTD12*
21,1,0.02762,0.03858,0,0,180.0*
21,1,0.01890,0.04731,0,0,180.0*
1,1,0.00872,-0.00945,0.01929*
1,1,0.00872,0.00945,0.01929*
1,1,0.00872,0.00945,-0.01929*
1,1,0.00872,-0.00945,-0.01929*
%
%ADD12ROUNDEDRECTD12*%
G04:AMPARAMS|DCode=13|XSize=53.21mil|YSize=31.56mil|CornerRadius=4.76mil|HoleSize=0mil|Usage=FLASHONLY|Rotation=0.000|XOffset=0mil|YOffset=0mil|HoleType=Round|Shape=RoundedRectangle|*
%AMROUNDEDRECTD13*
21,1,0.05321,0.02205,0,0,0.0*
21,1,0.04370,0.03156,0,0,0.0*
1,1,0.00951,0.02185,-0.01102*
1,1,0.00951,-0.02185,-0.01102*
1,1,0.00951,-0.02185,0.01102*
1,1,0.00951,0.02185,0.01102*
%
%ADD13ROUNDEDRECTD13*%
G04:AMPARAMS|DCode=14|XSize=53.21mil|YSize=31.56mil|CornerRadius=4.76mil|HoleSize=0mil|Usage=FLASHONLY|Rotation=270.000|XOffset=0mil|YOffset=0mil|HoleType=Round|Shape=RoundedRectangle|*
%AMROUNDEDRECTD14*
21,1,0.05321,0.02205,0,0,270.0*
21,1,0.04370,0.03156,0,0,270.0*
1,1,0.00951,-0.01102,-0.02185*
1,1,0.00951,-0.01102,0.02185*
1,1,0.00951,0.01102,0.02185*
1,1,0.00951,0.01102,-0.02185*
%
%ADD14ROUNDEDRECTD14*%
G04:AMPARAMS|DCode=15|XSize=27.62mil|YSize=47.31mil|CornerRadius=7.91mil|HoleSize=0mil|Usage=FLASHONLY|Rotation=0.000|XOffset=0mil|YOffset=0mil|HoleType=Round|Shape=RoundedRectangle|*
%AMROUNDEDRECTD15*
21,1,0.02762,0.03150,0,0,0.0*
21,1,0.01181,0.04731,0,0,0.0*
1,1,0.01581,0.00591,-0.01575*
1,1,0.01581,-0.00591,-0.01575*
1,1,0.01581,-0.00591,0.01575*
1,1,0.01581,0.00591,0.01575*
%
%ADD15ROUNDEDRECTD15*%
G04:AMPARAMS|DCode=16|XSize=59.12mil|YSize=35.5mil|CornerRadius=5.15mil|HoleSize=0mil|Usage=FLASHONLY|Rotation=180.000|XOffset=0mil|YOffset=0mil|HoleType=Round|Shape=RoundedRectangle|*
%AMROUNDEDRECTD16*
21,1,0.05912,0.02520,0,0,180.0*
21,1,0.04882,0.03550,0,0,180.0*
1,1,0.01030,-0.02441,0.01260*
1,1,0.01030,0.02441,0.01260*
1,1,0.01030,0.02441,-0.01260*
1,1,0.01030,-0.02441,-0.01260*
%
%ADD16ROUNDEDRECTD16*%
G04:AMPARAMS|DCode=17|XSize=59.12mil|YSize=55.18mil|CornerRadius=7.12mil|HoleSize=0mil|Usage=FLASHONLY|Rotation=270.000|XOffset=0mil|YOffset=0mil|HoleType=Round|Shape=RoundedRectangle|*
%AMROUNDEDRECTD17*
21,1,0.05912,0.04095,0,0,270.0*
21,1,0.04488,0.05518,0,0,270.0*
1,1,0.01424,-0.02047,-0.02244*
1,1,0.01424,-0.02047,0.02244*
1,1,0.01424,0.02047,0.02244*
1,1,0.01424,0.02047,-0.02244*
%
%ADD17ROUNDEDRECTD17*%
G04:AMPARAMS|DCode=18|XSize=90.61mil|YSize=208.72mil|CornerRadius=10.66mil|HoleSize=0mil|Usage=FLASHONLY|Rotation=90.000|XOffset=0mil|YOffset=0mil|HoleType=Round|Shape=RoundedRectangle|*
%AMROUNDEDRECTD18*
21,1,0.09061,0.18740,0,0,90.0*
21,1,0.06929,0.20872,0,0,90.0*
1,1,0.02132,0.09370,0.03465*
1,1,0.02132,0.09370,-0.03465*
1,1,0.02132,-0.09370,-0.03465*
1,1,0.02132,-0.09370,0.03465*
%
%ADD18ROUNDEDRECTD18*%
G04:AMPARAMS|DCode=19|XSize=76.84mil|YSize=55.18mil|CornerRadius=9.68mil|HoleSize=0mil|Usage=FLASHONLY|Rotation=270.000|XOffset=0mil|YOffset=0mil|HoleType=Round|Shape=RoundedRectangle|*
%AMROUNDEDRECTD19*
21,1,0.07684,0.03583,0,0,270.0*
21,1,0.05748,0.05518,0,0,270.0*
1,1,0.01935,-0.01791,-0.02874*
1,1,0.01935,-0.01791,0.02874*
1,1,0.01935,0.01791,0.02874*
1,1,0.01935,0.01791,-0.02874*
%
%ADD19ROUNDEDRECTD19*%
G04:AMPARAMS|DCode=20|XSize=53.21mil|YSize=35.5mil|CornerRadius=5.15mil|HoleSize=0mil|Usage=FLASHONLY|Rotation=90.000|XOffset=0mil|YOffset=0mil|HoleType=Round|Shape=RoundedRectangle|*
%AMROUNDEDRECTD20*
21,1,0.05321,0.02520,0,0,90.0*
21,1,0.04291,0.03550,0,0,90.0*
1,1,0.01030,0.01260,0.02146*
1,1,0.01030,0.01260,-0.02146*
1,1,0.01030,-0.01260,-0.02146*
1,1,0.01030,-0.01260,0.02146*
%
%ADD20ROUNDEDRECTD20*%
G04:AMPARAMS|DCode=21|XSize=61.09mil|YSize=53.21mil|CornerRadius=11.84mil|HoleSize=0mil|Usage=FLASHONLY|Rotation=90.000|XOffset=0mil|YOffset=0mil|HoleType=Round|Shape=RoundedRectangle|*
%AMROUNDEDRECTD21*
21,1,0.06109,0.02953,0,0,90.0*
21,1,0.03740,0.05321,0,0,90.0*
1,1,0.02368,0.01476,0.01870*
1,1,0.02368,0.01476,-0.01870*
1,1,0.02368,-0.01476,-0.01870*
1,1,0.02368,-0.01476,0.01870*
%
%ADD21ROUNDEDRECTD21*%
G04:AMPARAMS|DCode=22|XSize=27.62mil|YSize=47.31mil|CornerRadius=4.36mil|HoleSize=0mil|Usage=FLASHONLY|Rotation=90.000|XOffset=0mil|YOffset=0mil|HoleType=Round|Shape=RoundedRectangle|*
%AMROUNDEDRECTD22*
21,1,0.02762,0.03858,0,0,90.0*
21,1,0.01890,0.04731,0,0,90.0*
1,1,0.00872,0.01929,0.00945*
1,1,0.00872,0.01929,-0.00945*
1,1,0.00872,-0.01929,-0.00945*
1,1,0.00872,-0.01929,0.00945*
%
%ADD22ROUNDEDRECTD22*%
G04:AMPARAMS|DCode=23|XSize=53.21mil|YSize=35.5mil|CornerRadius=5.15mil|HoleSize=0mil|Usage=FLASHONLY|Rotation=180.000|XOffset=0mil|YOffset=0mil|HoleType=Round|Shape=RoundedRectangle|*
%AMROUNDEDRECTD23*
21,1,0.05321,0.02520,0,0,180.0*
21,1,0.04291,0.03550,0,0,180.0*
1,1,0.01030,-0.02146,0.01260*
1,1,0.01030,0.02146,0.01260*
1,1,0.01030,0.02146,-0.01260*
1,1,0.01030,-0.02146,-0.01260*
%
%ADD23ROUNDEDRECTD23*%
%ADD24C,0.08274*%
G04:AMPARAMS|DCode=25|XSize=82.74mil|YSize=82.74mil|CornerRadius=9.87mil|HoleSize=0mil|Usage=FLASHONLY|Rotation=270.000|XOffset=0mil|YOffset=0mil|HoleType=Round|Shape=RoundedRectangle|*
%AMROUNDEDRECTD25*
21,1,0.08274,0.06299,0,0,270.0*
21,1,0.06299,0.08274,0,0,270.0*
1,1,0.01975,-0.03150,-0.03150*
1,1,0.01975,-0.03150,0.03150*
1,1,0.01975,0.03150,0.03150*
1,1,0.01975,0.03150,-0.03150*
%
%ADD25ROUNDEDRECTD25*%
%ADD26R,0.06699X0.06699*%
%ADD27C,0.06699*%
%ADD28C,0.00400*%
D10*
X110630Y14362D02*
D03*
X39370D02*
D03*
D11*
X89764Y25189D02*
D03*
X87795D02*
D03*
X85827D02*
D03*
X83858D02*
D03*
X75984D02*
D03*
X74016D02*
D03*
X72047D02*
D03*
X70079D02*
D03*
X68110D02*
D03*
X66142D02*
D03*
X64173D02*
D03*
X58268D02*
D03*
X56299D02*
D03*
X54331D02*
D03*
X52362D02*
D03*
X50394D02*
D03*
X48425D02*
D03*
X46457D02*
D03*
X60236D02*
D03*
X62205D02*
D03*
X77953D02*
D03*
X79921D02*
D03*
X81890D02*
D03*
X91732D02*
D03*
X93701D02*
D03*
X95669D02*
D03*
X97638D02*
D03*
X99606D02*
D03*
X101575D02*
D03*
X103543D02*
D03*
D12*
X208260Y32118D02*
D03*
X215740D02*
D03*
Y21882D02*
D03*
X212000D02*
D03*
X208260D02*
D03*
X56260Y61118D02*
D03*
X63740D02*
D03*
Y50882D02*
D03*
X60000D02*
D03*
X56260D02*
D03*
D13*
X107000Y59740D02*
D03*
Y52260D02*
D03*
X100000Y59740D02*
D03*
Y52260D02*
D03*
X210000Y107740D02*
D03*
Y100260D02*
D03*
X56000Y88709D02*
D03*
Y81228D02*
D03*
X88000Y54260D02*
D03*
Y61740D02*
D03*
X63000Y75709D02*
D03*
Y68228D02*
D03*
X56000Y75709D02*
D03*
Y68228D02*
D03*
X21000Y42260D02*
D03*
Y49740D02*
D03*
X64000Y43740D02*
D03*
Y36260D02*
D03*
X21000Y62740D02*
D03*
Y55260D02*
D03*
X42000Y75709D02*
D03*
Y68228D02*
D03*
X49000Y75709D02*
D03*
Y68228D02*
D03*
X78000Y43740D02*
D03*
Y36260D02*
D03*
X84000Y75709D02*
D03*
Y68228D02*
D03*
X91000Y68228D02*
D03*
Y75709D02*
D03*
X36000Y43740D02*
D03*
Y36260D02*
D03*
X35000Y75709D02*
D03*
Y68228D02*
D03*
X50000Y43740D02*
D03*
Y36260D02*
D03*
X70000Y75709D02*
D03*
Y68228D02*
D03*
X71000Y43740D02*
D03*
Y36260D02*
D03*
X28000Y68228D02*
D03*
Y75709D02*
D03*
X43000Y36260D02*
D03*
Y43740D02*
D03*
X57000Y36260D02*
D03*
Y43740D02*
D03*
X50000Y52260D02*
D03*
Y59740D02*
D03*
X28000Y55260D02*
D03*
Y62740D02*
D03*
X77000Y68228D02*
D03*
Y75709D02*
D03*
X49000Y88709D02*
D03*
Y81228D02*
D03*
X85000Y43740D02*
D03*
Y36260D02*
D03*
D14*
X210740Y14000D02*
D03*
X203260D02*
D03*
X155260Y96000D02*
D03*
X162740D02*
D03*
X163740Y64000D02*
D03*
X156260D02*
D03*
X151260Y71000D02*
D03*
X158740D02*
D03*
X216260Y14000D02*
D03*
X223740D02*
D03*
X218260Y40000D02*
D03*
X225740D02*
D03*
X151740Y64000D02*
D03*
X144260D02*
D03*
D15*
X43740Y60118D02*
D03*
Y49882D02*
D03*
X79740Y61118D02*
D03*
X72260D02*
D03*
Y50882D02*
D03*
X79740D02*
D03*
X40000Y49882D02*
D03*
X36260D02*
D03*
Y60118D02*
D03*
X40000D02*
D03*
X151260Y88118D02*
D03*
X155000D02*
D03*
X158740D02*
D03*
Y77882D02*
D03*
X155000D02*
D03*
X151260D02*
D03*
X76000Y50882D02*
D03*
Y61118D02*
D03*
D16*
X165000Y79063D02*
D03*
Y86937D02*
D03*
D17*
X132095Y94000D02*
D03*
X143905D02*
D03*
D18*
X128000Y83842D02*
D03*
Y64157D02*
D03*
D19*
X146291Y56000D02*
D03*
X157709D02*
D03*
D20*
X35457Y27000D02*
D03*
X42543D02*
D03*
X162543Y103000D02*
D03*
X155457D02*
D03*
X204457Y40000D02*
D03*
X211543D02*
D03*
D21*
X142555Y113000D02*
D03*
X149445D02*
D03*
D22*
X225882Y32740D02*
D03*
Y25260D02*
D03*
X236118Y29000D02*
D03*
D23*
X145000Y79457D02*
D03*
Y86543D02*
D03*
D24*
X244000Y57315D02*
D03*
D25*
Y96685D02*
D03*
D26*
X47000Y105000D02*
D03*
D27*
Y115000D02*
D03*
X57000Y105000D02*
D03*
Y115000D02*
D03*
X67000Y105000D02*
D03*
Y115000D02*
D03*
X77000Y105000D02*
D03*
Y115000D02*
D03*
X87000Y105000D02*
D03*
Y115000D02*
D03*
D28*
X271654Y15748D02*
D03*
X15748D02*
D03*
M02*
