M48
;Layer_Color=9474304
;FILE_FORMAT=2:5
INCH,LZ
;TYPE=PLATED
T1F00S00C0.01181
T2F00S00C0.04331
%
T01
X005Y002
X006
X0068
X0076
X0082
X0095
X0102
X0121Y0011
X0189Y001
X0203Y0006
X0198Y0019
X0227Y0014
X0257Y0006
X0252Y0038
X0281Y0031
Y01
X0255Y0102
X0257Y0123
X021
X0197Y0118
X021Y0103
X0212Y0098
X0216Y0061
X0212Y0033
X0169Y0049
X0162Y0056
X0155Y0073
X0166Y0103
X0176Y0118
X0142Y0106
X0129
X0127Y0094
X0121Y0044
X0091Y0031
X0065Y004
X006
X0057Y0046
X0053Y0049
X0047Y0047
X0043Y004
X0039Y0031
X0032Y0027
X004Y0064
X005Y0063
X0049Y0071969
X0056Y0071969
X0042Y0079
X0076
X0083Y0058
X0067Y0052
X0069Y0048
X0028Y0059
Y0079
T02
X0047Y0105
X0057
Y0115
X0067
Y0105
X0077
Y0115
X0087
Y0105
X0047Y0115118
M30
