G04*
G04 #@! TF.GenerationSoftware,Altium Limited,Altium Designer,22.3.1 (43)*
G04*
G04 Layer_Physical_Order=1*
G04 Layer_Color=255*
%FSLAX25Y25*%
%MOIN*%
G70*
G04*
G04 #@! TF.SameCoordinates,4C0AD069-EB26-4D81-AE36-419DC19207D4*
G04*
G04*
G04 #@! TF.FilePolarity,Positive*
G04*
G01*
G75*
%ADD10C,0.01181*%
G04:AMPARAMS|DCode=27|XSize=118.11mil|YSize=204.72mil|CornerRadius=11.81mil|HoleSize=0mil|Usage=FLASHONLY|Rotation=90.000|XOffset=0mil|YOffset=0mil|HoleType=Round|Shape=RoundedRectangle|*
%AMROUNDEDRECTD27*
21,1,0.11811,0.18110,0,0,90.0*
21,1,0.09449,0.20472,0,0,90.0*
1,1,0.02362,0.09055,0.04724*
1,1,0.02362,0.09055,-0.04724*
1,1,0.02362,-0.09055,-0.04724*
1,1,0.02362,-0.09055,0.04724*
%
%ADD27ROUNDEDRECTD27*%
G04:AMPARAMS|DCode=28|XSize=72.84mil|YSize=51.18mil|CornerRadius=7.68mil|HoleSize=0mil|Usage=FLASHONLY|Rotation=270.000|XOffset=0mil|YOffset=0mil|HoleType=Round|Shape=RoundedRectangle|*
%AMROUNDEDRECTD28*
21,1,0.07284,0.03583,0,0,270.0*
21,1,0.05748,0.05118,0,0,270.0*
1,1,0.01535,-0.01791,-0.02874*
1,1,0.01535,-0.01791,0.02874*
1,1,0.01535,0.01791,0.02874*
1,1,0.01535,0.01791,-0.02874*
%
%ADD28ROUNDEDRECTD28*%
G04:AMPARAMS|DCode=29|XSize=74.8mil|YSize=98.43mil|CornerRadius=11.22mil|HoleSize=0mil|Usage=FLASHONLY|Rotation=180.000|XOffset=0mil|YOffset=0mil|HoleType=Round|Shape=RoundedRectangle|*
%AMROUNDEDRECTD29*
21,1,0.07480,0.07598,0,0,180.0*
21,1,0.05236,0.09843,0,0,180.0*
1,1,0.02244,-0.02618,0.03799*
1,1,0.02244,0.02618,0.03799*
1,1,0.02244,0.02618,-0.03799*
1,1,0.02244,-0.02618,-0.03799*
%
%ADD29ROUNDEDRECTD29*%
G04:AMPARAMS|DCode=30|XSize=49.21mil|YSize=27.56mil|CornerRadius=2.76mil|HoleSize=0mil|Usage=FLASHONLY|Rotation=0.000|XOffset=0mil|YOffset=0mil|HoleType=Round|Shape=RoundedRectangle|*
%AMROUNDEDRECTD30*
21,1,0.04921,0.02205,0,0,0.0*
21,1,0.04370,0.02756,0,0,0.0*
1,1,0.00551,0.02185,-0.01102*
1,1,0.00551,-0.02185,-0.01102*
1,1,0.00551,-0.02185,0.01102*
1,1,0.00551,0.02185,0.01102*
%
%ADD30ROUNDEDRECTD30*%
G04:AMPARAMS|DCode=31|XSize=23.62mil|YSize=43.31mil|CornerRadius=5.91mil|HoleSize=0mil|Usage=FLASHONLY|Rotation=0.000|XOffset=0mil|YOffset=0mil|HoleType=Round|Shape=RoundedRectangle|*
%AMROUNDEDRECTD31*
21,1,0.02362,0.03150,0,0,0.0*
21,1,0.01181,0.04331,0,0,0.0*
1,1,0.01181,0.00591,-0.01575*
1,1,0.01181,-0.00591,-0.01575*
1,1,0.01181,-0.00591,0.01575*
1,1,0.01181,0.00591,0.01575*
%
%ADD31ROUNDEDRECTD31*%
G04:AMPARAMS|DCode=32|XSize=49.21mil|YSize=31.5mil|CornerRadius=3.15mil|HoleSize=0mil|Usage=FLASHONLY|Rotation=90.000|XOffset=0mil|YOffset=0mil|HoleType=Round|Shape=RoundedRectangle|*
%AMROUNDEDRECTD32*
21,1,0.04921,0.02520,0,0,90.0*
21,1,0.04291,0.03150,0,0,90.0*
1,1,0.00630,0.01260,0.02146*
1,1,0.00630,0.01260,-0.02146*
1,1,0.00630,-0.01260,-0.02146*
1,1,0.00630,-0.01260,0.02146*
%
%ADD32ROUNDEDRECTD32*%
G04:AMPARAMS|DCode=33|XSize=49.21mil|YSize=31.5mil|CornerRadius=3.15mil|HoleSize=0mil|Usage=FLASHONLY|Rotation=180.000|XOffset=0mil|YOffset=0mil|HoleType=Round|Shape=RoundedRectangle|*
%AMROUNDEDRECTD33*
21,1,0.04921,0.02520,0,0,180.0*
21,1,0.04291,0.03150,0,0,180.0*
1,1,0.00630,-0.02146,0.01260*
1,1,0.00630,0.02146,0.01260*
1,1,0.00630,0.02146,-0.01260*
1,1,0.00630,-0.02146,-0.01260*
%
%ADD33ROUNDEDRECTD33*%
G04:AMPARAMS|DCode=34|XSize=49.21mil|YSize=27.56mil|CornerRadius=2.76mil|HoleSize=0mil|Usage=FLASHONLY|Rotation=270.000|XOffset=0mil|YOffset=0mil|HoleType=Round|Shape=RoundedRectangle|*
%AMROUNDEDRECTD34*
21,1,0.04921,0.02205,0,0,270.0*
21,1,0.04370,0.02756,0,0,270.0*
1,1,0.00551,-0.01102,-0.02185*
1,1,0.00551,-0.01102,0.02185*
1,1,0.00551,0.01102,0.02185*
1,1,0.00551,0.01102,-0.02185*
%
%ADD34ROUNDEDRECTD34*%
G04:AMPARAMS|DCode=35|XSize=23.62mil|YSize=43.31mil|CornerRadius=2.36mil|HoleSize=0mil|Usage=FLASHONLY|Rotation=180.000|XOffset=0mil|YOffset=0mil|HoleType=Round|Shape=RoundedRectangle|*
%AMROUNDEDRECTD35*
21,1,0.02362,0.03858,0,0,180.0*
21,1,0.01890,0.04331,0,0,180.0*
1,1,0.00472,-0.00945,0.01929*
1,1,0.00472,0.00945,0.01929*
1,1,0.00472,0.00945,-0.01929*
1,1,0.00472,-0.00945,-0.01929*
%
%ADD35ROUNDEDRECTD35*%
G04:AMPARAMS|DCode=36|XSize=57.09mil|YSize=49.21mil|CornerRadius=9.84mil|HoleSize=0mil|Usage=FLASHONLY|Rotation=90.000|XOffset=0mil|YOffset=0mil|HoleType=Round|Shape=RoundedRectangle|*
%AMROUNDEDRECTD36*
21,1,0.05709,0.02953,0,0,90.0*
21,1,0.03740,0.04921,0,0,90.0*
1,1,0.01968,0.01476,0.01870*
1,1,0.01968,0.01476,-0.01870*
1,1,0.01968,-0.01476,-0.01870*
1,1,0.01968,-0.01476,0.01870*
%
%ADD36ROUNDEDRECTD36*%
G04:AMPARAMS|DCode=37|XSize=23.62mil|YSize=43.31mil|CornerRadius=2.36mil|HoleSize=0mil|Usage=FLASHONLY|Rotation=270.000|XOffset=0mil|YOffset=0mil|HoleType=Round|Shape=RoundedRectangle|*
%AMROUNDEDRECTD37*
21,1,0.02362,0.03858,0,0,270.0*
21,1,0.01890,0.04331,0,0,270.0*
1,1,0.00472,-0.01929,-0.00945*
1,1,0.00472,-0.01929,0.00945*
1,1,0.00472,0.01929,0.00945*
1,1,0.00472,0.01929,-0.00945*
%
%ADD37ROUNDEDRECTD37*%
%ADD38R,0.01181X0.05118*%
%ADD39R,0.07874X0.07087*%
%ADD40C,0.01968*%
%ADD41C,0.01575*%
%ADD42C,0.01200*%
%ADD43P,0.06392X8X22.5*%
G04:AMPARAMS|DCode=44|XSize=59.06mil|YSize=59.06mil|CornerRadius=14.76mil|HoleSize=0mil|Usage=FLASHONLY|Rotation=0.000|XOffset=0mil|YOffset=0mil|HoleType=Round|Shape=RoundedRectangle|*
%AMROUNDEDRECTD44*
21,1,0.05906,0.02953,0,0,0.0*
21,1,0.02953,0.05906,0,0,0.0*
1,1,0.02953,0.01476,-0.01476*
1,1,0.02953,-0.01476,-0.01476*
1,1,0.02953,-0.01476,0.01476*
1,1,0.02953,0.01476,0.01476*
%
%ADD44ROUNDEDRECTD44*%
%ADD45C,0.02756*%
D10*
X21921Y27457D02*
Y31000D01*
Y27457D02*
X24189Y25189D01*
X29740D01*
X41378Y53000D02*
X49378D01*
X39638Y54740D02*
X41378Y53000D01*
X39638Y54740D02*
Y57882D01*
X49378Y53000D02*
X51378Y51000D01*
Y45260D02*
Y51000D01*
Y45260D02*
X55378Y41260D01*
X22378Y41260D02*
X33677Y29961D01*
Y25189D02*
Y29961D01*
X39378Y41260D02*
X39378Y41260D01*
X55118Y33000D02*
X63378Y41260D01*
X47378Y33000D02*
X55118D01*
X45378Y36000D02*
X50118D01*
X39583Y30205D02*
X45378Y36000D01*
X50118D02*
X55378Y41260D01*
X43520Y29142D02*
X47378Y33000D01*
X43520Y25189D02*
Y29142D01*
X39583Y25189D02*
Y30205D01*
X37614Y32496D02*
X46378Y41260D01*
X37614Y25189D02*
Y32496D01*
X31378Y41260D02*
X35646Y36992D01*
Y25189D02*
Y36992D01*
X62378Y30000D02*
X64378D01*
X61236Y28858D02*
X62378Y30000D01*
X72638Y31260D02*
Y34000D01*
X71378Y30000D02*
X72638Y31260D01*
X64378Y30000D02*
X71378D01*
X63205Y28827D02*
X64378Y30000D01*
X63205Y25189D02*
Y28827D01*
X61236Y25189D02*
Y28858D01*
X66378Y20000D02*
X67142Y20764D01*
Y25189D01*
X65173Y21205D02*
X66378Y20000D01*
X65173Y21205D02*
Y25189D01*
X31709Y22169D02*
X33878Y20000D01*
X31709Y22169D02*
Y25189D01*
X74883Y124330D02*
X74096Y123542D01*
Y121968D01*
X74883Y121181D01*
X78032D01*
X78819Y121968D01*
Y123542D01*
X78032Y124330D01*
X76458D01*
Y122755D01*
X78819Y125904D02*
X74096D01*
X78819Y129053D01*
X74096D01*
Y130627D02*
X78819D01*
Y132988D01*
X78032Y133775D01*
X74883D01*
X74096Y132988D01*
Y130627D01*
X64096Y121181D02*
X67245D01*
X68819Y122755D01*
X67245Y124330D01*
X64096D01*
X64883Y129053D02*
X64096Y128265D01*
Y126691D01*
X64883Y125904D01*
X68032D01*
X68819Y126691D01*
Y128265D01*
X68032Y129053D01*
X64883Y133775D02*
X64096Y132988D01*
Y131414D01*
X64883Y130627D01*
X68032D01*
X68819Y131414D01*
Y132988D01*
X68032Y133775D01*
X58819Y121181D02*
X54096D01*
Y123542D01*
X54883Y124330D01*
X56458D01*
X57245Y123542D01*
Y121181D01*
X54096Y125904D02*
X58819D01*
Y128265D01*
X58032Y129053D01*
X54883D01*
X54096Y128265D01*
Y125904D01*
X44883Y124330D02*
X44096Y123542D01*
Y121968D01*
X44883Y121181D01*
X48032D01*
X48819Y121968D01*
Y123542D01*
X48032Y124330D01*
X44883Y129053D02*
X44096Y128265D01*
Y126691D01*
X44883Y125904D01*
X45670D01*
X46457Y126691D01*
Y128265D01*
X47245Y129053D01*
X48032D01*
X48819Y128265D01*
Y126691D01*
X48032Y125904D01*
X38819Y121181D02*
X34096D01*
X35670Y122755D01*
X34096Y124330D01*
X38819D01*
X34096Y125904D02*
Y127478D01*
Y126691D01*
X38819D01*
Y125904D01*
Y127478D01*
X34883Y132988D02*
X34096Y132201D01*
Y130627D01*
X34883Y129840D01*
X35670D01*
X36457Y130627D01*
Y132201D01*
X37245Y132988D01*
X38032D01*
X38819Y132201D01*
Y130627D01*
X38032Y129840D01*
X34096Y136924D02*
Y135350D01*
X34883Y134563D01*
X38032D01*
X38819Y135350D01*
Y136924D01*
X38032Y137711D01*
X34883D01*
X34096Y136924D01*
X28819Y121181D02*
X24096D01*
X25670Y122755D01*
X24096Y124330D01*
X28819D01*
X24096Y128265D02*
Y126691D01*
X24883Y125904D01*
X28032D01*
X28819Y126691D01*
Y128265D01*
X28032Y129053D01*
X24883D01*
X24096Y128265D01*
X24883Y133775D02*
X24096Y132988D01*
Y131414D01*
X24883Y130627D01*
X25670D01*
X26458Y131414D01*
Y132988D01*
X27245Y133775D01*
X28032D01*
X28819Y132988D01*
Y131414D01*
X28032Y130627D01*
X24096Y135350D02*
Y136924D01*
Y136137D01*
X28819D01*
Y135350D01*
Y136924D01*
X14883Y124330D02*
X14096Y123542D01*
Y121968D01*
X14883Y121181D01*
X15670D01*
X16457Y121968D01*
Y123542D01*
X17245Y124330D01*
X18032D01*
X18819Y123542D01*
Y121968D01*
X18032Y121181D01*
X14883Y129053D02*
X14096Y128265D01*
Y126691D01*
X14883Y125904D01*
X18032D01*
X18819Y126691D01*
Y128265D01*
X18032Y129053D01*
X14096Y130627D02*
X18819D01*
X17245D01*
X14096Y133775D01*
X16457Y131414D01*
X18819Y133775D01*
D27*
X108378Y66843D02*
D03*
Y47157D02*
D03*
D28*
X134669Y93000D02*
D03*
X146087D02*
D03*
X136087Y37000D02*
D03*
X124669D02*
D03*
D29*
X119252Y78969D02*
D03*
X103504D02*
D03*
D30*
X16378Y80260D02*
D03*
X9378Y80260D02*
D03*
X15378Y48740D02*
D03*
X63378Y80260D02*
D03*
X70378Y80740D02*
D03*
X46378Y48740D02*
D03*
Y41260D02*
D03*
X22378Y48740D02*
D03*
Y41260D02*
D03*
X16378Y87740D02*
D03*
X24378D02*
D03*
Y80260D02*
D03*
X70378Y66740D02*
D03*
Y59260D02*
D03*
X31378Y60740D02*
D03*
Y53260D02*
D03*
X40378Y80260D02*
D03*
Y87740D02*
D03*
X108378Y89260D02*
D03*
Y96740D02*
D03*
X9378Y87740D02*
D03*
X15378Y41260D02*
D03*
X77378Y76260D02*
D03*
Y83740D02*
D03*
X55378Y80260D02*
D03*
Y87740D02*
D03*
Y41260D02*
D03*
Y48740D02*
D03*
X63378Y87740D02*
D03*
Y41260D02*
D03*
Y48740D02*
D03*
X70378Y73260D02*
D03*
X31378Y41260D02*
D03*
Y48740D02*
D03*
X47378Y80260D02*
D03*
Y87740D02*
D03*
X78378Y59740D02*
D03*
Y52260D02*
D03*
X85378Y59740D02*
D03*
Y52260D02*
D03*
X31378Y80260D02*
D03*
X39378Y48740D02*
D03*
Y41260D02*
D03*
X31378Y87740D02*
D03*
Y66260D02*
D03*
Y73740D02*
D03*
D31*
X15638Y68118D02*
D03*
Y57882D02*
D03*
X23118Y68118D02*
D03*
X55638Y57882D02*
D03*
X131638Y60882D02*
D03*
Y71118D02*
D03*
X135378D02*
D03*
X139118D02*
D03*
Y60882D02*
D03*
X63118Y68118D02*
D03*
Y57882D02*
D03*
X23118D02*
D03*
X19378D02*
D03*
Y68118D02*
D03*
X135378Y60882D02*
D03*
X59378Y57882D02*
D03*
X55638Y68118D02*
D03*
X59378D02*
D03*
D32*
X21921Y31000D02*
D03*
X14835D02*
D03*
D33*
X125378Y69543D02*
D03*
Y62457D02*
D03*
D34*
X72638Y34000D02*
D03*
X80118D02*
D03*
X143118Y79000D02*
D03*
X135638D02*
D03*
X124638Y47000D02*
D03*
X132118D02*
D03*
X136638D02*
D03*
X144118D02*
D03*
X139118Y54000D02*
D03*
X131638D02*
D03*
D35*
X43378Y57882D02*
D03*
X39638Y68118D02*
D03*
X47118D02*
D03*
Y57882D02*
D03*
X39638D02*
D03*
D36*
X129823Y104000D02*
D03*
X122933D02*
D03*
D37*
X125496Y96740D02*
D03*
Y89260D02*
D03*
X115260D02*
D03*
Y96740D02*
D03*
X125496Y93000D02*
D03*
D38*
X63205Y25189D02*
D03*
X61236D02*
D03*
X59268D02*
D03*
X57299D02*
D03*
X55331D02*
D03*
X53362D02*
D03*
X51394D02*
D03*
X49425D02*
D03*
X47457D02*
D03*
X41551D02*
D03*
X39583D02*
D03*
X37614D02*
D03*
X35646D02*
D03*
X33677D02*
D03*
X31709D02*
D03*
X29740D02*
D03*
X43520D02*
D03*
X45488D02*
D03*
X65173D02*
D03*
X67142D02*
D03*
D39*
X22654Y14362D02*
D03*
X74228D02*
D03*
D40*
X70378Y66740D02*
Y70000D01*
Y73260D01*
X47118Y57882D02*
X47236Y58000D01*
X50378D01*
X19378Y68118D02*
Y72000D01*
X31378Y70000D02*
Y73740D01*
X11378Y31000D02*
X14835D01*
X21921D02*
X26378D01*
X40378Y80260D02*
Y84000D01*
X24378D02*
Y87740D01*
X16378Y84000D02*
Y87740D01*
X22378Y45000D02*
Y48740D01*
X46378Y45000D02*
Y48740D01*
X31378Y57000D02*
Y60740D01*
X59378Y68118D02*
Y72000D01*
X146087Y93000D02*
X150378D01*
X94378Y85000D02*
X98638Y89260D01*
X89378Y91000D02*
X102378Y104000D01*
X81378Y91000D02*
X89378D01*
X94378Y60000D02*
Y85000D01*
X90378Y56000D02*
X94378Y60000D01*
X90378Y56000D02*
X94378Y52000D01*
Y40000D02*
Y52000D01*
Y40000D02*
X97378Y37000D01*
X124669D01*
X124638Y37031D02*
X124669Y37000D01*
X124638Y37031D02*
Y47000D01*
X103472Y79000D02*
X103504Y78969D01*
X97378Y79000D02*
X103472D01*
X125378Y69543D02*
Y72843D01*
X119252Y78969D02*
X125378Y72843D01*
X70378Y91000D02*
X81378D01*
X85378Y87000D01*
Y59740D02*
Y87000D01*
X102378Y104000D02*
X122933D01*
X64378Y97000D02*
X70378Y91000D01*
X64378Y97000D02*
Y99000D01*
Y110000D01*
X54378Y96740D02*
X63378Y87740D01*
X54378Y96740D02*
Y99000D01*
Y110000D01*
X44378Y98740D02*
X55378Y87740D01*
X44378Y98740D02*
Y99000D01*
Y110000D01*
X40378Y87740D02*
X47378D01*
X34378Y93740D02*
X40378Y87740D01*
X34378Y93740D02*
Y99000D01*
Y110000D01*
X24378Y99000D02*
Y110000D01*
Y94740D02*
X31378Y87740D01*
X24378Y94740D02*
Y99000D01*
X9378Y87740D02*
X14378Y92740D01*
Y99000D01*
Y110000D01*
X130929Y96740D02*
X134669Y93000D01*
X125496Y96740D02*
X130929D01*
X130929Y89260D02*
X134669Y93000D01*
X125496Y89260D02*
X130929D01*
X129823Y104000D02*
X134669Y99154D01*
Y93000D02*
Y99154D01*
Y93000D02*
X135638Y92032D01*
Y79000D02*
Y92032D01*
X126953Y60882D02*
X131638D01*
X125378Y62457D02*
X126953Y60882D01*
X108378Y66843D02*
X111079Y69543D01*
X125378D01*
X126953Y71118D02*
X131638D01*
X125378Y69543D02*
X126953Y71118D01*
X135378Y78740D02*
X135638Y79000D01*
X135378Y71118D02*
Y78740D01*
X78378Y52260D02*
X85378D01*
X78378Y39740D02*
Y52260D01*
X72638Y34000D02*
X78378Y39740D01*
X139118Y71118D02*
Y75000D01*
X143118Y79000D01*
X132118Y47000D02*
X136638D01*
X139118Y54000D02*
Y60882D01*
Y52000D02*
Y54000D01*
Y52000D02*
X144118Y47000D01*
X78378Y56000D02*
X90378D01*
X98638Y89260D02*
X108378D01*
X115260D01*
X66378Y36000D02*
X72378Y42000D01*
X75378Y56000D02*
X78378D01*
X72378Y53000D02*
X75378Y56000D01*
X72378Y42000D02*
Y53000D01*
X133378Y54000D02*
X135378Y56000D01*
X131638Y54000D02*
X133378D01*
X135378Y56000D02*
Y60882D01*
X136087Y37000D02*
X140378D01*
X108535Y47000D02*
X124638D01*
X108378Y47157D02*
X108535Y47000D01*
D41*
X69898Y80260D02*
X70378Y80740D01*
X63378Y80260D02*
X69898D01*
X37780Y66260D02*
X39638Y68118D01*
X31378Y66260D02*
X37780D01*
X77378Y59740D02*
Y76260D01*
X108378Y93000D02*
Y96740D01*
X24378Y80260D02*
X24378Y80260D01*
X31378D01*
X23118Y79000D02*
X24378Y80260D01*
X23118Y68118D02*
Y79000D01*
X16378Y80260D02*
X16378Y80260D01*
X9378Y80260D02*
X16378D01*
X15638Y79520D02*
X16378Y80260D01*
X15638Y68118D02*
Y79520D01*
X47118Y80000D02*
X47378Y80260D01*
X47118Y68118D02*
Y80000D01*
X63118Y80000D02*
X63378Y80260D01*
X63118Y68118D02*
Y80000D01*
X55378Y80260D02*
X55638Y80000D01*
Y68118D02*
Y80000D01*
X58858Y83740D02*
X77378D01*
X55378Y80260D02*
X58858Y83740D01*
X78378Y56000D02*
Y59740D01*
X77378D02*
X78378D01*
X70858D02*
X77378D01*
X70378Y59260D02*
X70858Y59740D01*
X27638Y66260D02*
X31378D01*
X25378Y64000D02*
X27638Y66260D01*
X22378Y64000D02*
X25378D01*
X19378Y61000D02*
X22378Y64000D01*
X19378Y57882D02*
Y61000D01*
X36378D02*
X37378Y62000D01*
X36378Y58000D02*
Y61000D01*
X31638Y53260D02*
X36378Y58000D01*
X31378Y53260D02*
X31638D01*
X70378Y59260D02*
Y60000D01*
X66203Y64175D02*
X70378Y60000D01*
X33463Y64175D02*
X66203D01*
X67118Y59260D02*
X70378D01*
X64378Y62000D02*
X67118Y59260D01*
X61378Y62000D02*
X64378D01*
X59378Y60000D02*
X61378Y62000D01*
X59378Y57882D02*
Y60000D01*
X31378Y66260D02*
X33463Y64175D01*
X41378Y62000D02*
X43378Y60000D01*
X37378Y62000D02*
X41378D01*
X43378Y57882D02*
Y60000D01*
X39378Y41260D02*
X46378D01*
X15378Y41260D02*
X15378Y41260D01*
X22378D01*
X35638Y45000D02*
X39378Y48740D01*
X29378Y45000D02*
X35638D01*
X26378Y48000D02*
X29378Y45000D01*
X31378Y48740D02*
Y53260D01*
X23118Y55260D02*
X26378Y52000D01*
Y48000D02*
Y52000D01*
X63118Y49000D02*
X63378Y48740D01*
X63118Y49000D02*
Y55882D01*
X55378Y48740D02*
X55638Y49000D01*
Y55882D01*
X23118Y55260D02*
Y57882D01*
X15378Y57622D02*
X15638Y57882D01*
X15378Y48740D02*
Y57622D01*
X121378Y93000D02*
X125496D01*
X80118Y34000D02*
X83378D01*
D42*
X145669Y124923D02*
Y129921D01*
X143170D01*
X142337Y129088D01*
Y125756D01*
X143170Y124923D01*
X145669D01*
X137339D02*
X140671D01*
Y127422D01*
X139005Y126589D01*
X138172D01*
X137339Y127422D01*
Y129088D01*
X138172Y129921D01*
X139838D01*
X140671Y129088D01*
X135672Y125756D02*
X134839Y124923D01*
X133173D01*
X132340Y125756D01*
Y129088D01*
X133173Y129921D01*
X134839D01*
X135672Y129088D01*
Y125756D01*
X130674Y129921D02*
X129008D01*
X129841D01*
Y124923D01*
X130674Y125756D01*
X126509Y129088D02*
X125676Y129921D01*
X124010D01*
X123177Y129088D01*
Y125756D01*
X124010Y124923D01*
X125676D01*
X126509Y125756D01*
Y126589D01*
X125676Y127422D01*
X123177D01*
X121510D02*
X118178D01*
X116512Y125756D02*
X115679Y124923D01*
X114013D01*
X113180Y125756D01*
Y129088D01*
X114013Y129921D01*
X115679D01*
X116512Y129088D01*
Y125756D01*
X111514D02*
X110681Y124923D01*
X109014D01*
X108181Y125756D01*
Y126589D01*
X109014Y127422D01*
X108181Y128255D01*
Y129088D01*
X109014Y129921D01*
X110681D01*
X111514Y129088D01*
Y128255D01*
X110681Y127422D01*
X111514Y126589D01*
Y125756D01*
X110681Y127422D02*
X109014D01*
X106515D02*
X103183D01*
X101517Y125756D02*
X100684Y124923D01*
X99018D01*
X98185Y125756D01*
Y129088D01*
X99018Y129921D01*
X100684D01*
X101517Y129088D01*
Y125756D01*
X96519Y129921D02*
X94852D01*
X95685D01*
Y124923D01*
X96519Y125756D01*
D43*
X64378Y99000D02*
D03*
X24378D02*
D03*
X34378D02*
D03*
X44378D02*
D03*
X54378D02*
D03*
X74378D02*
D03*
X84378D02*
D03*
X74378Y110000D02*
D03*
X54378D02*
D03*
X44378D02*
D03*
X34378D02*
D03*
X24378D02*
D03*
X64378D02*
D03*
D44*
X14378Y99000D02*
D03*
Y110000D02*
D03*
D45*
X31378Y70000D02*
D03*
X26378Y31000D02*
D03*
X70378Y70000D02*
D03*
X19378Y72000D02*
D03*
X108378Y93000D02*
D03*
X150378D02*
D03*
X97378Y79000D02*
D03*
X121378Y93000D02*
D03*
X66378Y36000D02*
D03*
X83378Y34000D02*
D03*
X31378Y57000D02*
D03*
X59378Y72000D02*
D03*
X40378Y84000D02*
D03*
X11378Y31000D02*
D03*
X22378Y45000D02*
D03*
X16378Y84000D02*
D03*
X24378D02*
D03*
X140378Y37000D02*
D03*
X50378Y58000D02*
D03*
X135378Y56000D02*
D03*
X46378Y45000D02*
D03*
X33878Y20000D02*
D03*
X66378D02*
D03*
M02*
