M48
;Layer_Color=9474304
;FILE_FORMAT=2:5
INCH,LZ
;TYPE=PLATED
T1F00S00C0.01181
T2F00S00C0.03543
%
T01
X0033878Y002
X0066378
Y0036
X0083378Y0034
X0046378Y0045
X0050378Y0058
X0031378Y0057
Y007
X0019378Y0072
X0016378Y0084
X0024378
X0040378
X0059378Y0072
X0070378Y007
X0097378Y0079
X0108378Y0093
X0121378
X0150378
X0135378Y0056
X0140378Y0037
X0026378Y0031
X0011378
X0022378Y0045
T02
X0014378Y0099
X0024378
X0034378
X0044378
X0054378
X0064378
X0074378
X0084378
X0074378Y011
X0064378
X0054378
X0044378
X0034378
X0024378
X0014378
M30
