M48
;Layer_Color=9474304
;FILE_FORMAT=2:5
INCH,LZ
;TYPE=PLATED
T1F00S00C0.01181
T2F00S00C0.03150
T3F00S00C0.04331
%
T01
X00575Y002
X009
X0112Y0009
X0189Y001
X0203Y0006
X0198Y0019
X0226Y0022
X0227Y0014
X0244Y002
X0257Y0006
X0281Y0031
Y01
X0251Y0103
X0257Y0123
X0215
X0219Y0107
X0197Y0118
X0212Y0028969
X0169Y0049
X0162Y0056
X0155Y0073
X0166Y0103
X0176Y0118
X0127Y0094
X0076Y0079
X0056Y0071969
X0049Y0071969
X005Y0063
X004Y0064
X0042Y0079
X0047Y0048
X0053Y0049
X0064Y0047
X0058Y004
X0043
X0041Y0030854
X0034Y0028
X0086Y0031
X0083Y0058
X0108Y0044
X0028Y0059
Y0079
T02
X0244Y0057315
Y0096685
T03
X0047Y0105
Y0115
X0057
Y0105
X0067
Y0115
X0077
Y0105
X0087
Y0115
M30
