G04*
G04 #@! TF.GenerationSoftware,Altium Limited,Altium Designer,22.3.1 (43)*
G04*
G04 Layer_Physical_Order=2*
G04 Layer_Color=16711680*
%FSLAX25Y25*%
%MOIN*%
G70*
G04*
G04 #@! TF.SameCoordinates,86CE2B45-03AC-4702-9D3B-54DB2B16A980*
G04*
G04*
G04 #@! TF.FilePolarity,Positive*
G04*
G01*
G75*
%ADD10C,0.01181*%
%ADD42C,0.01968*%
%ADD45P,0.06392X8X22.5*%
G04:AMPARAMS|DCode=46|XSize=59.06mil|YSize=59.06mil|CornerRadius=14.76mil|HoleSize=0mil|Usage=FLASHONLY|Rotation=0.000|XOffset=0mil|YOffset=0mil|HoleType=Round|Shape=RoundedRectangle|*
%AMROUNDEDRECTD46*
21,1,0.05906,0.02953,0,0,0.0*
21,1,0.02953,0.05906,0,0,0.0*
1,1,0.02953,0.01476,-0.01476*
1,1,0.02953,-0.01476,-0.01476*
1,1,0.02953,-0.01476,0.01476*
1,1,0.02953,0.01476,0.01476*
%
%ADD46ROUNDEDRECTD46*%
%ADD47C,0.02756*%
G36*
X141698Y132213D02*
Y9519D01*
X136151Y3971D01*
X117505D01*
X117332Y4440D01*
X117480Y4567D01*
X119092Y6454D01*
X120388Y8569D01*
X121338Y10862D01*
X121917Y13274D01*
X122112Y15748D01*
X121917Y18222D01*
X121338Y20634D01*
X120388Y22927D01*
X119092Y25042D01*
X117480Y26929D01*
X115594Y28541D01*
X113478Y29837D01*
X111186Y30787D01*
X108773Y31366D01*
X106299Y31561D01*
X103826Y31366D01*
X101413Y30787D01*
X99120Y29837D01*
X97005Y28541D01*
X95118Y26929D01*
X93507Y25042D01*
X92210Y22927D01*
X91261Y20634D01*
X90681Y18222D01*
X90487Y15748D01*
X90681Y13274D01*
X91261Y10862D01*
X92210Y8569D01*
X93507Y6454D01*
X95118Y4567D01*
X95267Y4440D01*
X95094Y3971D01*
X9519D01*
X3971Y9519D01*
X3971Y132213D01*
X9519Y137761D01*
X136151D01*
X141698Y132213D01*
D02*
G37*
%LPC*%
G36*
X84143Y132556D02*
X75858D01*
Y116400D01*
X84143D01*
Y132556D01*
D02*
G37*
G36*
X69143D02*
X60857D01*
Y116400D01*
X69143D01*
Y132556D01*
D02*
G37*
G36*
X59143Y127834D02*
X50858D01*
Y116400D01*
X59143D01*
Y127834D01*
D02*
G37*
G36*
X49143D02*
X40857D01*
Y116400D01*
X49143D01*
Y127834D01*
D02*
G37*
G36*
X39143Y136492D02*
X30858D01*
Y116400D01*
X39143D01*
Y136492D01*
D02*
G37*
G36*
X29142Y135705D02*
X20857D01*
Y116400D01*
X29142D01*
Y135705D01*
D02*
G37*
G36*
X19142Y132556D02*
X10858D01*
Y116400D01*
X19142D01*
Y132556D01*
D02*
G37*
G36*
X66976Y113953D02*
X63024D01*
X61047Y111976D01*
Y108024D01*
X63024Y106047D01*
X66976D01*
X68953Y108024D01*
Y111976D01*
X66976Y113953D01*
D02*
G37*
G36*
X56976D02*
X53024D01*
X51047Y111976D01*
Y108024D01*
X53024Y106047D01*
X56976D01*
X58953Y108024D01*
Y111976D01*
X56976Y113953D01*
D02*
G37*
G36*
X46976D02*
X43024D01*
X41047Y111976D01*
Y108024D01*
X43024Y106047D01*
X46976D01*
X48953Y108024D01*
Y111976D01*
X46976Y113953D01*
D02*
G37*
G36*
X36976D02*
X33024D01*
X31047Y111976D01*
Y108024D01*
X33024Y106047D01*
X36976D01*
X38953Y108024D01*
Y111976D01*
X36976Y113953D01*
D02*
G37*
G36*
X26976D02*
X23024D01*
X21047Y111976D01*
Y108024D01*
X23024Y106047D01*
X26976D01*
X28953Y108024D01*
Y111976D01*
X26976Y113953D01*
D02*
G37*
G36*
X16476Y114001D02*
X13524D01*
X12557Y113809D01*
X11738Y113262D01*
X11191Y112443D01*
X10999Y111476D01*
Y108524D01*
X11191Y107557D01*
X11738Y106738D01*
X12557Y106191D01*
X13524Y105999D01*
X16476D01*
X17443Y106191D01*
X18262Y106738D01*
X18809Y107557D01*
X19001Y108524D01*
Y111476D01*
X18809Y112443D01*
X18262Y113262D01*
X17443Y113809D01*
X16476Y114001D01*
D02*
G37*
G36*
X66976Y101953D02*
X63024D01*
X61047Y99976D01*
Y96024D01*
X63024Y94047D01*
X66976D01*
X68953Y96024D01*
Y99976D01*
X66976Y101953D01*
D02*
G37*
G36*
X56976D02*
X53024D01*
X51047Y99976D01*
Y96024D01*
X53024Y94047D01*
X56976D01*
X58953Y96024D01*
Y99976D01*
X56976Y101953D01*
D02*
G37*
G36*
X46976D02*
X43024D01*
X41047Y99976D01*
Y96024D01*
X43024Y94047D01*
X46976D01*
X48953Y96024D01*
Y99976D01*
X46976Y101953D01*
D02*
G37*
G36*
X36976D02*
X33024D01*
X31047Y99976D01*
Y96024D01*
X33024Y94047D01*
X36976D01*
X38953Y96024D01*
Y99976D01*
X36976Y101953D01*
D02*
G37*
G36*
X26976D02*
X23024D01*
X21047Y99976D01*
Y96024D01*
X23024Y94047D01*
X26976D01*
X28953Y96024D01*
Y99976D01*
X26976Y101953D01*
D02*
G37*
G36*
X16476Y102001D02*
X13524D01*
X12557Y101809D01*
X11738Y101262D01*
X11191Y100443D01*
X10999Y99476D01*
Y96524D01*
X11191Y95557D01*
X11738Y94738D01*
X12557Y94191D01*
X13524Y93999D01*
X16476D01*
X17443Y94191D01*
X18262Y94738D01*
X18809Y95557D01*
X19001Y96524D01*
Y99476D01*
X18809Y100443D01*
X18262Y101262D01*
X17443Y101809D01*
X16476Y102001D01*
D02*
G37*
G36*
X66378Y38425D02*
X65450Y38240D01*
X64663Y37714D01*
X64138Y36928D01*
X64062Y36545D01*
X60540Y33023D01*
X27630D01*
X27306Y33240D01*
X26378Y33424D01*
X25450Y33240D01*
X24664Y32714D01*
X24138Y31928D01*
X23953Y31000D01*
X24138Y30072D01*
X24664Y29286D01*
X25450Y28760D01*
X26378Y28576D01*
X27306Y28760D01*
X27630Y28977D01*
X61378D01*
X62152Y29131D01*
X62809Y29569D01*
X66923Y33684D01*
X67306Y33760D01*
X68092Y34286D01*
X68618Y35072D01*
X68802Y36000D01*
X68618Y36928D01*
X68092Y37714D01*
X67306Y38240D01*
X66378Y38425D01*
D02*
G37*
%LPD*%
D10*
X16574Y121330D02*
X17361Y120543D01*
Y118968D01*
X16574Y118181D01*
X15787D01*
X15000Y118968D01*
Y120543D01*
X14213Y121330D01*
X13426D01*
X12639Y120543D01*
Y118968D01*
X13426Y118181D01*
X16574Y126053D02*
X17361Y125265D01*
Y123691D01*
X16574Y122904D01*
X13426D01*
X12639Y123691D01*
Y125265D01*
X13426Y126053D01*
X17361Y127627D02*
X12639D01*
X14213D01*
X17361Y130775D01*
X15000Y128414D01*
X12639Y130775D01*
X22639Y118181D02*
X27361D01*
X25787Y119755D01*
X27361Y121330D01*
X22639D01*
X27361Y125265D02*
Y123691D01*
X26574Y122904D01*
X23426D01*
X22639Y123691D01*
Y125265D01*
X23426Y126053D01*
X26574D01*
X27361Y125265D01*
X26574Y130775D02*
X27361Y129988D01*
Y128414D01*
X26574Y127627D01*
X25787D01*
X25000Y128414D01*
Y129988D01*
X24213Y130775D01*
X23426D01*
X22639Y129988D01*
Y128414D01*
X23426Y127627D01*
X27361Y132350D02*
Y133924D01*
Y133137D01*
X22639D01*
Y132350D01*
Y133924D01*
X32639Y118181D02*
X37361D01*
X35787Y119755D01*
X37361Y121330D01*
X32639D01*
X37361Y122904D02*
Y124478D01*
Y123691D01*
X32639D01*
Y122904D01*
Y124478D01*
X36574Y129988D02*
X37361Y129201D01*
Y127627D01*
X36574Y126840D01*
X35787D01*
X35000Y127627D01*
Y129201D01*
X34213Y129988D01*
X33426D01*
X32639Y129201D01*
Y127627D01*
X33426Y126840D01*
X37361Y133924D02*
Y132350D01*
X36574Y131563D01*
X33426D01*
X32639Y132350D01*
Y133924D01*
X33426Y134711D01*
X36574D01*
X37361Y133924D01*
X46574Y121330D02*
X47361Y120543D01*
Y118968D01*
X46574Y118181D01*
X43426D01*
X42639Y118968D01*
Y120543D01*
X43426Y121330D01*
X46574Y126053D02*
X47361Y125265D01*
Y123691D01*
X46574Y122904D01*
X45787D01*
X45000Y123691D01*
Y125265D01*
X44213Y126053D01*
X43426D01*
X42639Y125265D01*
Y123691D01*
X43426Y122904D01*
X52639Y118181D02*
X57361D01*
Y120543D01*
X56574Y121330D01*
X55000D01*
X54213Y120543D01*
Y118181D01*
X57361Y122904D02*
X52639D01*
Y125265D01*
X53426Y126053D01*
X56574D01*
X57361Y125265D01*
Y122904D01*
X67361Y118181D02*
X64213D01*
X62639Y119755D01*
X64213Y121330D01*
X67361D01*
X66574Y126053D02*
X67361Y125265D01*
Y123691D01*
X66574Y122904D01*
X63426D01*
X62639Y123691D01*
Y125265D01*
X63426Y126053D01*
X66574Y130775D02*
X67361Y129988D01*
Y128414D01*
X66574Y127627D01*
X63426D01*
X62639Y128414D01*
Y129988D01*
X63426Y130775D01*
X81574Y121330D02*
X82361Y120543D01*
Y118968D01*
X81574Y118181D01*
X78426D01*
X77639Y118968D01*
Y120543D01*
X78426Y121330D01*
X80000D01*
Y119755D01*
X77639Y122904D02*
X82361D01*
X77639Y126053D01*
X82361D01*
Y127627D02*
X77639D01*
Y129988D01*
X78426Y130775D01*
X81574D01*
X82361Y129988D01*
Y127627D01*
D42*
X26378Y31000D02*
X61378D01*
X66378Y36000D01*
D45*
X65000Y110000D02*
D03*
X25000D02*
D03*
X35000D02*
D03*
X45000D02*
D03*
X55000D02*
D03*
X75000D02*
D03*
X85000D02*
D03*
X75000Y98000D02*
D03*
X55000D02*
D03*
X45000D02*
D03*
X35000D02*
D03*
X25000D02*
D03*
X65000D02*
D03*
D46*
X15000Y110000D02*
D03*
Y98000D02*
D03*
D47*
X94000Y79000D02*
D03*
X31378Y70000D02*
D03*
X26378Y31000D02*
D03*
X70378Y70000D02*
D03*
X19378Y72000D02*
D03*
X101378Y93000D02*
D03*
X125000Y110000D02*
D03*
X114378Y93000D02*
D03*
X66378Y36000D02*
D03*
X83378Y34000D02*
D03*
X31378Y57000D02*
D03*
X59378Y72000D02*
D03*
X40378Y84000D02*
D03*
X11378Y31000D02*
D03*
X22378Y45000D02*
D03*
X16378Y84000D02*
D03*
X24378D02*
D03*
X136378Y37000D02*
D03*
X47000Y54000D02*
D03*
X131378Y56000D02*
D03*
X46378Y45000D02*
D03*
X33878Y20000D02*
D03*
X66378D02*
D03*
M02*
