G04*
G04 #@! TF.GenerationSoftware,Altium Limited,Altium Designer,22.3.1 (43)*
G04*
G04 Layer_Physical_Order=1*
G04 Layer_Color=255*
%FSLAX25Y25*%
%MOIN*%
G70*
G04*
G04 #@! TF.SameCoordinates,86CE2B45-03AC-4702-9D3B-54DB2B16A980*
G04*
G04*
G04 #@! TF.FilePolarity,Positive*
G04*
G01*
G75*
%ADD10C,0.01181*%
G04:AMPARAMS|DCode=28|XSize=118.11mil|YSize=204.72mil|CornerRadius=11.81mil|HoleSize=0mil|Usage=FLASHONLY|Rotation=90.000|XOffset=0mil|YOffset=0mil|HoleType=Round|Shape=RoundedRectangle|*
%AMROUNDEDRECTD28*
21,1,0.11811,0.18110,0,0,90.0*
21,1,0.09449,0.20472,0,0,90.0*
1,1,0.02362,0.09055,0.04724*
1,1,0.02362,0.09055,-0.04724*
1,1,0.02362,-0.09055,-0.04724*
1,1,0.02362,-0.09055,0.04724*
%
%ADD28ROUNDEDRECTD28*%
G04:AMPARAMS|DCode=29|XSize=72.84mil|YSize=51.18mil|CornerRadius=7.68mil|HoleSize=0mil|Usage=FLASHONLY|Rotation=0.000|XOffset=0mil|YOffset=0mil|HoleType=Round|Shape=RoundedRectangle|*
%AMROUNDEDRECTD29*
21,1,0.07284,0.03583,0,0,0.0*
21,1,0.05748,0.05118,0,0,0.0*
1,1,0.01535,0.02874,-0.01791*
1,1,0.01535,-0.02874,-0.01791*
1,1,0.01535,-0.02874,0.01791*
1,1,0.01535,0.02874,0.01791*
%
%ADD29ROUNDEDRECTD29*%
G04:AMPARAMS|DCode=30|XSize=74.8mil|YSize=98.43mil|CornerRadius=11.22mil|HoleSize=0mil|Usage=FLASHONLY|Rotation=180.000|XOffset=0mil|YOffset=0mil|HoleType=Round|Shape=RoundedRectangle|*
%AMROUNDEDRECTD30*
21,1,0.07480,0.07598,0,0,180.0*
21,1,0.05236,0.09843,0,0,180.0*
1,1,0.02244,-0.02618,0.03799*
1,1,0.02244,0.02618,0.03799*
1,1,0.02244,0.02618,-0.03799*
1,1,0.02244,-0.02618,-0.03799*
%
%ADD30ROUNDEDRECTD30*%
G04:AMPARAMS|DCode=31|XSize=49.21mil|YSize=27.56mil|CornerRadius=2.76mil|HoleSize=0mil|Usage=FLASHONLY|Rotation=0.000|XOffset=0mil|YOffset=0mil|HoleType=Round|Shape=RoundedRectangle|*
%AMROUNDEDRECTD31*
21,1,0.04921,0.02205,0,0,0.0*
21,1,0.04370,0.02756,0,0,0.0*
1,1,0.00551,0.02185,-0.01102*
1,1,0.00551,-0.02185,-0.01102*
1,1,0.00551,-0.02185,0.01102*
1,1,0.00551,0.02185,0.01102*
%
%ADD31ROUNDEDRECTD31*%
G04:AMPARAMS|DCode=32|XSize=23.62mil|YSize=43.31mil|CornerRadius=5.91mil|HoleSize=0mil|Usage=FLASHONLY|Rotation=0.000|XOffset=0mil|YOffset=0mil|HoleType=Round|Shape=RoundedRectangle|*
%AMROUNDEDRECTD32*
21,1,0.02362,0.03150,0,0,0.0*
21,1,0.01181,0.04331,0,0,0.0*
1,1,0.01181,0.00591,-0.01575*
1,1,0.01181,-0.00591,-0.01575*
1,1,0.01181,-0.00591,0.01575*
1,1,0.01181,0.00591,0.01575*
%
%ADD32ROUNDEDRECTD32*%
G04:AMPARAMS|DCode=33|XSize=49.21mil|YSize=31.5mil|CornerRadius=3.15mil|HoleSize=0mil|Usage=FLASHONLY|Rotation=90.000|XOffset=0mil|YOffset=0mil|HoleType=Round|Shape=RoundedRectangle|*
%AMROUNDEDRECTD33*
21,1,0.04921,0.02520,0,0,90.0*
21,1,0.04291,0.03150,0,0,90.0*
1,1,0.00630,0.01260,0.02146*
1,1,0.00630,0.01260,-0.02146*
1,1,0.00630,-0.01260,-0.02146*
1,1,0.00630,-0.01260,0.02146*
%
%ADD33ROUNDEDRECTD33*%
G04:AMPARAMS|DCode=34|XSize=49.21mil|YSize=31.5mil|CornerRadius=3.15mil|HoleSize=0mil|Usage=FLASHONLY|Rotation=180.000|XOffset=0mil|YOffset=0mil|HoleType=Round|Shape=RoundedRectangle|*
%AMROUNDEDRECTD34*
21,1,0.04921,0.02520,0,0,180.0*
21,1,0.04291,0.03150,0,0,180.0*
1,1,0.00630,-0.02146,0.01260*
1,1,0.00630,0.02146,0.01260*
1,1,0.00630,0.02146,-0.01260*
1,1,0.00630,-0.02146,-0.01260*
%
%ADD34ROUNDEDRECTD34*%
G04:AMPARAMS|DCode=35|XSize=72.84mil|YSize=51.18mil|CornerRadius=7.68mil|HoleSize=0mil|Usage=FLASHONLY|Rotation=270.000|XOffset=0mil|YOffset=0mil|HoleType=Round|Shape=RoundedRectangle|*
%AMROUNDEDRECTD35*
21,1,0.07284,0.03583,0,0,270.0*
21,1,0.05748,0.05118,0,0,270.0*
1,1,0.01535,-0.01791,-0.02874*
1,1,0.01535,-0.01791,0.02874*
1,1,0.01535,0.01791,0.02874*
1,1,0.01535,0.01791,-0.02874*
%
%ADD35ROUNDEDRECTD35*%
G04:AMPARAMS|DCode=36|XSize=49.21mil|YSize=27.56mil|CornerRadius=2.76mil|HoleSize=0mil|Usage=FLASHONLY|Rotation=270.000|XOffset=0mil|YOffset=0mil|HoleType=Round|Shape=RoundedRectangle|*
%AMROUNDEDRECTD36*
21,1,0.04921,0.02205,0,0,270.0*
21,1,0.04370,0.02756,0,0,270.0*
1,1,0.00551,-0.01102,-0.02185*
1,1,0.00551,-0.01102,0.02185*
1,1,0.00551,0.01102,0.02185*
1,1,0.00551,0.01102,-0.02185*
%
%ADD36ROUNDEDRECTD36*%
G04:AMPARAMS|DCode=37|XSize=23.62mil|YSize=43.31mil|CornerRadius=2.36mil|HoleSize=0mil|Usage=FLASHONLY|Rotation=180.000|XOffset=0mil|YOffset=0mil|HoleType=Round|Shape=RoundedRectangle|*
%AMROUNDEDRECTD37*
21,1,0.02362,0.03858,0,0,180.0*
21,1,0.01890,0.04331,0,0,180.0*
1,1,0.00472,-0.00945,0.01929*
1,1,0.00472,0.00945,0.01929*
1,1,0.00472,0.00945,-0.01929*
1,1,0.00472,-0.00945,-0.01929*
%
%ADD37ROUNDEDRECTD37*%
G04:AMPARAMS|DCode=38|XSize=57.09mil|YSize=49.21mil|CornerRadius=9.84mil|HoleSize=0mil|Usage=FLASHONLY|Rotation=90.000|XOffset=0mil|YOffset=0mil|HoleType=Round|Shape=RoundedRectangle|*
%AMROUNDEDRECTD38*
21,1,0.05709,0.02953,0,0,90.0*
21,1,0.03740,0.04921,0,0,90.0*
1,1,0.01968,0.01476,0.01870*
1,1,0.01968,0.01476,-0.01870*
1,1,0.01968,-0.01476,-0.01870*
1,1,0.01968,-0.01476,0.01870*
%
%ADD38ROUNDEDRECTD38*%
G04:AMPARAMS|DCode=39|XSize=23.62mil|YSize=43.31mil|CornerRadius=2.36mil|HoleSize=0mil|Usage=FLASHONLY|Rotation=270.000|XOffset=0mil|YOffset=0mil|HoleType=Round|Shape=RoundedRectangle|*
%AMROUNDEDRECTD39*
21,1,0.02362,0.03858,0,0,270.0*
21,1,0.01890,0.04331,0,0,270.0*
1,1,0.00472,-0.01929,-0.00945*
1,1,0.00472,-0.01929,0.00945*
1,1,0.00472,0.01929,0.00945*
1,1,0.00472,0.01929,-0.00945*
%
%ADD39ROUNDEDRECTD39*%
%ADD40R,0.01181X0.05118*%
%ADD41R,0.07874X0.07087*%
%ADD42C,0.01968*%
%ADD43C,0.01575*%
%ADD44C,0.01200*%
%ADD45P,0.06392X8X22.5*%
G04:AMPARAMS|DCode=46|XSize=59.06mil|YSize=59.06mil|CornerRadius=14.76mil|HoleSize=0mil|Usage=FLASHONLY|Rotation=0.000|XOffset=0mil|YOffset=0mil|HoleType=Round|Shape=RoundedRectangle|*
%AMROUNDEDRECTD46*
21,1,0.05906,0.02953,0,0,0.0*
21,1,0.02953,0.05906,0,0,0.0*
1,1,0.02953,0.01476,-0.01476*
1,1,0.02953,-0.01476,-0.01476*
1,1,0.02953,-0.01476,0.01476*
1,1,0.02953,0.01476,0.01476*
%
%ADD46ROUNDEDRECTD46*%
%ADD47C,0.02756*%
D10*
X45260Y41260D02*
X46378D01*
X37614Y33614D02*
X45260Y41260D01*
X37614Y25189D02*
Y33614D01*
X33677Y25189D02*
Y31323D01*
X22378Y41260D02*
X23740D01*
X33677Y31323D01*
X35646Y25189D02*
Y38354D01*
X32740Y41260D02*
X35646Y38354D01*
X31378Y41260D02*
X32740D01*
X62260D02*
X63378D01*
X47378Y33000D02*
X54000D01*
X62260Y41260D01*
X54260D02*
X55378D01*
X45378Y36000D02*
X49000D01*
X54260Y41260D01*
X21921Y27457D02*
Y31000D01*
Y27457D02*
X24189Y25189D01*
X29740D01*
X39378Y41260D02*
X39378Y41260D01*
X39583Y30205D02*
X45378Y36000D01*
X43520Y29142D02*
X47378Y33000D01*
X43520Y25189D02*
Y29142D01*
X39583Y25189D02*
Y30205D01*
X62378Y30000D02*
X64378D01*
X61236Y28858D02*
X62378Y30000D01*
X72638Y31260D02*
Y34000D01*
X71378Y30000D02*
X72638Y31260D01*
X64378Y30000D02*
X71378D01*
X63205Y28827D02*
X64378Y30000D01*
X63205Y25189D02*
Y28827D01*
X61236Y25189D02*
Y28858D01*
X66378Y20000D02*
X67142Y20764D01*
Y25189D01*
X65173Y21205D02*
X66378Y20000D01*
X65173Y21205D02*
Y25189D01*
X31709Y22169D02*
X33878Y20000D01*
X31709Y22169D02*
Y25189D01*
X78426Y121330D02*
X77639Y120543D01*
Y118968D01*
X78426Y118181D01*
X81574D01*
X82361Y118968D01*
Y120543D01*
X81574Y121330D01*
X80000D01*
Y119755D01*
X82361Y122904D02*
X77639D01*
X82361Y126053D01*
X77639D01*
Y127627D02*
X82361D01*
Y129988D01*
X81574Y130775D01*
X78426D01*
X77639Y129988D01*
Y127627D01*
X62639Y118181D02*
X65787D01*
X67361Y119755D01*
X65787Y121330D01*
X62639D01*
X63426Y126053D02*
X62639Y125265D01*
Y123691D01*
X63426Y122904D01*
X66574D01*
X67361Y123691D01*
Y125265D01*
X66574Y126053D01*
X63426Y130775D02*
X62639Y129988D01*
Y128414D01*
X63426Y127627D01*
X66574D01*
X67361Y128414D01*
Y129988D01*
X66574Y130775D01*
X57361Y118181D02*
X52639D01*
Y120543D01*
X53426Y121330D01*
X55000D01*
X55787Y120543D01*
Y118181D01*
X52639Y122904D02*
X57361D01*
Y125265D01*
X56574Y126053D01*
X53426D01*
X52639Y125265D01*
Y122904D01*
X43426Y121330D02*
X42639Y120543D01*
Y118968D01*
X43426Y118181D01*
X46574D01*
X47361Y118968D01*
Y120543D01*
X46574Y121330D01*
X43426Y126053D02*
X42639Y125265D01*
Y123691D01*
X43426Y122904D01*
X44213D01*
X45000Y123691D01*
Y125265D01*
X45787Y126053D01*
X46574D01*
X47361Y125265D01*
Y123691D01*
X46574Y122904D01*
X37361Y118181D02*
X32639D01*
X34213Y119755D01*
X32639Y121330D01*
X37361D01*
X32639Y122904D02*
Y124478D01*
Y123691D01*
X37361D01*
Y122904D01*
Y124478D01*
X33426Y129988D02*
X32639Y129201D01*
Y127627D01*
X33426Y126840D01*
X34213D01*
X35000Y127627D01*
Y129201D01*
X35787Y129988D01*
X36574D01*
X37361Y129201D01*
Y127627D01*
X36574Y126840D01*
X32639Y133924D02*
Y132350D01*
X33426Y131563D01*
X36574D01*
X37361Y132350D01*
Y133924D01*
X36574Y134711D01*
X33426D01*
X32639Y133924D01*
X27361Y118181D02*
X22639D01*
X24213Y119755D01*
X22639Y121330D01*
X27361D01*
X22639Y125265D02*
Y123691D01*
X23426Y122904D01*
X26574D01*
X27361Y123691D01*
Y125265D01*
X26574Y126053D01*
X23426D01*
X22639Y125265D01*
X23426Y130775D02*
X22639Y129988D01*
Y128414D01*
X23426Y127627D01*
X24213D01*
X25000Y128414D01*
Y129988D01*
X25787Y130775D01*
X26574D01*
X27361Y129988D01*
Y128414D01*
X26574Y127627D01*
X22639Y132350D02*
Y133924D01*
Y133137D01*
X27361D01*
Y132350D01*
Y133924D01*
X13426Y121330D02*
X12639Y120543D01*
Y118968D01*
X13426Y118181D01*
X14213D01*
X15000Y118968D01*
Y120543D01*
X15787Y121330D01*
X16574D01*
X17361Y120543D01*
Y118968D01*
X16574Y118181D01*
X13426Y126053D02*
X12639Y125265D01*
Y123691D01*
X13426Y122904D01*
X16574D01*
X17361Y123691D01*
Y125265D01*
X16574Y126053D01*
X12639Y127627D02*
X17361D01*
X15787D01*
X12639Y130775D01*
X15000Y128414D01*
X17361Y130775D01*
D28*
X104378Y66843D02*
D03*
Y47157D02*
D03*
D29*
X125000Y103291D02*
D03*
Y114709D02*
D03*
D30*
X115252Y78969D02*
D03*
X99504D02*
D03*
D31*
X16378Y80260D02*
D03*
X9378Y80260D02*
D03*
X15378Y48740D02*
D03*
X63378Y80260D02*
D03*
X70378Y80740D02*
D03*
X46378Y48740D02*
D03*
Y41260D02*
D03*
X22378Y48740D02*
D03*
Y41260D02*
D03*
X16378Y87740D02*
D03*
X24378D02*
D03*
Y80260D02*
D03*
X70378Y66740D02*
D03*
Y59260D02*
D03*
X31378Y60740D02*
D03*
Y53260D02*
D03*
X40378Y80260D02*
D03*
Y87740D02*
D03*
X101378Y89260D02*
D03*
Y96740D02*
D03*
X9378Y87740D02*
D03*
X15378Y41260D02*
D03*
X77378Y76260D02*
D03*
Y83740D02*
D03*
X55378Y80260D02*
D03*
Y87740D02*
D03*
Y41260D02*
D03*
Y48740D02*
D03*
X63378Y87740D02*
D03*
Y41260D02*
D03*
Y48740D02*
D03*
X70378Y73260D02*
D03*
X31378Y41260D02*
D03*
Y48740D02*
D03*
X47378Y80260D02*
D03*
Y87740D02*
D03*
X78378Y59740D02*
D03*
Y52260D02*
D03*
X85378Y59740D02*
D03*
Y52260D02*
D03*
X31378Y80260D02*
D03*
X39378Y48740D02*
D03*
Y41260D02*
D03*
X31378Y87740D02*
D03*
Y66260D02*
D03*
Y73740D02*
D03*
D32*
X15638Y68118D02*
D03*
Y57882D02*
D03*
X23118Y68118D02*
D03*
X55638Y57882D02*
D03*
X127638Y60882D02*
D03*
Y71118D02*
D03*
X131378D02*
D03*
X135118D02*
D03*
Y60882D02*
D03*
X63118Y68118D02*
D03*
Y57882D02*
D03*
X23118D02*
D03*
X19378D02*
D03*
Y68118D02*
D03*
X131378Y60882D02*
D03*
X59378Y57882D02*
D03*
X55638Y68118D02*
D03*
X59378D02*
D03*
D33*
X21921Y31000D02*
D03*
X14835D02*
D03*
D34*
X121378Y69543D02*
D03*
Y62457D02*
D03*
D35*
X132087Y37000D02*
D03*
X120669D02*
D03*
D36*
X72638Y34000D02*
D03*
X80118D02*
D03*
X137740Y81000D02*
D03*
X130260D02*
D03*
X118638Y47000D02*
D03*
X126118D02*
D03*
X130638D02*
D03*
X138118D02*
D03*
X135118Y54000D02*
D03*
X127638D02*
D03*
D37*
X43378Y57882D02*
D03*
X39638Y68118D02*
D03*
X47118D02*
D03*
Y57882D02*
D03*
X39638D02*
D03*
D38*
X108445Y105000D02*
D03*
X101555D02*
D03*
D39*
X118496Y96740D02*
D03*
Y89260D02*
D03*
X108260D02*
D03*
Y96740D02*
D03*
X118496Y93000D02*
D03*
D40*
X63205Y25189D02*
D03*
X61236D02*
D03*
X59268D02*
D03*
X57299D02*
D03*
X55331D02*
D03*
X53362D02*
D03*
X51394D02*
D03*
X49425D02*
D03*
X47457D02*
D03*
X41551D02*
D03*
X39583D02*
D03*
X37614D02*
D03*
X35646D02*
D03*
X33677D02*
D03*
X31709D02*
D03*
X29740D02*
D03*
X43520D02*
D03*
X45488D02*
D03*
X65173D02*
D03*
X67142D02*
D03*
D41*
X22654Y14362D02*
D03*
X74228D02*
D03*
D42*
X65000Y98000D02*
X72589Y90411D01*
X81967D01*
X85378Y87000D01*
Y59740D02*
Y87000D01*
X94000Y79000D02*
X99472D01*
X31378Y70000D02*
Y73740D01*
X47000Y54000D02*
X47118Y54118D01*
Y57882D01*
X123291Y105000D02*
X125000Y103291D01*
X108445Y105000D02*
X123291D01*
X96555D02*
X99555D01*
X81967Y90411D02*
X96555Y105000D01*
X125000Y110000D02*
Y114709D01*
Y103291D02*
X130260Y98032D01*
X124709Y97520D02*
Y103000D01*
X123929Y96740D02*
X124709Y97520D01*
X123929Y96740D02*
X124000Y96669D01*
Y91000D02*
Y96669D01*
X122260Y89260D02*
X124000Y91000D01*
X88000Y56000D02*
X90378Y58378D01*
Y85000D01*
Y40000D02*
Y53622D01*
X88000Y56000D02*
X90378Y53622D01*
X94638Y89260D02*
X101378D01*
X124709Y103000D02*
X125000Y103291D01*
X130260Y81000D02*
Y98032D01*
Y81000D02*
X131378Y79882D01*
Y71118D02*
Y79882D01*
X135118Y78378D02*
X137740Y81000D01*
X135118Y50000D02*
Y54000D01*
Y50000D02*
X138118Y47000D01*
X120669Y37000D02*
Y44969D01*
X118638Y47000D02*
X120669Y44969D01*
X118480Y47157D02*
X118638Y47000D01*
X104378Y47157D02*
X118480D01*
X65000Y98000D02*
Y110000D01*
X55000Y96118D02*
Y98000D01*
Y96118D02*
X63378Y87740D01*
X55000Y98000D02*
Y110000D01*
X45000Y98000D02*
X45118D01*
X55378Y87740D01*
X45000Y98000D02*
Y110000D01*
X35000Y93118D02*
Y98000D01*
Y93118D02*
X40378Y87740D01*
X35000Y98000D02*
Y110000D01*
X25000Y94118D02*
Y98000D01*
Y94118D02*
X31378Y87740D01*
X25000Y98000D02*
Y110000D01*
X15000Y93362D02*
Y98000D01*
X9378Y87740D02*
X15000Y93362D01*
Y98000D02*
Y110000D01*
X70378Y66740D02*
Y70000D01*
Y73260D01*
X47118Y57882D02*
X47236Y58000D01*
X19378Y68118D02*
Y72000D01*
X11378Y31000D02*
X14835D01*
X21921D02*
X26378D01*
X40378Y80260D02*
Y84000D01*
X24378D02*
Y87740D01*
X16378Y84000D02*
Y87740D01*
X22378Y45000D02*
Y48740D01*
X46378Y45000D02*
Y48740D01*
X31378Y57000D02*
Y60740D01*
X59378Y68118D02*
Y72000D01*
X90378Y85000D02*
X94638Y89260D01*
X90378Y40000D02*
X93378Y37000D01*
X120669D01*
X99472Y79000D02*
X99504Y78969D01*
X121378Y69543D02*
Y72843D01*
X115252Y78969D02*
X121378Y72843D01*
X40378Y87740D02*
X47378D01*
X118496Y96740D02*
X123929D01*
X118496Y89260D02*
X122260D01*
X122953Y60882D02*
X127638D01*
X121378Y62457D02*
X122953Y60882D01*
X104378Y66843D02*
X107079Y69543D01*
X121378D01*
X122953Y71118D02*
X127638D01*
X121378Y69543D02*
X122953Y71118D01*
X78378Y52260D02*
X85378D01*
X78378Y39740D02*
Y52260D01*
X72638Y34000D02*
X78378Y39740D01*
X135118Y71118D02*
Y78378D01*
X126118Y47000D02*
X130638D01*
X135118Y54000D02*
Y60882D01*
X78378Y56000D02*
X88000D01*
X101378Y89260D02*
X108260D01*
X66378Y36000D02*
X72378Y42000D01*
X75378Y56000D02*
X78378D01*
X72378Y53000D02*
X75378Y56000D01*
X72378Y42000D02*
Y53000D01*
X129378Y54000D02*
X131378Y56000D01*
X127638Y54000D02*
X129378D01*
X131378Y56000D02*
Y60882D01*
X132087Y37000D02*
X136378D01*
X104378Y47157D02*
X104535Y47000D01*
D43*
X33260Y66260D02*
X35118Y68118D01*
X39638D01*
X31819Y65819D02*
X33463Y64175D01*
X31378Y66260D02*
X33260D01*
X30260D02*
X31378D01*
X27000Y63000D02*
X30260Y66260D01*
X21378Y63000D02*
X27000D01*
X19378Y61000D02*
X21378Y63000D01*
X53000Y62000D02*
X55638Y59362D01*
X41000Y62000D02*
X53000D01*
X55638Y57882D02*
Y59362D01*
X39638Y60638D02*
X41000Y62000D01*
X39638Y57882D02*
Y60638D01*
X41260Y53260D02*
X43378Y55378D01*
Y57882D01*
X31378Y53260D02*
X41260D01*
X77378Y59740D02*
Y76260D01*
X69898Y80260D02*
X70378Y80740D01*
X63378Y80260D02*
X69898D01*
X101378Y93000D02*
Y96740D01*
X24378Y80260D02*
X24378Y80260D01*
X31378D01*
X23118Y79000D02*
X24378Y80260D01*
X23118Y68118D02*
Y79000D01*
X16378Y80260D02*
X16378Y80260D01*
X9378Y80260D02*
X16378D01*
X15638Y79520D02*
X16378Y80260D01*
X15638Y68118D02*
Y79520D01*
X47118Y80000D02*
X47378Y80260D01*
X47118Y68118D02*
Y80000D01*
X63118Y80000D02*
X63378Y80260D01*
X63118Y68118D02*
Y80000D01*
X55378Y80260D02*
X55638Y80000D01*
Y68118D02*
Y80000D01*
X58858Y83740D02*
X77378D01*
X55378Y80260D02*
X58858Y83740D01*
X78378Y56000D02*
Y59740D01*
X77378D02*
X78378D01*
X70858D02*
X77378D01*
X70378Y59260D02*
X70858Y59740D01*
X19378Y57882D02*
Y61000D01*
X70378Y59260D02*
Y60000D01*
X66203Y64175D02*
X70378Y60000D01*
X33463Y64175D02*
X66203D01*
X67118Y59260D02*
X70378D01*
X64378Y62000D02*
X67118Y59260D01*
X61378Y62000D02*
X64378D01*
X59378Y60000D02*
X61378Y62000D01*
X59378Y57882D02*
Y60000D01*
X39378Y41260D02*
X46378D01*
X15378Y41260D02*
X15378Y41260D01*
X22378D01*
X35638Y45000D02*
X39378Y48740D01*
X29378Y45000D02*
X35638D01*
X26378Y48000D02*
X29378Y45000D01*
X31378Y48740D02*
Y53260D01*
X23118Y55260D02*
X26378Y52000D01*
Y48000D02*
Y52000D01*
X63118Y49000D02*
X63378Y48740D01*
X63118Y49000D02*
Y55882D01*
X55378Y48740D02*
X55638Y49000D01*
Y55882D01*
X23118Y55260D02*
Y57882D01*
X15378Y57622D02*
X15638Y57882D01*
X15378Y48740D02*
Y57622D01*
X114378Y93000D02*
X118496D01*
X80118Y34000D02*
X83378D01*
D44*
X140000Y126277D02*
Y131000D01*
X137639D01*
X136851Y130213D01*
Y127064D01*
X137639Y126277D01*
X140000D01*
X132129D02*
X135277D01*
Y128639D01*
X133703Y127851D01*
X132916D01*
X132129Y128639D01*
Y130213D01*
X132916Y131000D01*
X134490D01*
X135277Y130213D01*
X130554Y127064D02*
X129767Y126277D01*
X128193D01*
X127406Y127064D01*
Y130213D01*
X128193Y131000D01*
X129767D01*
X130554Y130213D01*
Y127064D01*
X125831Y131000D02*
X124257D01*
X125044D01*
Y126277D01*
X125831Y127064D01*
X121896Y130213D02*
X121108Y131000D01*
X119534D01*
X118747Y130213D01*
Y127064D01*
X119534Y126277D01*
X121108D01*
X121896Y127064D01*
Y127851D01*
X121108Y128639D01*
X118747D01*
X117173D02*
X114024D01*
X112450Y127064D02*
X111663Y126277D01*
X110088D01*
X109301Y127064D01*
Y130213D01*
X110088Y131000D01*
X111663D01*
X112450Y130213D01*
Y127064D01*
X107727D02*
X106940Y126277D01*
X105366D01*
X104578Y127064D01*
Y127851D01*
X105366Y128639D01*
X104578Y129426D01*
Y130213D01*
X105366Y131000D01*
X106940D01*
X107727Y130213D01*
Y129426D01*
X106940Y128639D01*
X107727Y127851D01*
Y127064D01*
X106940Y128639D02*
X105366D01*
X103004D02*
X99856D01*
X98281Y127064D02*
X97494Y126277D01*
X95920D01*
X95133Y127064D01*
Y130213D01*
X95920Y131000D01*
X97494D01*
X98281Y130213D01*
Y127064D01*
X90410Y131000D02*
X93558D01*
X90410Y127851D01*
Y127064D01*
X91197Y126277D01*
X92771D01*
X93558Y127064D01*
D45*
X65000Y110000D02*
D03*
X25000D02*
D03*
X35000D02*
D03*
X45000D02*
D03*
X55000D02*
D03*
X75000D02*
D03*
X85000D02*
D03*
X75000Y98000D02*
D03*
X55000D02*
D03*
X45000D02*
D03*
X35000D02*
D03*
X25000D02*
D03*
X65000D02*
D03*
D46*
X15000Y110000D02*
D03*
Y98000D02*
D03*
D47*
X94000Y79000D02*
D03*
X31378Y70000D02*
D03*
X26378Y31000D02*
D03*
X70378Y70000D02*
D03*
X19378Y72000D02*
D03*
X101378Y93000D02*
D03*
X125000Y110000D02*
D03*
X114378Y93000D02*
D03*
X66378Y36000D02*
D03*
X83378Y34000D02*
D03*
X31378Y57000D02*
D03*
X59378Y72000D02*
D03*
X40378Y84000D02*
D03*
X11378Y31000D02*
D03*
X22378Y45000D02*
D03*
X16378Y84000D02*
D03*
X24378D02*
D03*
X136378Y37000D02*
D03*
X47000Y54000D02*
D03*
X131378Y56000D02*
D03*
X46378Y45000D02*
D03*
X33878Y20000D02*
D03*
X66378D02*
D03*
M02*
