M48
;Layer_Color=9474304
;FILE_FORMAT=2:5
INCH,LZ
;TYPE=PLATED
T1F00S00C0.01181
T2F00S00C0.03543
%
T01
X0033878Y002
X0066378
Y0036
X0083378Y0034
X0046378Y0045
X0047Y0054
X0031378Y0057
Y007
X0019378Y0072
X0016378Y0084
X0024378
X0040378
X0059378Y0072
X0070378Y007
X0094Y0079
X0101378Y0093
X0114378
X0125Y011
X0131378Y0056
X0136378Y0037
X0026378Y0031
X0011378
X0022378Y0045
T02
X0015Y0098
X0025
X0035
X0045
X0055
X0065
X0075
Y011
X0065
X0055
X0045
X0035
X0025
X0015
X0085
M30
