G04*
G04 #@! TF.GenerationSoftware,Altium Limited,Altium Designer,20.1.11 (218)*
G04*
G04 Layer_Color=8388736*
%FSLAX25Y25*%
%MOIN*%
G70*
G04*
G04 #@! TF.SameCoordinates,523F0657-F71E-4486-8054-8BA6F8F09657*
G04*
G04*
G04 #@! TF.FilePolarity,Negative*
G04*
G01*
G75*
G04:AMPARAMS|DCode=10|XSize=53.21mil|YSize=31.56mil|CornerRadius=4.76mil|HoleSize=0mil|Usage=FLASHONLY|Rotation=0.000|XOffset=0mil|YOffset=0mil|HoleType=Round|Shape=RoundedRectangle|*
%AMROUNDEDRECTD10*
21,1,0.05321,0.02205,0,0,0.0*
21,1,0.04370,0.03156,0,0,0.0*
1,1,0.00951,0.02185,-0.01102*
1,1,0.00951,-0.02185,-0.01102*
1,1,0.00951,-0.02185,0.01102*
1,1,0.00951,0.02185,0.01102*
%
%ADD10ROUNDEDRECTD10*%
G04:AMPARAMS|DCode=11|XSize=59.12mil|YSize=35.5mil|CornerRadius=5.15mil|HoleSize=0mil|Usage=FLASHONLY|Rotation=0.000|XOffset=0mil|YOffset=0mil|HoleType=Round|Shape=RoundedRectangle|*
%AMROUNDEDRECTD11*
21,1,0.05912,0.02520,0,0,0.0*
21,1,0.04882,0.03550,0,0,0.0*
1,1,0.01030,0.02441,-0.01260*
1,1,0.01030,-0.02441,-0.01260*
1,1,0.01030,-0.02441,0.01260*
1,1,0.01030,0.02441,0.01260*
%
%ADD11ROUNDEDRECTD11*%
G04:AMPARAMS|DCode=12|XSize=27.62mil|YSize=47.31mil|CornerRadius=4.36mil|HoleSize=0mil|Usage=FLASHONLY|Rotation=270.000|XOffset=0mil|YOffset=0mil|HoleType=Round|Shape=RoundedRectangle|*
%AMROUNDEDRECTD12*
21,1,0.02762,0.03858,0,0,270.0*
21,1,0.01890,0.04731,0,0,270.0*
1,1,0.00872,-0.01929,-0.00945*
1,1,0.00872,-0.01929,0.00945*
1,1,0.00872,0.01929,0.00945*
1,1,0.00872,0.01929,-0.00945*
%
%ADD12ROUNDEDRECTD12*%
G04:AMPARAMS|DCode=13|XSize=240.22mil|YSize=114.24mil|CornerRadius=18.54mil|HoleSize=0mil|Usage=FLASHONLY|Rotation=90.000|XOffset=0mil|YOffset=0mil|HoleType=Round|Shape=RoundedRectangle|*
%AMROUNDEDRECTD13*
21,1,0.24022,0.07717,0,0,90.0*
21,1,0.20315,0.11424,0,0,90.0*
1,1,0.03707,0.03858,0.10158*
1,1,0.03707,0.03858,-0.10158*
1,1,0.03707,-0.03858,-0.10158*
1,1,0.03707,-0.03858,0.10158*
%
%ADD13ROUNDEDRECTD13*%
%ADD14R,0.01581X0.05518*%
%ADD15R,0.08274X0.07487*%
G04:AMPARAMS|DCode=16|XSize=61.09mil|YSize=53.21mil|CornerRadius=11.84mil|HoleSize=0mil|Usage=FLASHONLY|Rotation=90.000|XOffset=0mil|YOffset=0mil|HoleType=Round|Shape=RoundedRectangle|*
%AMROUNDEDRECTD16*
21,1,0.06109,0.02953,0,0,90.0*
21,1,0.03740,0.05321,0,0,90.0*
1,1,0.02368,0.01476,0.01870*
1,1,0.02368,0.01476,-0.01870*
1,1,0.02368,-0.01476,-0.01870*
1,1,0.02368,-0.01476,0.01870*
%
%ADD16ROUNDEDRECTD16*%
G04:AMPARAMS|DCode=17|XSize=27.62mil|YSize=47.31mil|CornerRadius=4.36mil|HoleSize=0mil|Usage=FLASHONLY|Rotation=180.000|XOffset=0mil|YOffset=0mil|HoleType=Round|Shape=RoundedRectangle|*
%AMROUNDEDRECTD17*
21,1,0.02762,0.03858,0,0,180.0*
21,1,0.01890,0.04731,0,0,180.0*
1,1,0.00872,-0.00945,0.01929*
1,1,0.00872,0.00945,0.01929*
1,1,0.00872,0.00945,-0.01929*
1,1,0.00872,-0.00945,-0.01929*
%
%ADD17ROUNDEDRECTD17*%
G04:AMPARAMS|DCode=18|XSize=53.21mil|YSize=31.56mil|CornerRadius=4.76mil|HoleSize=0mil|Usage=FLASHONLY|Rotation=270.000|XOffset=0mil|YOffset=0mil|HoleType=Round|Shape=RoundedRectangle|*
%AMROUNDEDRECTD18*
21,1,0.05321,0.02205,0,0,270.0*
21,1,0.04370,0.03156,0,0,270.0*
1,1,0.00951,-0.01102,-0.02185*
1,1,0.00951,-0.01102,0.02185*
1,1,0.00951,0.01102,0.02185*
1,1,0.00951,0.01102,-0.02185*
%
%ADD18ROUNDEDRECTD18*%
G04:AMPARAMS|DCode=19|XSize=27.62mil|YSize=47.31mil|CornerRadius=7.91mil|HoleSize=0mil|Usage=FLASHONLY|Rotation=0.000|XOffset=0mil|YOffset=0mil|HoleType=Round|Shape=RoundedRectangle|*
%AMROUNDEDRECTD19*
21,1,0.02762,0.03150,0,0,0.0*
21,1,0.01181,0.04731,0,0,0.0*
1,1,0.01581,0.00591,-0.01575*
1,1,0.01581,-0.00591,-0.01575*
1,1,0.01581,-0.00591,0.01575*
1,1,0.01581,0.00591,0.01575*
%
%ADD19ROUNDEDRECTD19*%
G04:AMPARAMS|DCode=20|XSize=59.12mil|YSize=55.18mil|CornerRadius=7.12mil|HoleSize=0mil|Usage=FLASHONLY|Rotation=270.000|XOffset=0mil|YOffset=0mil|HoleType=Round|Shape=RoundedRectangle|*
%AMROUNDEDRECTD20*
21,1,0.05912,0.04095,0,0,270.0*
21,1,0.04488,0.05518,0,0,270.0*
1,1,0.01424,-0.02047,-0.02244*
1,1,0.01424,-0.02047,0.02244*
1,1,0.01424,0.02047,0.02244*
1,1,0.01424,0.02047,-0.02244*
%
%ADD20ROUNDEDRECTD20*%
G04:AMPARAMS|DCode=21|XSize=90.61mil|YSize=208.72mil|CornerRadius=10.66mil|HoleSize=0mil|Usage=FLASHONLY|Rotation=90.000|XOffset=0mil|YOffset=0mil|HoleType=Round|Shape=RoundedRectangle|*
%AMROUNDEDRECTD21*
21,1,0.09061,0.18740,0,0,90.0*
21,1,0.06929,0.20872,0,0,90.0*
1,1,0.02132,0.09370,0.03465*
1,1,0.02132,0.09370,-0.03465*
1,1,0.02132,-0.09370,-0.03465*
1,1,0.02132,-0.09370,0.03465*
%
%ADD21ROUNDEDRECTD21*%
G04:AMPARAMS|DCode=22|XSize=76.84mil|YSize=55.18mil|CornerRadius=9.68mil|HoleSize=0mil|Usage=FLASHONLY|Rotation=270.000|XOffset=0mil|YOffset=0mil|HoleType=Round|Shape=RoundedRectangle|*
%AMROUNDEDRECTD22*
21,1,0.07684,0.03583,0,0,270.0*
21,1,0.05748,0.05518,0,0,270.0*
1,1,0.01935,-0.01791,-0.02874*
1,1,0.01935,-0.01791,0.02874*
1,1,0.01935,0.01791,0.02874*
1,1,0.01935,0.01791,-0.02874*
%
%ADD22ROUNDEDRECTD22*%
G04:AMPARAMS|DCode=23|XSize=53.21mil|YSize=35.5mil|CornerRadius=5.15mil|HoleSize=0mil|Usage=FLASHONLY|Rotation=90.000|XOffset=0mil|YOffset=0mil|HoleType=Round|Shape=RoundedRectangle|*
%AMROUNDEDRECTD23*
21,1,0.05321,0.02520,0,0,90.0*
21,1,0.04291,0.03550,0,0,90.0*
1,1,0.01030,0.01260,0.02146*
1,1,0.01030,0.01260,-0.02146*
1,1,0.01030,-0.01260,-0.02146*
1,1,0.01030,-0.01260,0.02146*
%
%ADD23ROUNDEDRECTD23*%
G04:AMPARAMS|DCode=24|XSize=53.21mil|YSize=35.5mil|CornerRadius=5.15mil|HoleSize=0mil|Usage=FLASHONLY|Rotation=180.000|XOffset=0mil|YOffset=0mil|HoleType=Round|Shape=RoundedRectangle|*
%AMROUNDEDRECTD24*
21,1,0.05321,0.02520,0,0,180.0*
21,1,0.04291,0.03550,0,0,180.0*
1,1,0.01030,-0.02146,0.01260*
1,1,0.01030,0.02146,0.01260*
1,1,0.01030,0.02146,-0.01260*
1,1,0.01030,-0.02146,-0.01260*
%
%ADD24ROUNDEDRECTD24*%
G04:AMPARAMS|DCode=25|XSize=66.99mil|YSize=66.99mil|CornerRadius=17.75mil|HoleSize=0mil|Usage=FLASHONLY|Rotation=0.000|XOffset=0mil|YOffset=0mil|HoleType=Round|Shape=RoundedRectangle|*
%AMROUNDEDRECTD25*
21,1,0.06699,0.03150,0,0,0.0*
21,1,0.03150,0.06699,0,0,0.0*
1,1,0.03550,0.01575,-0.01575*
1,1,0.03550,-0.01575,-0.01575*
1,1,0.03550,-0.01575,0.01575*
1,1,0.03550,0.01575,0.01575*
%
%ADD25ROUNDEDRECTD25*%
%ADD26C,0.06699*%
%ADD27C,0.00400*%
D10*
X212000Y87260D02*
D03*
Y94740D02*
D03*
X129000Y102260D02*
D03*
Y109740D02*
D03*
X107000Y59740D02*
D03*
Y52260D02*
D03*
X100000Y59740D02*
D03*
Y52260D02*
D03*
X56000Y88709D02*
D03*
Y81228D02*
D03*
X88000Y54260D02*
D03*
Y61740D02*
D03*
X63000Y75709D02*
D03*
Y68228D02*
D03*
X56000Y75709D02*
D03*
Y68228D02*
D03*
X21000Y42260D02*
D03*
Y49740D02*
D03*
X64000Y43740D02*
D03*
Y36260D02*
D03*
X21000Y62740D02*
D03*
Y55260D02*
D03*
X42000Y75709D02*
D03*
Y68228D02*
D03*
X49000Y75709D02*
D03*
Y68228D02*
D03*
X78000Y43740D02*
D03*
Y36260D02*
D03*
X84000Y75709D02*
D03*
Y68228D02*
D03*
X91000Y68228D02*
D03*
Y75709D02*
D03*
X36000Y43740D02*
D03*
Y36260D02*
D03*
X35000Y75709D02*
D03*
Y68228D02*
D03*
X50000Y43740D02*
D03*
Y36260D02*
D03*
X70000Y75709D02*
D03*
Y68228D02*
D03*
X71000Y43740D02*
D03*
Y36260D02*
D03*
X28000Y68228D02*
D03*
Y75709D02*
D03*
X43000Y36260D02*
D03*
Y43740D02*
D03*
X57000Y36260D02*
D03*
Y43740D02*
D03*
X50000Y52260D02*
D03*
Y59740D02*
D03*
X28000Y55260D02*
D03*
Y62740D02*
D03*
X77000Y68228D02*
D03*
Y75709D02*
D03*
X49000Y88709D02*
D03*
Y81228D02*
D03*
X85000Y43740D02*
D03*
Y36260D02*
D03*
D11*
X212000Y80937D02*
D03*
Y73063D02*
D03*
X165000Y79063D02*
D03*
Y86937D02*
D03*
D12*
X135882Y102260D02*
D03*
Y109740D02*
D03*
X146118D02*
D03*
Y106000D02*
D03*
Y102260D02*
D03*
D13*
X245000Y97185D02*
D03*
Y57815D02*
D03*
D14*
X103543Y25189D02*
D03*
X101575D02*
D03*
X99606D02*
D03*
X97638D02*
D03*
X95669D02*
D03*
X93701D02*
D03*
X91732D02*
D03*
X81890D02*
D03*
X79921D02*
D03*
X77953D02*
D03*
X62205D02*
D03*
X60236D02*
D03*
X46457D02*
D03*
X48425D02*
D03*
X50394D02*
D03*
X52362D02*
D03*
X54331D02*
D03*
X56299D02*
D03*
X58268D02*
D03*
X64173D02*
D03*
X66142D02*
D03*
X68110D02*
D03*
X70079D02*
D03*
X72047D02*
D03*
X74016D02*
D03*
X75984D02*
D03*
X83858D02*
D03*
X85827D02*
D03*
X87795D02*
D03*
X89764D02*
D03*
D15*
X39370Y14362D02*
D03*
X110630D02*
D03*
D16*
X149445Y118000D02*
D03*
X142555D02*
D03*
D17*
X208260Y38118D02*
D03*
X215740D02*
D03*
Y27882D02*
D03*
X212000D02*
D03*
X208260D02*
D03*
X56260Y61118D02*
D03*
X63740D02*
D03*
Y50882D02*
D03*
X60000D02*
D03*
X56260D02*
D03*
X208260Y56882D02*
D03*
X215740D02*
D03*
X212000Y67118D02*
D03*
D18*
X210740Y14000D02*
D03*
X203260D02*
D03*
X155260Y96000D02*
D03*
X162740D02*
D03*
X163740Y64000D02*
D03*
X156260D02*
D03*
X151260Y71000D02*
D03*
X158740D02*
D03*
X210260Y22000D02*
D03*
X217740D02*
D03*
X215740Y51000D02*
D03*
X208260D02*
D03*
X151740Y64000D02*
D03*
X144260D02*
D03*
D19*
X43740Y60118D02*
D03*
Y49882D02*
D03*
X79740Y61118D02*
D03*
X72260D02*
D03*
Y50882D02*
D03*
X79740D02*
D03*
X40000Y49882D02*
D03*
X36260D02*
D03*
Y60118D02*
D03*
X40000D02*
D03*
X151260Y88118D02*
D03*
X155000D02*
D03*
X158740D02*
D03*
Y77882D02*
D03*
X155000D02*
D03*
X151260D02*
D03*
X76000Y50882D02*
D03*
Y61118D02*
D03*
D20*
X132095Y94000D02*
D03*
X143905D02*
D03*
D21*
X128000Y83842D02*
D03*
Y64157D02*
D03*
D22*
X146291Y56000D02*
D03*
X157709D02*
D03*
D23*
X35457Y27000D02*
D03*
X42543D02*
D03*
X162543Y103000D02*
D03*
X155457D02*
D03*
X204457Y44000D02*
D03*
X211543D02*
D03*
D24*
X145000Y79457D02*
D03*
Y86543D02*
D03*
D25*
X47000Y105000D02*
D03*
D26*
Y115118D02*
D03*
X57000Y105000D02*
D03*
Y115000D02*
D03*
X67000Y105000D02*
D03*
Y115000D02*
D03*
X77000Y105000D02*
D03*
Y115000D02*
D03*
X87000Y105000D02*
D03*
Y115000D02*
D03*
D27*
X271654Y15748D02*
D03*
X15748D02*
D03*
M02*
