G04*
G04 #@! TF.GenerationSoftware,Altium Limited,Altium Designer,20.1.7 (139)*
G04*
G04 Layer_Physical_Order=1*
G04 Layer_Color=255*
%FSLAX25Y25*%
%MOIN*%
G70*
G04*
G04 #@! TF.SameCoordinates,05879739-44A9-4934-95FB-35F445BD12AF*
G04*
G04*
G04 #@! TF.FilePolarity,Positive*
G04*
G01*
G75*
%ADD29R,0.07874X0.07087*%
%ADD30R,0.01181X0.05118*%
G04:AMPARAMS|DCode=31|XSize=23.62mil|YSize=43.31mil|CornerRadius=2.36mil|HoleSize=0mil|Usage=FLASHONLY|Rotation=180.000|XOffset=0mil|YOffset=0mil|HoleType=Round|Shape=RoundedRectangle|*
%AMROUNDEDRECTD31*
21,1,0.02362,0.03858,0,0,180.0*
21,1,0.01890,0.04331,0,0,180.0*
1,1,0.00472,-0.00945,0.01929*
1,1,0.00472,0.00945,0.01929*
1,1,0.00472,0.00945,-0.01929*
1,1,0.00472,-0.00945,-0.01929*
%
%ADD31ROUNDEDRECTD31*%
G04:AMPARAMS|DCode=32|XSize=49.21mil|YSize=27.56mil|CornerRadius=2.76mil|HoleSize=0mil|Usage=FLASHONLY|Rotation=0.000|XOffset=0mil|YOffset=0mil|HoleType=Round|Shape=RoundedRectangle|*
%AMROUNDEDRECTD32*
21,1,0.04921,0.02205,0,0,0.0*
21,1,0.04370,0.02756,0,0,0.0*
1,1,0.00551,0.02185,-0.01102*
1,1,0.00551,-0.02185,-0.01102*
1,1,0.00551,-0.02185,0.01102*
1,1,0.00551,0.02185,0.01102*
%
%ADD32ROUNDEDRECTD32*%
G04:AMPARAMS|DCode=33|XSize=49.21mil|YSize=27.56mil|CornerRadius=2.76mil|HoleSize=0mil|Usage=FLASHONLY|Rotation=270.000|XOffset=0mil|YOffset=0mil|HoleType=Round|Shape=RoundedRectangle|*
%AMROUNDEDRECTD33*
21,1,0.04921,0.02205,0,0,270.0*
21,1,0.04370,0.02756,0,0,270.0*
1,1,0.00551,-0.01102,-0.02185*
1,1,0.00551,-0.01102,0.02185*
1,1,0.00551,0.01102,0.02185*
1,1,0.00551,0.01102,-0.02185*
%
%ADD33ROUNDEDRECTD33*%
G04:AMPARAMS|DCode=34|XSize=23.62mil|YSize=43.31mil|CornerRadius=5.91mil|HoleSize=0mil|Usage=FLASHONLY|Rotation=0.000|XOffset=0mil|YOffset=0mil|HoleType=Round|Shape=RoundedRectangle|*
%AMROUNDEDRECTD34*
21,1,0.02362,0.03150,0,0,0.0*
21,1,0.01181,0.04331,0,0,0.0*
1,1,0.01181,0.00591,-0.01575*
1,1,0.01181,-0.00591,-0.01575*
1,1,0.01181,-0.00591,0.01575*
1,1,0.01181,0.00591,0.01575*
%
%ADD34ROUNDEDRECTD34*%
G04:AMPARAMS|DCode=35|XSize=55.12mil|YSize=31.5mil|CornerRadius=3.15mil|HoleSize=0mil|Usage=FLASHONLY|Rotation=180.000|XOffset=0mil|YOffset=0mil|HoleType=Round|Shape=RoundedRectangle|*
%AMROUNDEDRECTD35*
21,1,0.05512,0.02520,0,0,180.0*
21,1,0.04882,0.03150,0,0,180.0*
1,1,0.00630,-0.02441,0.01260*
1,1,0.00630,0.02441,0.01260*
1,1,0.00630,0.02441,-0.01260*
1,1,0.00630,-0.02441,-0.01260*
%
%ADD35ROUNDEDRECTD35*%
G04:AMPARAMS|DCode=36|XSize=55.12mil|YSize=51.18mil|CornerRadius=5.12mil|HoleSize=0mil|Usage=FLASHONLY|Rotation=270.000|XOffset=0mil|YOffset=0mil|HoleType=Round|Shape=RoundedRectangle|*
%AMROUNDEDRECTD36*
21,1,0.05512,0.04095,0,0,270.0*
21,1,0.04488,0.05118,0,0,270.0*
1,1,0.01024,-0.02047,-0.02244*
1,1,0.01024,-0.02047,0.02244*
1,1,0.01024,0.02047,0.02244*
1,1,0.01024,0.02047,-0.02244*
%
%ADD36ROUNDEDRECTD36*%
G04:AMPARAMS|DCode=37|XSize=86.61mil|YSize=204.72mil|CornerRadius=8.66mil|HoleSize=0mil|Usage=FLASHONLY|Rotation=90.000|XOffset=0mil|YOffset=0mil|HoleType=Round|Shape=RoundedRectangle|*
%AMROUNDEDRECTD37*
21,1,0.08661,0.18740,0,0,90.0*
21,1,0.06929,0.20472,0,0,90.0*
1,1,0.01732,0.09370,0.03465*
1,1,0.01732,0.09370,-0.03465*
1,1,0.01732,-0.09370,-0.03465*
1,1,0.01732,-0.09370,0.03465*
%
%ADD37ROUNDEDRECTD37*%
G04:AMPARAMS|DCode=38|XSize=72.84mil|YSize=51.18mil|CornerRadius=7.68mil|HoleSize=0mil|Usage=FLASHONLY|Rotation=270.000|XOffset=0mil|YOffset=0mil|HoleType=Round|Shape=RoundedRectangle|*
%AMROUNDEDRECTD38*
21,1,0.07284,0.03583,0,0,270.0*
21,1,0.05748,0.05118,0,0,270.0*
1,1,0.01535,-0.01791,-0.02874*
1,1,0.01535,-0.01791,0.02874*
1,1,0.01535,0.01791,0.02874*
1,1,0.01535,0.01791,-0.02874*
%
%ADD38ROUNDEDRECTD38*%
G04:AMPARAMS|DCode=39|XSize=49.21mil|YSize=31.5mil|CornerRadius=3.15mil|HoleSize=0mil|Usage=FLASHONLY|Rotation=90.000|XOffset=0mil|YOffset=0mil|HoleType=Round|Shape=RoundedRectangle|*
%AMROUNDEDRECTD39*
21,1,0.04921,0.02520,0,0,90.0*
21,1,0.04291,0.03150,0,0,90.0*
1,1,0.00630,0.01260,0.02146*
1,1,0.00630,0.01260,-0.02146*
1,1,0.00630,-0.01260,-0.02146*
1,1,0.00630,-0.01260,0.02146*
%
%ADD39ROUNDEDRECTD39*%
G04:AMPARAMS|DCode=40|XSize=57.09mil|YSize=49.21mil|CornerRadius=9.84mil|HoleSize=0mil|Usage=FLASHONLY|Rotation=90.000|XOffset=0mil|YOffset=0mil|HoleType=Round|Shape=RoundedRectangle|*
%AMROUNDEDRECTD40*
21,1,0.05709,0.02953,0,0,90.0*
21,1,0.03740,0.04921,0,0,90.0*
1,1,0.01968,0.01476,0.01870*
1,1,0.01968,0.01476,-0.01870*
1,1,0.01968,-0.01476,-0.01870*
1,1,0.01968,-0.01476,0.01870*
%
%ADD40ROUNDEDRECTD40*%
G04:AMPARAMS|DCode=41|XSize=23.62mil|YSize=43.31mil|CornerRadius=2.36mil|HoleSize=0mil|Usage=FLASHONLY|Rotation=90.000|XOffset=0mil|YOffset=0mil|HoleType=Round|Shape=RoundedRectangle|*
%AMROUNDEDRECTD41*
21,1,0.02362,0.03858,0,0,90.0*
21,1,0.01890,0.04331,0,0,90.0*
1,1,0.00472,0.01929,0.00945*
1,1,0.00472,0.01929,-0.00945*
1,1,0.00472,-0.01929,-0.00945*
1,1,0.00472,-0.01929,0.00945*
%
%ADD41ROUNDEDRECTD41*%
G04:AMPARAMS|DCode=42|XSize=49.21mil|YSize=31.5mil|CornerRadius=3.15mil|HoleSize=0mil|Usage=FLASHONLY|Rotation=180.000|XOffset=0mil|YOffset=0mil|HoleType=Round|Shape=RoundedRectangle|*
%AMROUNDEDRECTD42*
21,1,0.04921,0.02520,0,0,180.0*
21,1,0.04291,0.03150,0,0,180.0*
1,1,0.00630,-0.02146,0.01260*
1,1,0.00630,0.02146,0.01260*
1,1,0.00630,0.02146,-0.01260*
1,1,0.00630,-0.02146,-0.01260*
%
%ADD42ROUNDEDRECTD42*%
%ADD43C,0.01968*%
%ADD44C,0.01181*%
%ADD45C,0.01575*%
%ADD46C,0.01200*%
%ADD47C,0.07874*%
G04:AMPARAMS|DCode=48|XSize=78.74mil|YSize=78.74mil|CornerRadius=7.87mil|HoleSize=0mil|Usage=FLASHONLY|Rotation=270.000|XOffset=0mil|YOffset=0mil|HoleType=Round|Shape=RoundedRectangle|*
%AMROUNDEDRECTD48*
21,1,0.07874,0.06299,0,0,270.0*
21,1,0.06299,0.07874,0,0,270.0*
1,1,0.01575,-0.03150,-0.03150*
1,1,0.01575,-0.03150,0.03150*
1,1,0.01575,0.03150,0.03150*
1,1,0.01575,0.03150,-0.03150*
%
%ADD48ROUNDEDRECTD48*%
%ADD49R,0.06299X0.06299*%
%ADD50C,0.06299*%
%ADD51C,0.02756*%
G36*
X198000Y122000D02*
X201000Y119000D01*
X201000Y18000D01*
X190000Y7000D01*
X120000D01*
X117000Y10000D01*
X117000Y45000D01*
X120000Y48000D01*
X162000Y48000D01*
X170000Y56000D01*
Y117000D01*
X175000Y122000D01*
X198000Y122000D01*
D02*
G37*
G36*
X283431Y100717D02*
Y25741D01*
X282962Y25568D01*
X282276Y26371D01*
X280484Y27902D01*
X278474Y29133D01*
X276296Y30035D01*
X274004Y30586D01*
X271654Y30771D01*
X269303Y30586D01*
X267011Y30035D01*
X264833Y29133D01*
X262823Y27902D01*
X261031Y26371D01*
X259500Y24578D01*
X258268Y22568D01*
X257366Y20390D01*
X256816Y18098D01*
X256631Y15748D01*
X256816Y13398D01*
X257366Y11106D01*
X258268Y8928D01*
X259500Y6918D01*
X261031Y5125D01*
X261799Y4469D01*
X261626Y4000D01*
X196653Y4000D01*
X196462Y4462D01*
X202000Y10000D01*
X227000Y10000D01*
X249000Y32000D01*
X249000Y102000D01*
X218318Y102000D01*
X213486Y106832D01*
Y108843D01*
X213387Y109340D01*
X213105Y109762D01*
X212683Y110044D01*
X212185Y110143D01*
X211822D01*
Y122000D01*
X211822Y122000D01*
X211684Y122697D01*
X211289Y123289D01*
X211289Y123289D01*
X210000Y124577D01*
Y125950D01*
X258198D01*
X283431Y100717D01*
D02*
G37*
D29*
X110630Y14362D02*
D03*
X39370D02*
D03*
D30*
X89764Y25189D02*
D03*
X87795D02*
D03*
X85827D02*
D03*
X83858D02*
D03*
X75984D02*
D03*
X74016D02*
D03*
X72047D02*
D03*
X70079D02*
D03*
X68110D02*
D03*
X66142D02*
D03*
X64173D02*
D03*
X58268D02*
D03*
X56299D02*
D03*
X54331D02*
D03*
X52362D02*
D03*
X50394D02*
D03*
X48425D02*
D03*
X46457D02*
D03*
X60236D02*
D03*
X62205D02*
D03*
X77953D02*
D03*
X79921D02*
D03*
X81890D02*
D03*
X91732D02*
D03*
X93701D02*
D03*
X95669D02*
D03*
X97638D02*
D03*
X99606D02*
D03*
X101575D02*
D03*
X103543D02*
D03*
D31*
X208260Y32118D02*
D03*
X215740D02*
D03*
Y21882D02*
D03*
X212000D02*
D03*
X208260D02*
D03*
X56260Y61118D02*
D03*
X63740D02*
D03*
Y50882D02*
D03*
X60000D02*
D03*
X56260D02*
D03*
D32*
X107000Y59740D02*
D03*
Y52260D02*
D03*
X100000Y59740D02*
D03*
Y52260D02*
D03*
X210000Y107740D02*
D03*
Y100260D02*
D03*
X56000Y88709D02*
D03*
Y81228D02*
D03*
X88000Y54260D02*
D03*
Y61740D02*
D03*
X63000Y75709D02*
D03*
Y68228D02*
D03*
X56000Y75709D02*
D03*
Y68228D02*
D03*
X21000Y42260D02*
D03*
Y49740D02*
D03*
X64000Y43740D02*
D03*
Y36260D02*
D03*
X21000Y62740D02*
D03*
Y55260D02*
D03*
X42000Y75709D02*
D03*
Y68228D02*
D03*
X49000Y75709D02*
D03*
Y68228D02*
D03*
X78000Y43740D02*
D03*
Y36260D02*
D03*
X84000Y75709D02*
D03*
Y68228D02*
D03*
X91000Y68228D02*
D03*
Y75709D02*
D03*
X36000Y43740D02*
D03*
Y36260D02*
D03*
X35000Y75709D02*
D03*
Y68228D02*
D03*
X50000Y43740D02*
D03*
Y36260D02*
D03*
X70000Y75709D02*
D03*
Y68228D02*
D03*
X71000Y43740D02*
D03*
Y36260D02*
D03*
X28000Y68228D02*
D03*
Y75709D02*
D03*
X43000Y36260D02*
D03*
Y43740D02*
D03*
X57000Y36260D02*
D03*
Y43740D02*
D03*
X50000Y52260D02*
D03*
Y59740D02*
D03*
X28000Y55260D02*
D03*
Y62740D02*
D03*
X77000Y68228D02*
D03*
Y75709D02*
D03*
X49000Y88709D02*
D03*
Y81228D02*
D03*
X85000Y43740D02*
D03*
Y36260D02*
D03*
D33*
X210740Y14000D02*
D03*
X203260D02*
D03*
X155260Y96000D02*
D03*
X162740D02*
D03*
X163740Y64000D02*
D03*
X156260D02*
D03*
X151260Y71000D02*
D03*
X158740D02*
D03*
X216260Y14000D02*
D03*
X223740D02*
D03*
X218260Y40000D02*
D03*
X225740D02*
D03*
X151740Y64000D02*
D03*
X144260D02*
D03*
D34*
X43740Y60118D02*
D03*
Y49882D02*
D03*
X79740Y61118D02*
D03*
X72260D02*
D03*
Y50882D02*
D03*
X79740D02*
D03*
X40000Y49882D02*
D03*
X36260D02*
D03*
Y60118D02*
D03*
X40000D02*
D03*
X151260Y88118D02*
D03*
X155000D02*
D03*
X158740D02*
D03*
Y77882D02*
D03*
X155000D02*
D03*
X151260D02*
D03*
X76000Y50882D02*
D03*
Y61118D02*
D03*
D35*
X165000Y79063D02*
D03*
Y86937D02*
D03*
D36*
X132095Y94000D02*
D03*
X143905D02*
D03*
D37*
X128000Y83842D02*
D03*
Y64157D02*
D03*
D38*
X146291Y56000D02*
D03*
X157709D02*
D03*
D39*
X35457Y27000D02*
D03*
X42543D02*
D03*
X162543Y103000D02*
D03*
X155457D02*
D03*
X204457Y40000D02*
D03*
X211543D02*
D03*
D40*
X142555Y113000D02*
D03*
X149445D02*
D03*
D41*
X225882Y32740D02*
D03*
Y25260D02*
D03*
X236118Y29000D02*
D03*
D42*
X145000Y79457D02*
D03*
Y86543D02*
D03*
D43*
X94260Y54260D02*
X100000Y60000D01*
X94260Y34260D02*
Y54260D01*
X91000Y31000D02*
X94260Y34260D01*
X89000Y113000D02*
X107000Y95000D01*
X87000Y115000D02*
X89000Y113000D01*
X107000Y59740D02*
Y95000D01*
X100000Y52260D02*
X107000D01*
X100000Y31000D02*
Y52260D01*
Y60000D02*
X104000Y56000D01*
X88000Y54260D02*
X94260D01*
X65882Y50882D02*
X67000Y52000D01*
X63740Y50882D02*
X65882D01*
X57000Y43740D02*
Y46000D01*
X32000Y27000D02*
X35457D01*
X88000Y54260D02*
X88260Y54000D01*
X89000Y113000D02*
X142555D01*
X127000Y94000D02*
X132095D01*
X145000Y86543D02*
X146575Y88118D01*
X151260D01*
X143905Y87638D02*
X145000Y86543D01*
X143905Y87638D02*
Y94000D01*
X130701Y86543D02*
X145000D01*
X128000Y83842D02*
X130701Y86543D01*
X145000Y79457D02*
X146575Y77882D01*
X151260D01*
X162543Y103000D02*
X166000D01*
X149445Y113000D02*
X155457Y106988D01*
Y103000D02*
Y106988D01*
X155260Y102803D02*
X155457Y103000D01*
X155260Y96000D02*
Y102803D01*
X155000Y95740D02*
X155260Y96000D01*
X155000Y88118D02*
Y95740D01*
X158740Y92000D02*
X162740Y96000D01*
X158740Y88118D02*
Y92000D01*
X153000Y71000D02*
X155000Y73000D01*
X151260Y71000D02*
X153000D01*
X155000Y73000D02*
Y77882D01*
X158740Y69000D02*
X163740Y64000D01*
X158740Y69000D02*
Y71000D01*
Y77882D01*
X157709Y56000D02*
X162000D01*
X151740Y64000D02*
X156260D01*
X104000Y56000D02*
X146291D01*
X144260Y58031D02*
X146291Y56000D01*
X144260Y58031D02*
Y64000D01*
X128157D02*
X144260D01*
X128000Y64157D02*
X128157Y64000D01*
D44*
X97500Y31000D02*
X100000D01*
X95000D02*
X97500D01*
X95669Y29169D02*
X97500Y31000D01*
X95669Y25189D02*
Y29169D01*
X99606Y30606D02*
X100000Y31000D01*
X99606Y25189D02*
Y30606D01*
X93701Y29701D02*
X95000Y31000D01*
X93701Y25189D02*
Y29701D01*
X100000Y31000D02*
X101575Y29425D01*
Y25189D02*
Y29425D01*
X77000Y55000D02*
X88000D01*
X71000Y36260D02*
X74016Y33244D01*
Y25189D02*
Y33244D01*
X89764Y15236D02*
X100000Y5000D01*
X89764Y15236D02*
Y25189D01*
X87795D02*
Y33465D01*
X102000Y20000D02*
X103543Y21543D01*
Y25189D01*
X95000Y20000D02*
X97000D01*
X97638Y20638D01*
Y25189D01*
X93000Y20000D02*
X95000D01*
X91732Y21268D02*
X93000Y20000D01*
X91732Y21268D02*
Y25189D01*
X81890Y20110D02*
X82000Y20000D01*
X81890Y20110D02*
Y25189D01*
X76000Y20000D02*
X77953Y21953D01*
Y25189D01*
X74016Y21984D02*
X76000Y20000D01*
X74016Y21984D02*
Y25189D01*
X68000Y20000D02*
X70079Y22079D01*
Y25189D01*
X66142Y21858D02*
X68000Y20000D01*
X66142Y21858D02*
Y25189D01*
X60000Y20000D02*
X62205Y22205D01*
Y25189D01*
X58268Y21732D02*
X60000Y20000D01*
X58268Y21732D02*
Y25189D01*
X52175Y22175D02*
X52362Y22362D01*
X50000Y20000D02*
X51439Y21439D01*
X52175Y22137D02*
Y22175D01*
X51477Y21439D02*
X52175Y22137D01*
X51439Y21439D02*
X51477D01*
X52362Y22362D02*
Y25189D01*
X48000Y20000D02*
X50000D01*
X46457Y21543D02*
X48000Y20000D01*
X46457Y21543D02*
Y25189D01*
X46479Y30000D02*
X48425Y28054D01*
Y25189D02*
Y28054D01*
X45543Y30000D02*
X46479D01*
X50394Y25189D02*
Y28607D01*
X49000Y30000D02*
X50394Y28607D01*
X49000Y30000D02*
X53000D01*
X46479D02*
X49000D01*
X53000D02*
X55000D01*
X53000D02*
X54331Y28669D01*
Y25189D02*
Y28669D01*
X42543Y27000D02*
X45543Y30000D01*
X55000D02*
X56299Y28701D01*
Y25189D02*
Y28701D01*
X36000Y43740D02*
X36260Y44000D01*
Y49882D01*
X36000Y36260D02*
X36000Y36260D01*
X43000D01*
X47260Y32000D01*
X57000D01*
X60236Y28764D01*
Y25189D02*
Y28764D01*
X57000Y36260D02*
X57000Y36260D01*
X50000Y36260D02*
X57000D01*
X57000Y36260D02*
X64173Y29087D01*
Y25189D02*
Y29087D01*
X64000Y36260D02*
X68110Y32150D01*
Y25189D02*
Y32150D01*
X78000Y36260D02*
X79921Y34339D01*
Y25189D02*
Y34339D01*
X85000Y36260D02*
X87795Y33465D01*
X85000Y36000D02*
Y36260D01*
X78000Y36000D02*
Y36260D01*
X162063Y82000D02*
X165000Y79063D01*
X154000Y82000D02*
X162063D01*
X151260Y79260D02*
X154000Y82000D01*
X151260Y77882D02*
Y79260D01*
X163937Y86937D02*
X165000D01*
X161000Y84000D02*
X163937Y86937D01*
X157000Y84000D02*
X161000D01*
X155000Y86000D02*
X157000Y84000D01*
X155000Y86000D02*
Y88118D01*
X100000Y5000D02*
X194000Y5000D01*
X203010Y14010D01*
X54000Y55000D02*
X77000D01*
X76000Y54000D02*
X77000Y55000D01*
X76000Y50882D02*
Y54000D01*
X51260Y52260D02*
X54000Y55000D01*
X50000Y52260D02*
X51260D01*
X40000Y49882D02*
Y53000D01*
X41000Y54000D01*
X48260D01*
X50000Y52260D01*
X28000Y55260D02*
X28740Y56000D01*
X45000D02*
X46000Y57000D01*
X28740Y56000D02*
X45000D01*
X56260Y59260D02*
Y61118D01*
X54000Y57000D02*
X56260Y59260D01*
X46000Y57000D02*
X54000D01*
D45*
X100000Y60000D02*
Y73000D01*
X53740Y40000D02*
X60000D01*
X44118Y49882D02*
X47000Y47000D01*
X43740Y49882D02*
X44118D01*
X81260Y40000D02*
X85000Y43740D01*
X65000Y40000D02*
X81260D01*
X84000Y68228D02*
X84000Y68228D01*
X91000D01*
X79740Y63968D02*
X84000Y68228D01*
X79740Y61118D02*
Y63968D01*
X70000Y68228D02*
X72260Y65969D01*
X70000Y68228D02*
X70000Y68228D01*
X72260Y61118D02*
Y65969D01*
X42000Y68228D02*
X49000D01*
X42000D02*
X43740Y66488D01*
Y60118D02*
Y66488D01*
X43000Y40000D02*
Y43740D01*
X50000D02*
X53740Y40000D01*
X69000Y48000D02*
X69378D01*
X72260Y50882D01*
X42543Y27000D02*
Y27457D01*
X39000Y31000D02*
X42543Y27457D01*
X78000Y43740D02*
X79740Y45480D01*
Y50882D01*
X64000Y43740D02*
X71000D01*
X60000Y47740D02*
X64000Y43740D01*
X60000Y47740D02*
Y50882D01*
X53000Y49000D02*
X54882Y50882D01*
X56260D01*
X77000Y82709D02*
X84000Y75709D01*
X77000Y82709D02*
Y105000D01*
X56000Y71969D02*
X80260D01*
X84000Y75709D01*
X28000Y31000D02*
X39000D01*
X21000Y38000D02*
X28000Y31000D01*
X76000Y79000D02*
X77000Y78000D01*
Y75709D02*
Y78000D01*
X42000Y75709D02*
Y79000D01*
X28000Y75709D02*
Y79000D01*
X21000Y62740D02*
Y112000D01*
X30000Y121000D01*
X81000D01*
X87000Y115000D01*
X50000Y63000D02*
X50772D01*
X56000Y68228D01*
X70000Y75709D02*
X72000Y77709D01*
Y110000D01*
X77000Y115000D01*
X42000Y95709D02*
X49000Y88709D01*
X42000Y95709D02*
Y110000D01*
X47000Y115000D01*
X52000Y92709D02*
X56000Y88709D01*
X52000Y92709D02*
Y110000D01*
X57000Y115000D01*
X49000Y71969D02*
Y75709D01*
X56000D02*
Y81228D01*
X35000Y80000D02*
X40000Y85000D01*
X35000Y75709D02*
Y80000D01*
X40000Y85000D02*
X59000D01*
X62000Y88000D01*
X97291Y75709D02*
X100000Y73000D01*
X91000Y75709D02*
X97291D01*
X63000Y68228D02*
X63740Y67488D01*
Y61118D02*
Y67488D01*
X70000Y68228D02*
X77000D01*
X35000D02*
X36260Y66969D01*
Y60118D02*
Y66969D01*
X21000Y38000D02*
Y42260D01*
X62000Y88000D02*
Y110000D01*
X49000Y81228D02*
X56000D01*
X62000Y110000D02*
X67000Y115000D01*
X28000Y59000D02*
Y62740D01*
X40000Y60118D02*
Y64000D01*
X50000Y59740D02*
Y63000D01*
X28000Y68228D02*
X35000D01*
X56000Y75709D02*
X63000D01*
X83000Y58000D02*
X86740Y61740D01*
X88000D01*
X82000Y57000D02*
X83000Y58000D01*
X77000Y57000D02*
X82000D01*
X76000Y58000D02*
X77000Y57000D01*
X76000Y58000D02*
Y61118D01*
X211543Y29425D02*
X212000Y28969D01*
X211543Y29425D02*
Y40000D01*
X208260Y25229D02*
X212000Y28969D01*
X208260Y21685D02*
Y25229D01*
X212000Y28969D02*
X215740Y25229D01*
Y21685D02*
Y25229D01*
X225882Y22118D02*
X226000Y22000D01*
X225882Y22118D02*
Y25260D01*
X223740Y14000D02*
X227000D01*
X210740D02*
X216260D01*
X210740D02*
X212000Y15259D01*
Y21685D01*
X97000Y125000D02*
X207000D01*
X210000Y107740D02*
Y122000D01*
X207000Y125000D02*
X210000Y122000D01*
Y100260D02*
X244000Y66260D01*
Y57315D02*
Y66260D01*
X210000Y107740D02*
X221055Y96685D01*
X244000D01*
X204457Y102197D02*
X210000Y107740D01*
X204457Y40000D02*
Y102197D01*
Y40000D02*
X208260Y36197D01*
Y32315D02*
Y36197D01*
X215740Y37480D02*
X218260Y40000D01*
X215740Y32315D02*
Y37480D01*
X225740Y32882D02*
X225882Y32740D01*
X225740Y32882D02*
Y40000D01*
X236118Y29000D02*
X244000Y36882D01*
Y57315D01*
X87000Y115000D02*
X97000Y125000D01*
X28000Y55260D02*
X28000Y55260D01*
X21000Y55260D02*
X28000D01*
X21000Y49740D02*
Y55260D01*
D46*
X12498Y90000D02*
X7500D01*
Y87501D01*
X8333Y86668D01*
X11665D01*
X12498Y87501D01*
Y90000D01*
Y81669D02*
Y85002D01*
X9999D01*
X10832Y83336D01*
Y82502D01*
X9999Y81669D01*
X8333D01*
X7500Y82502D01*
Y84169D01*
X8333Y85002D01*
X11665Y80003D02*
X12498Y79170D01*
Y77504D01*
X11665Y76671D01*
X8333D01*
X7500Y77504D01*
Y79170D01*
X8333Y80003D01*
X11665D01*
X7500Y75005D02*
Y73339D01*
Y74172D01*
X12498D01*
X11665Y75005D01*
X8333Y70840D02*
X7500Y70007D01*
Y68340D01*
X8333Y67507D01*
X11665D01*
X12498Y68340D01*
Y70007D01*
X11665Y70840D01*
X10832D01*
X9999Y70007D01*
Y67507D01*
Y65841D02*
Y62509D01*
X11665Y60843D02*
X12498Y60010D01*
Y58344D01*
X11665Y57511D01*
X8333D01*
X7500Y58344D01*
Y60010D01*
X8333Y60843D01*
X11665D01*
X12498Y52512D02*
Y55844D01*
X9999D01*
X10832Y54178D01*
Y53345D01*
X9999Y52512D01*
X8333D01*
X7500Y53345D01*
Y55011D01*
X8333Y55844D01*
X9999Y50846D02*
Y47514D01*
X11665Y45848D02*
X12498Y45015D01*
Y43349D01*
X11665Y42515D01*
X8333D01*
X7500Y43349D01*
Y45015D01*
X8333Y45848D01*
X11665D01*
X7500Y37517D02*
Y40849D01*
X10832Y37517D01*
X11665D01*
X12498Y38350D01*
Y40016D01*
X11665Y40849D01*
D47*
X244000Y57315D02*
D03*
D48*
Y96685D02*
D03*
D49*
X47000Y105000D02*
D03*
D50*
Y115000D02*
D03*
X57000Y105000D02*
D03*
Y115000D02*
D03*
X67000Y105000D02*
D03*
Y115000D02*
D03*
X77000Y105000D02*
D03*
Y115000D02*
D03*
X87000Y105000D02*
D03*
Y115000D02*
D03*
D51*
X60000Y40000D02*
D03*
X67000Y52000D02*
D03*
X47000Y47000D02*
D03*
X65000Y40000D02*
D03*
X69000Y48000D02*
D03*
X91000Y31000D02*
D03*
X53000Y49000D02*
D03*
X56000Y71969D02*
D03*
X102000Y20000D02*
D03*
X82000D02*
D03*
X76000D02*
D03*
X68000D02*
D03*
X60000D02*
D03*
X39000Y31000D02*
D03*
X57000Y46000D02*
D03*
X49000Y71969D02*
D03*
X28000Y59000D02*
D03*
X40000Y64000D02*
D03*
X203000Y6000D02*
D03*
X219000Y107000D02*
D03*
X32000Y27000D02*
D03*
X43000Y40000D02*
D03*
X28000Y79000D02*
D03*
X83000Y58000D02*
D03*
X162000Y56000D02*
D03*
X127000Y94000D02*
D03*
X42000Y79000D02*
D03*
X50000Y63000D02*
D03*
X227000Y14000D02*
D03*
X257000Y6000D02*
D03*
X281000Y31000D02*
D03*
X226000Y22000D02*
D03*
X281000Y100000D02*
D03*
X251000Y103000D02*
D03*
X257000Y123000D02*
D03*
X169000Y49000D02*
D03*
X244000Y20000D02*
D03*
X197000Y118000D02*
D03*
X189000Y10000D02*
D03*
X198000Y19000D02*
D03*
X176000Y118000D02*
D03*
X121000Y11000D02*
D03*
Y44000D02*
D03*
X166000Y103000D02*
D03*
X155000Y73000D02*
D03*
X76000Y79000D02*
D03*
X50000Y20000D02*
D03*
X212000Y28969D02*
D03*
X215000Y123000D02*
D03*
X95000Y20000D02*
D03*
M02*
